<mxfile host="Electron" modified="2023-04-12T23:29:12.120Z" agent="Mozilla/5.0 (Macintosh; Intel Mac OS X 10_15_7) AppleWebKit/537.36 (KHTML, like Gecko) draw.io/21.1.2 Chrome/106.0.5249.199 Electron/21.4.3 Safari/537.36" etag="Q3fTgEf58f13FMsCEZT-" version="21.1.2" type="device" pages="2">
  <diagram name="ZTNA" id="iTOTkxo8upMZMkDa332q">
    <mxGraphModel dx="1314" dy="924" grid="1" gridSize="10" guides="1" tooltips="1" connect="1" arrows="1" fold="1" page="1" pageScale="1" pageWidth="827" pageHeight="1169" math="0" shadow="0">
      <root>
        <mxCell id="Uwwz0JagbKvEItC36lnY-0" />
        <mxCell id="Uwwz0JagbKvEItC36lnY-1" parent="Uwwz0JagbKvEItC36lnY-0" />
        <mxCell id="Uwwz0JagbKvEItC36lnY-2" value="" style="rounded=1;whiteSpace=wrap;html=1;sketch=0;fontSize=10;strokeColor=#007fff;fillColor=#FFFFFF;gradientColor=none;gradientDirection=south;absoluteArcSize=1;arcSize=4;fontFamily=Helvetica;" parent="Uwwz0JagbKvEItC36lnY-1" vertex="1">
          <mxGeometry x="343.5" y="127" width="859.9999999999999" height="600" as="geometry" />
        </mxCell>
        <mxCell id="Uwwz0JagbKvEItC36lnY-3" value="" style="vsdxID=12;fillColor=#f0f0f0;gradientColor=none;shape=stencil(hZNRcoMgEIZPwysDrJjw2EmTC/QETqSVqdUMMa3p6UtcNIAk9Qn+/Ve+XVgCu3NTnTQR7DzY/lP/mHpoCLwSIUzXaGsGtyKwJ7B7763+sP2lq3F/qpxTsEnRNebwm1uwyh7fzK9GjVHgG4kBzPzqv28njj6OoevsVsUkHNB7vFg089g9b2nBVPCVJcZHMcfLjc8Q0Q9G8MRUFt4AoWE6nr04gtZ0Aa3a0kLGxM9wlaIgEuSY0DmUShAfFQXrFMi1Lccd5CwKk/+wLyl3SW5X/EuFXuIsaXLYNIg9j3iDe8kkZN7F/aJ5ShHf/FWsa4HYAdkOZSifv123mIYEx8e0Lc5YGE+Hykk4kLD/Aw==);strokeColor=#bfbfbf;spacingTop=-3;spacingBottom=-3;spacingLeft=-3;spacingRight=-3;labelBackgroundColor=none;rounded=1;html=1;whiteSpace=wrap;arcSize=17;" parent="Uwwz0JagbKvEItC36lnY-1" vertex="1">
          <mxGeometry x="684.5" y="167" width="206" height="490" as="geometry" />
        </mxCell>
        <mxCell id="Uwwz0JagbKvEItC36lnY-4" style="vsdxID=7;fillColor=#ffffff;gradientColor=none;fillOpacity=0;strokeOpacity=0;shape=stencil(pZPRDoIgFIafhlt35Cy1y2b2Hi4xWSYOteztg7EMNXVMrg7w/4fv3zgE46ZIa0YoNK0Ud/biWVsQPBNKeVUwyVtVEUwIxrmQ7CZFV2VmX6daqauHeOoOvfGBdlB427uLEZa8soToReGy9tpJ09Uf1MHRXl+vP3q2pxtyOpbjjAVnMHDaZj94QbQHX/lD+xrd4izZF+ONef8kBKd44JQGnOBhF/nqp5pgwyomrGJN/4uqfxOS87I0AzagqGI6UerITCMmHw==);spacingTop=-3;spacingBottom=-3;spacingLeft=-3;spacingRight=-3;labelBackgroundColor=none;rounded=0;html=1;whiteSpace=wrap;" parent="Uwwz0JagbKvEItC36lnY-1" vertex="1">
          <mxGeometry x="193" y="101" width="918" height="626" as="geometry" />
        </mxCell>
        <mxCell id="Uwwz0JagbKvEItC36lnY-5" value="" style="group" parent="Uwwz0JagbKvEItC36lnY-1" vertex="1" connectable="0">
          <mxGeometry x="933.5" y="562" width="207" height="100" as="geometry" />
        </mxCell>
        <mxCell id="Uwwz0JagbKvEItC36lnY-6" style="vsdxID=114;fillColor=#f0f0f0;gradientColor=none;shape=stencil(fZPdcoMgEIWfhlsHWDXhspMmL9AncJRUplYzxDSapw9xpfyExCvcPQe+XVgCu3NbnSTh9Dzq4UdeVTO2BD4J56pvpVajWRHYE9gdBy2/9XDpG/w/VUbJ6RKRDXrYQ81ppesvdZMYoxmwTYEJdP4Of48TpzWPqXndIcvFEjigtr5oFLNQbX+zQlDvgxzzE7f5crM6eLDBBPa8AlYBWAsrHAH9MBCd6j1gsc3ybQAdWp6hhTA9iMBDTkZphPmqMIgNkGpcAts5/ssoy3fUzuDKyFnI7VcWl2JR/X5F9C9Z3a0kDIlX4a45hp/Ce5/5cy0QKiDZnwTl+5drFsuI4PCorsMJ8/PxSJkQjiPs7w==);strokeColor=#bfbfbf;spacingTop=-3;spacingBottom=-3;spacingLeft=-3;spacingRight=-3;labelBackgroundColor=none;rounded=1;html=1;whiteSpace=wrap;opacity=50;textOpacity=50;" parent="Uwwz0JagbKvEItC36lnY-5" vertex="1">
          <mxGeometry width="207" height="100" as="geometry" />
        </mxCell>
        <mxCell id="Uwwz0JagbKvEItC36lnY-7" value="&lt;p style=&quot;align:center;margin-left:0;margin-right:0;margin-top:0px;margin-bottom:0px;text-indent:0;valign:middle;direction:ltr;&quot;&gt;&lt;font style=&quot;font-size:9px;font-family:Arial;color:#000000;direction:ltr;letter-spacing:0px;line-height:100%;opacity:1&quot;&gt;Protected Z&lt;br&gt;&lt;/font&gt;&lt;/p&gt;" style="text;vsdxID=113;fillColor=none;gradientColor=none;strokeColor=none;spacingTop=-3;spacingBottom=-3;spacingLeft=-3;spacingRight=-3;labelBackgroundColor=none;rounded=1;html=1;whiteSpace=wrap;verticalAlign=middle;align=center;;html=1;opacity=50;textOpacity=50;" parent="Uwwz0JagbKvEItC36lnY-5" vertex="1">
          <mxGeometry x="12.700000000000045" y="11.829999999999984" width="182.88" height="12.7" as="geometry" />
        </mxCell>
        <mxCell id="Uwwz0JagbKvEItC36lnY-9" value=". . ." style="text;html=1;strokeColor=none;fillColor=none;align=center;verticalAlign=middle;whiteSpace=wrap;rounded=0;fontFamily=Helvetica;fontSize=10;" parent="Uwwz0JagbKvEItC36lnY-1" vertex="1">
          <mxGeometry x="1007" y="532" width="60" height="30" as="geometry" />
        </mxCell>
        <mxCell id="Uwwz0JagbKvEItC36lnY-10" value="&lt;p style=&quot;align:center;margin-left:0;margin-right:0;margin-top:0px;margin-bottom:0px;text-indent:0;valign:middle;direction:ltr;&quot;&gt;&lt;font style=&quot;font-size:9px;font-family:Arial;color:#000000;direction:ltr;letter-spacing:0px;line-height:100%;opacity:1&quot;&gt;Internal&lt;/font&gt;&lt;/p&gt;" style="text;vsdxID=11;fillColor=none;gradientColor=none;strokeColor=none;spacingTop=-3;spacingBottom=-3;spacingLeft=-3;spacingRight=-3;labelBackgroundColor=none;rounded=1;html=1;whiteSpace=wrap;verticalAlign=middle;align=center;;html=1;" parent="Uwwz0JagbKvEItC36lnY-1" vertex="1">
          <mxGeometry x="696.4466019417475" y="184.8886567164179" width="184.49417475728154" height="18.576119402985075" as="geometry" />
        </mxCell>
        <mxCell id="Uwwz0JagbKvEItC36lnY-11" value="&lt;span style=&quot;&quot;&gt;172.16.136.64/26&amp;nbsp;&lt;/span&gt;" style="text;html=1;strokeColor=none;fillColor=none;align=right;verticalAlign=middle;whiteSpace=wrap;rounded=0;fontFamily=Helvetica;fontSize=10;" parent="Uwwz0JagbKvEItC36lnY-1" vertex="1">
          <mxGeometry x="798.752427184466" y="628.2089552238806" width="91.74757281553397" height="27.791044776119403" as="geometry" />
        </mxCell>
        <mxCell id="Uwwz0JagbKvEItC36lnY-12" value="&lt;font color=&quot;#000000&quot;&gt;Public IP Address&lt;/font&gt;" style="aspect=fixed;html=1;points=[];align=center;image;fontSize=12;image=img/lib/azure2/networking/Public_IP_Addresses.svg;rounded=1;sketch=0;strokeColor=#007fff;fillColor=#FFFFFF;gradientColor=none;gradientDirection=south;fontFamily=Helvetica;fontColor=#999999;" parent="Uwwz0JagbKvEItC36lnY-1" vertex="1">
          <mxGeometry x="300" y="297.00000000000006" width="65" height="52" as="geometry" />
        </mxCell>
        <mxCell id="Uwwz0JagbKvEItC36lnY-13" value="&lt;span style=&quot;font-size: 13px;&quot;&gt;Virtual Network&amp;nbsp;&lt;/span&gt;&lt;br style=&quot;font-size: 13px;&quot;&gt;&lt;span style=&quot;font-size: 13px;&quot;&gt;172.16.136.0/22&amp;nbsp;&lt;/span&gt;" style="text;html=1;strokeColor=none;fillColor=none;align=right;verticalAlign=middle;whiteSpace=wrap;rounded=0;sketch=0;fontSize=4;labelPosition=center;verticalLabelPosition=middle;horizontal=1;fontFamily=Helvetica;" parent="Uwwz0JagbKvEItC36lnY-1" vertex="1">
          <mxGeometry x="365" y="677" width="766.83" height="50" as="geometry" />
        </mxCell>
        <mxCell id="Uwwz0JagbKvEItC36lnY-14" value="" style="aspect=fixed;html=1;points=[];align=center;image;fontSize=12;image=img/lib/azure2/networking/Virtual_Networks.svg;rounded=1;sketch=0;strokeColor=#007fff;fillColor=#FFFFFF;gradientColor=none;gradientDirection=south;fontFamily=Helvetica;" parent="Uwwz0JagbKvEItC36lnY-1" vertex="1">
          <mxGeometry x="1131.8333333333333" y="687" width="57.548333333333325" height="34.32833333333333" as="geometry" />
        </mxCell>
        <mxCell id="Uwwz0JagbKvEItC36lnY-15" style="vsdxID=113;fillColor=none;gradientColor=none;strokeColor=none;spacingTop=-3;spacingBottom=-3;spacingLeft=-3;spacingRight=-3;labelBackgroundColor=none;rounded=1;html=1;whiteSpace=wrap;" parent="Uwwz0JagbKvEItC36lnY-1" vertex="1">
          <mxGeometry x="933.5" y="167" width="207" height="237" as="geometry" />
        </mxCell>
        <mxCell id="Uwwz0JagbKvEItC36lnY-16" style="vsdxID=114;fillColor=#f0f0f0;gradientColor=none;shape=stencil(fZPdcoMgEIWfhlsHWDXhspMmL9AncJRUplYzxDSapw9xpfyExCvcPQe+XVgCu3NbnSTh9Dzq4UdeVTO2BD4J56pvpVajWRHYE9gdBy2/9XDpG/w/VUbJ6RKRDXrYQ81ppesvdZMYoxmwTYEJdP4Of48TpzWPqXndIcvFEjigtr5oFLNQbX+zQlDvgxzzE7f5crM6eLDBBPa8AlYBWAsrHAH9MBCd6j1gsc3ybQAdWp6hhTA9iMBDTkZphPmqMIgNkGpcAts5/ssoy3fUzuDKyFnI7VcWl2JR/X5F9C9Z3a0kDIlX4a45hp/Ce5/5cy0QKiDZnwTl+5drFsuI4PCorsMJ8/PxSJkQjiPs7w==);strokeColor=#bfbfbf;spacingTop=-3;spacingBottom=-3;spacingLeft=-3;spacingRight=-3;labelBackgroundColor=none;rounded=1;html=1;whiteSpace=wrap;" parent="Uwwz0JagbKvEItC36lnY-15" vertex="1">
          <mxGeometry width="207" height="237" as="geometry" />
        </mxCell>
        <mxCell id="Uwwz0JagbKvEItC36lnY-17" value="&lt;p style=&quot;align:center;margin-left:0;margin-right:0;margin-top:0px;margin-bottom:0px;text-indent:0;valign:middle;direction:ltr;&quot;&gt;&lt;font style=&quot;font-size:9px;font-family:Arial;color:#000000;direction:ltr;letter-spacing:0px;line-height:100%;opacity:1&quot;&gt;Application&lt;br&gt;&lt;/font&gt;&lt;/p&gt;" style="text;vsdxID=113;fillColor=none;gradientColor=none;strokeColor=none;spacingTop=-3;spacingBottom=-3;spacingLeft=-3;spacingRight=-3;labelBackgroundColor=none;rounded=1;html=1;whiteSpace=wrap;verticalAlign=middle;align=center;;html=1;" parent="Uwwz0JagbKvEItC36lnY-15" vertex="1">
          <mxGeometry x="12.7" y="11.83" width="182.88" height="12.7" as="geometry" />
        </mxCell>
        <mxCell id="Uwwz0JagbKvEItC36lnY-21" value="" style="aspect=fixed;html=1;points=[];align=center;image;fontSize=12;image=img/lib/azure2/networking/Route_Tables.svg;rounded=1;sketch=0;strokeColor=#007fff;fillColor=#FFFFFF;gradientColor=none;gradientDirection=south;fontFamily=Helvetica;" parent="Uwwz0JagbKvEItC36lnY-15" vertex="1">
          <mxGeometry x="4" y="200" width="33.03" height="32" as="geometry" />
        </mxCell>
        <mxCell id="-9M1yN9mNfplaIJhIjGz-1" value="" style="shape=image;verticalLabelPosition=bottom;verticalAlign=top;imageAspect=0;aspect=fixed;image=data:image/svg+xml,PHN2ZyB4bWxucz0iaHR0cDovL3d3dy53My5vcmcvMjAwMC9zdmciIGRhdGEtbmFtZT0iZmx1ZW50X2ljb25zIiB2aWV3Qm94PSIwIDAgMTggMTgiPjxkZWZzPjxsaW5lYXJHcmFkaWVudCBpZD0iYSIgeDE9IjguODgiIHkxPSIxMi4yMSIgeDI9IjguODgiIHkyPSIuMjEiIGdyYWRpZW50VW5pdHM9InVzZXJTcGFjZU9uVXNlIj48c3RvcCBvZmZzZXQ9IjAiIHN0b3AtY29sb3I9IiMwMDc4ZDQiLz48c3RvcCBvZmZzZXQ9Ii44MiIgc3RvcC1jb2xvcj0iIzVlYTBlZiIvPjwvbGluZWFyR3JhZGllbnQ+PGxpbmVhckdyYWRpZW50IGlkPSJiIiB4MT0iOC44OCIgeTE9IjE2Ljg0IiB4Mj0iOC44OCIgeTI9IjEyLjIxIiBncmFkaWVudFVuaXRzPSJ1c2VyU3BhY2VPblVzZSI+PHN0b3Agb2Zmc2V0PSIuMTUiIHN0b3AtY29sb3I9IiNjY2MiLz48c3RvcCBvZmZzZXQ9IjEiIHN0b3AtY29sb3I9IiM3MDcwNzAiLz48L2xpbmVhckdyYWRpZW50PjwvZGVmcz48cmVjdCB4PSItLjEyIiB5PSIuMjEiIHdpZHRoPSIxOCIgaGVpZ2h0PSIxMiIgcng9Ii42IiBmaWxsPSJ1cmwoI2EpIi8+PHBhdGggZmlsbD0iIzUwZTZmZiIgZD0iTTExLjg4IDQuNDZ2My40OWwtMyAxLjc2di0zLjVsMy0xLjc1eiIvPjxwYXRoIGZpbGw9IiNjM2YxZmYiIGQ9Ik0xMS44OCA0LjQ2bC0zIDEuNzYtMy0xLjc2IDMtMS43NSAzIDEuNzV6Ii8+PHBhdGggZmlsbD0iIzljZWJmZiIgZD0iTTguODggNi4yMnYzLjQ5bC0zLTEuNzZWNC40NmwzIDEuNzZ6Ii8+PHBhdGggZmlsbD0iI2MzZjFmZiIgZD0iTTUuODggNy45NWwzLTEuNzR2My41bC0zLTEuNzZ6Ii8+PHBhdGggZmlsbD0iIzljZWJmZiIgZD0iTTExLjg4IDcuOTVsLTMtMS43NHYzLjVsMy0xLjc2eiIvPjxwYXRoIGQ9Ik0xMi40OSAxNS44NGMtMS43OC0uMjgtMS44NS0xLjU2LTEuODUtMy42M0g3LjExYzAgMi4wNy0uMDYgMy4zNS0xLjg0IDMuNjNhMSAxIDAgMDAtLjg5IDFoOWExIDEgMCAwMC0uODktMXoiIGZpbGw9InVybCgjYikiLz48L3N2Zz4=;rounded=1;sketch=0;fontSize=3;strokeColor=#007fff;fillColor=#FFFFFF;gradientColor=none;gradientDirection=south;fontFamily=Helvetica;fontColor=#000000;" parent="Uwwz0JagbKvEItC36lnY-15" vertex="1">
          <mxGeometry x="80" y="80" width="47" height="47" as="geometry" />
        </mxCell>
        <mxCell id="-9M1yN9mNfplaIJhIjGz-3" value="Application Server" style="text;html=1;strokeColor=none;fillColor=none;align=center;verticalAlign=middle;whiteSpace=wrap;rounded=0;fontFamily=Helvetica;fontSize=10;fontColor=#000000;" parent="Uwwz0JagbKvEItC36lnY-15" vertex="1">
          <mxGeometry x="74.13999999999999" y="120" width="60" height="30" as="geometry" />
        </mxCell>
        <mxCell id="Uwwz0JagbKvEItC36lnY-22" value="" style="group" parent="Uwwz0JagbKvEItC36lnY-1" vertex="1" connectable="0">
          <mxGeometry x="933.5" y="437" width="207" height="100" as="geometry" />
        </mxCell>
        <mxCell id="Uwwz0JagbKvEItC36lnY-23" style="vsdxID=114;fillColor=#f0f0f0;gradientColor=none;shape=stencil(fZPdcoMgEIWfhlsHWDXhspMmL9AncJRUplYzxDSapw9xpfyExCvcPQe+XVgCu3NbnSTh9Dzq4UdeVTO2BD4J56pvpVajWRHYE9gdBy2/9XDpG/w/VUbJ6RKRDXrYQ81ppesvdZMYoxmwTYEJdP4Of48TpzWPqXndIcvFEjigtr5oFLNQbX+zQlDvgxzzE7f5crM6eLDBBPa8AlYBWAsrHAH9MBCd6j1gsc3ybQAdWp6hhTA9iMBDTkZphPmqMIgNkGpcAts5/ssoy3fUzuDKyFnI7VcWl2JR/X5F9C9Z3a0kDIlX4a45hp/Ce5/5cy0QKiDZnwTl+5drFsuI4PCorsMJ8/PxSJkQjiPs7w==);strokeColor=#bfbfbf;spacingTop=-3;spacingBottom=-3;spacingLeft=-3;spacingRight=-3;labelBackgroundColor=none;rounded=1;html=1;whiteSpace=wrap;opacity=50;textOpacity=50;" parent="Uwwz0JagbKvEItC36lnY-22" vertex="1">
          <mxGeometry width="207" height="100" as="geometry" />
        </mxCell>
        <mxCell id="Uwwz0JagbKvEItC36lnY-24" value="&lt;p style=&quot;align:center;margin-left:0;margin-right:0;margin-top:0px;margin-bottom:0px;text-indent:0;valign:middle;direction:ltr;&quot;&gt;&lt;font style=&quot;font-size:9px;font-family:Arial;color:#000000;direction:ltr;letter-spacing:0px;line-height:100%;opacity:1&quot;&gt;Protected B&lt;br&gt;&lt;/font&gt;&lt;/p&gt;" style="text;vsdxID=113;fillColor=none;gradientColor=none;strokeColor=none;spacingTop=-3;spacingBottom=-3;spacingLeft=-3;spacingRight=-3;labelBackgroundColor=none;rounded=1;html=1;whiteSpace=wrap;verticalAlign=middle;align=center;;html=1;opacity=50;textOpacity=50;" parent="Uwwz0JagbKvEItC36lnY-22" vertex="1">
          <mxGeometry x="12.700000000000045" y="11.829999999999984" width="182.88" height="12.7" as="geometry" />
        </mxCell>
        <mxCell id="Uwwz0JagbKvEItC36lnY-26" value="" style="vsdxID=12;fillColor=#f0f0f0;gradientColor=none;shape=stencil(hZNRcoMgEIZPwysDrJjw2EmTC/QETqSVqdUMMa3p6UtcNIAk9Qn+/Ve+XVgCu3NTnTQR7DzY/lP/mHpoCLwSIUzXaGsGtyKwJ7B7763+sP2lq3F/qpxTsEnRNebwm1uwyh7fzK9GjVHgG4kBzPzqv28njj6OoevsVsUkHNB7vFg089g9b2nBVPCVJcZHMcfLjc8Q0Q9G8MRUFt4AoWE6nr04gtZ0Aa3a0kLGxM9wlaIgEuSY0DmUShAfFQXrFMi1Lccd5CwKk/+wLyl3SW5X/EuFXuIsaXLYNIg9j3iDe8kkZN7F/aJ5ShHf/FWsa4HYAdkOZSifv123mIYEx8e0Lc5YGE+Hykk4kLD/Aw==);strokeColor=#bfbfbf;spacingTop=-3;spacingBottom=-3;spacingLeft=-3;spacingRight=-3;labelBackgroundColor=none;rounded=1;html=1;whiteSpace=wrap;" parent="Uwwz0JagbKvEItC36lnY-1" vertex="1">
          <mxGeometry x="393.5" y="166" width="206" height="490" as="geometry" />
        </mxCell>
        <mxCell id="Uwwz0JagbKvEItC36lnY-27" value="" style="group" parent="Uwwz0JagbKvEItC36lnY-1" vertex="1" connectable="0">
          <mxGeometry x="393.5" y="167" width="206" height="490" as="geometry" />
        </mxCell>
        <mxCell id="Uwwz0JagbKvEItC36lnY-28" value="&lt;p style=&quot;align:center;margin-left:0;margin-right:0;margin-top:0px;margin-bottom:0px;text-indent:0;valign:middle;direction:ltr;&quot;&gt;&lt;font style=&quot;font-size:9px;font-family:Arial;color:#000000;direction:ltr;letter-spacing:0px;line-height:100%;opacity:1&quot;&gt;External&lt;/font&gt;&lt;/p&gt;" style="text;vsdxID=11;fillColor=none;gradientColor=none;strokeColor=none;spacingTop=-3;spacingBottom=-3;spacingLeft=-3;spacingRight=-3;labelBackgroundColor=none;rounded=1;html=1;whiteSpace=wrap;verticalAlign=middle;align=center;;html=1;" parent="Uwwz0JagbKvEItC36lnY-27" vertex="1">
          <mxGeometry x="12.699999999999989" y="17.888656716417895" width="180.98" height="18.57611940298507" as="geometry" />
        </mxCell>
        <mxCell id="Uwwz0JagbKvEItC36lnY-29" value="&lt;span style=&quot;&quot;&gt;&amp;nbsp;172.16.136.0/26&lt;/span&gt;" style="text;html=1;strokeColor=none;fillColor=none;align=left;verticalAlign=middle;whiteSpace=wrap;rounded=0;fontFamily=Helvetica;fontSize=10;" parent="Uwwz0JagbKvEItC36lnY-27" vertex="1">
          <mxGeometry y="462.2089552238806" width="90" height="27.791044776119403" as="geometry" />
        </mxCell>
        <mxCell id="Uwwz0JagbKvEItC36lnY-30" value="" style="aspect=fixed;html=1;points=[];align=center;image;fontSize=12;image=img/lib/azure2/networking/Network_Interfaces.svg;strokeWidth=2;rotation=-180;movable=1;resizable=1;rotatable=1;deletable=1;editable=1;connectable=1;direction=east;container=0;" parent="Uwwz0JagbKvEItC36lnY-1" vertex="1">
          <mxGeometry x="563.5" y="341" width="35.13" height="31" as="geometry" />
        </mxCell>
        <mxCell id="Uwwz0JagbKvEItC36lnY-31" value=".4" style="text;html=1;strokeColor=none;fillColor=none;align=center;verticalAlign=middle;whiteSpace=wrap;rounded=0;fontSize=13;movable=1;resizable=1;rotatable=1;deletable=1;editable=1;connectable=1;direction=east;container=0;" parent="Uwwz0JagbKvEItC36lnY-1" vertex="1">
          <mxGeometry x="569.1800000000001" y="371" width="24" height="30" as="geometry" />
        </mxCell>
        <mxCell id="Uwwz0JagbKvEItC36lnY-32" value="" style="aspect=fixed;html=1;points=[];align=center;image;fontSize=12;image=img/lib/azure2/networking/Network_Interfaces.svg;strokeWidth=2;movable=1;resizable=1;rotatable=1;deletable=1;editable=1;connectable=1;direction=east;container=0;" parent="Uwwz0JagbKvEItC36lnY-1" vertex="1">
          <mxGeometry x="684.5" y="341" width="35.13" height="31" as="geometry" />
        </mxCell>
        <mxCell id="Uwwz0JagbKvEItC36lnY-33" value=".68" style="text;html=1;strokeColor=none;fillColor=none;align=center;verticalAlign=middle;whiteSpace=wrap;rounded=0;fontSize=13;movable=1;resizable=1;rotatable=1;deletable=1;editable=1;connectable=1;direction=east;container=0;" parent="Uwwz0JagbKvEItC36lnY-1" vertex="1">
          <mxGeometry x="691.0699999999999" y="371" width="24" height="30" as="geometry" />
        </mxCell>
        <mxCell id="Uwwz0JagbKvEItC36lnY-34" style="vsdxID=46;fillColor=none;gradientColor=none;image;aspect=fixed;image=data:image/png,iVBORw0KGgoAAAANSUhEUgAAAZAAAAGNCAYAAAA/9yeJAAAABGdBTUEAALGPC/xhBQAAACBjSFJNAAB6JgAAgIQAAPoAAACA6AAAdTAAAOpgAAA6mAAAF3CculE8AAAABmJLR0QA/wD/AP+gvaeTAAAACXBIWXMAAA7DAAAOwwHHb6hkAAAAB3RJTUUH5AQDBxsK6pjOGwAALOxJREFUeNrt3Xd4VFX+BvD3zkx6gZAOBAihJARCLwGpAQSUahd3dV1ddV37Ij8BV1FBURB3EURdEAuK0kRApAcChBJKQosEEtIhpJGeTGbu7w+BpTNzMjNnJnk/z8MTkrlzzvdcwn3n3nvuvQrk0nbv3l1TVVWlVLdooTSvrFQk10NE5DCy3NzURnl5Ri8vLzU2NrbW1v3baoOtxIwZ00nV6YZAVftCRXdVQYgCxcnWAyYiqp9UFSouqKoxSdFo9hlVdUtWdXX86Q0bqq3VozUDRIkZO/Yuo6I8oSjKA4DideUF7mcQEVmNql76ClWvAlsVVf1vXkrK2uPHj9dYsh+Lb8qjhg/38Hd3f1YFJkHRBAIMDCIiWS6HiaKgXAUW6oE5catW5VqibYtt2qOGD/fw9/R8STUap0DReDA0iIjsyx9hotaqqvpFrUbzXl2DxCKb+Zhx48YZgcWKovFhcBAR2TdVBRSoNVDV17f+/POnAAwi7dRpc99/5Eh/nYvrMkVRhjA4iIgci6oCqoLT0OvHbV+79ri57xfe7A8aP/4ujaKsg4pGDA8iIsd0+bAWVPXpbT//vMSc9wpt+gePHfuiotF8oiiMDiKi+kBVAVU1/qAWF//Z1GtKzA6AmLFjP1Q12kmMDiKi+uXS3sjuynPnhsXHx1feaXmzYmDg+PFfa6H8meFBRFQ/qSqgQk1Wi4p6xsbGlt1uWY2pjQ4YN24uw4OIqH5TFECBEq5p7LMnMjLS+XbLak1pMGbcuJc0iuZtS4bH5YtbiIjIMiy1jf6jHSXQ3df3rrPJyd8CuOkW+47dDRw/PloL7LbECfOrQ4N7MkRElnX9B/O6bmcvHc76z/bVq1+62eu3bf6ue+7xcXZxyVQAD0sMiKFBRGQbltr2qqqqAhi6bfXqbde/dttzIE7Ozr9CrXt4KArDg4jIlq7e7tbllMGlo0+/9ho/3vf6124ZIP0mTBijQOkjsuH/Yz4xg4OISLbL2+HL22XBVlw8gBXX//SmJ9HbjBzp4uvktF9R4Hznhq919V4HERHZh6u3yeZuny8t3zKkXbvt6b//nn755zfdAwlxcZ0pcuiK4UFEZL/qckhLURRFp9X+fPXPbgiQyMhIZ0VRXjA3BBgeRET27+pDWgLv9hkwZszEy9/dECB+YWHTAJj1qFmGBxGR4zE3RBQF0Gm08y5/f0OAaLXa18wJAoYHEZHjET6cpSg+g0aNGgFcFyCDRo/uAyjuooUQEZHjEAkRRQE0zi5zgOsCRNHp5orsfRARkWMS2QFQNEp499Gj3a8NEKCHLTonIiL7Ys4OgapC46nTPX8lQHrFxLQDFJ01OiMiIvslcl2IFnjqSoB4eHm9LnhxCRER1QNm7RgoSqjmf39X7rZKJ0REZPfM3iFQ4fS/AAH8rdoZERHVG4py1SwsFebf94qIiOoXc44wXQ4Q3jeXiKiBMzcFNKJvJCKihu1ygJj0bHTgf8/5ICKihu2qQ1hERESm01z3lYiIyCQMDiIiEsIAISIiIQwQIiISwgAhIiIhDBAiIhLCACEiIiEMECIiEsIAISIiIQwQIiISwgAhIiIhDBAiIhLCACEiIiEMECIiEsIAISIiIQwQIiISwgAhIiIhDBAiIhLCACEiIiEMECIiEsIAISIiIQwQIiISwgAhIiIhDBAiIhLCACEiIiEMECIiEsIAISIiIQwQIiISwgAhIiIhDBAiIhLCACEiIiEMECIiEsIAISIiITrZBZB1ebi7I9DfH+5ublABlJWXI/f8edTU1MguzS45OzsjKCAAnh4e0Gg0qKysxLm8PJRXVMguzS5pNBoEBQTA28sLzk5OqKyqwoX8fBSXlMgujWyAAVLPaLVa9OzaFQOjo9G5Y0cE+PndsIzRaMTZjAwcOHIEW3buRFp6uuyypYoMD8fgfv3QNSoKLZo1g6IoNyyTe/48DiUlYfuuXThy7JjskqUKadYMMf37o0eXLmjbujW0Wu0NyxRfvIgjx45hx5492JuQAH1treyyyQou/09xiZkwocqUN6gqcJP/XySZRqPBPcOG4ZEJE24aGrdzKCkJi7//HskpKbKHYVN9evTAEw8/jDahoWa972xGBr7+8UfE7d0rewg21SY0FE8++ih6detm1vsKioqwbNUqrPntNxiNRtnDoDswZxvPAKkHmgcHY+qrr6Jt69bCbaiqijUbNuDzr7+u958WvTw98c+//x39eveuUzv7Dx3Ch59+iuKLF2UPyaq0Wi2emjgR940eDY1G/LRpano63v/kE6RlZMgeEt2GOdv4y/ueutYREdNM7YABYj+6RUXho+nTERQQUKd2FEVBeNu26NWtG3bv24eq6mrZQ7OK5sHB+GTGDHRo377ObTULDkbMgAE4nJSEouJi2UOzCg93d3zw5psY3L//TQ/tmcOncWPcPXgwMrKykJGdLXtodBsMkAagW1QUZkyZAlcXF4u16dukCaJ79cKO3bvrXYgEBwbi3zNnwt/X12Jturu5YUj//jiYmIjCoiLZQ7QoV1dXzJk+3SJhe5lOp8OA6Ghk5ebiLPdE7Jap23hO43VQTYOC8NakSXBycrJ42yFNm+K9qVOh09WfORaurq6YOW0afBo1snjbHu7umDltGvyaNJE9TIua8vLLaBcWZvF2NRoNJr/wAjpGRMgeItURA8QBKYqCN156CR7u7lbrI7xNGzz9pz/JHqrF/P0vf0FI06ZWa9+nUSNMfeUV2cO0mHuGDUPfnj2t1r5Op8O0V16x6u8wWR8DxAHdPXgwItq1s3o/40eNMnuGkj1qFxaGkTExVu+nU4cONunH2jw9PPDXiROt3o+fr69N+iHrYYA4GEVR8Oh999mkL41Gg7888ojsIdfZxPvvr/MJYFP9+aGHHP7Q37iRI+Ht5WWTvu4ZNqzOE0BIHgaIg+nRuTOaBgXZrL/e3bujeXCw7GEL823SxKqHYq7n7+uLAdHRsoddJ/cOH26zvrRaLcaOGCF7yCSIAeJgBvTta/M+YwYMkD1sYQP69LHZ3sdlQx14fUWGh8PPgrPUTOHIv18NHQPEwXSOjLR5n927dJE9bGGdO3a0eZ9RkZEOexiri4T11cTHB6EtW8oeOglggDgQN1dXmx6+uqxNaKjNP8VbSlirVjbv09XFBS2aNZM9dCEy1hcAtLfCdGGyPgaIA5F1stHZycmiF9/ZiqIoZt8XzFKaOeh5o0B/fyn9yvhgRHXHAHEg7hLnzHt4eMgevtlcXFxueqdYW3DE9QVA2nUZjrq+GjoGiAOReVzdyQGP6cus2RHXFyDvd8zZQddXQ8cAISIiIQwQIiISwgAhIiIhDBAiIhLCACEiIiEMECIiEsIAISIiIQwQIiISwgAhIiIhDBAiIhLCACEiIiEMECIiEsIAISIiIQwQIiISwgAhIiIhDBAiIhLCACEiIiEMECIiEsIAISIiIQwQIiISwgAhIiIhDBAiIhLCACEiIiEMECIiEsIAISIiIQwQIiISwgAhIiIhDBAiIhLCACEiIiEMECIiEsIAISIiIQwQIiISwgAhIiIhDBAiIhLCACEiIiEMECIiEsIAISIiIQwQIiISwgAhIiIhDBAiIhLCACEiIiEMECIiEsIAISIiIQwQIiISwgAhIiIhDBAiIhLCACEiIiEMECIiEsIAISIiIQwQIiISwgAhIiIhDBAiIhLCACEiIiEMECIiEsIAISIiIQwQIiISwgAhIiIhDBAiIhLCACEiIiEMECIiEsIAISIiIQwQIiISwgAhIiIhDBAiIhLCACEiIiEMECIiEsIAISIiIQwQIiISwgAhIiIhDBAiIhLCACEiIiEMECIiEsIAISIiIQwQIiISwgAhIiIhDBAiIhLCACEiIiEMECIiEsIAISIiIQwQIiISwgAhIiIhDBAiIhLCACEiIiEMECIiEsIAISIiIQwQIiISwgAhIiIhDBAiIhLCACEiIiEMECIiEsIAISIiIQwQIiISwgAhIiIhDBAiIhLCACEiIiEMECIiEsIAISIiIQwQIiISwgAhIiIhDBAiIhLCACEiIiEMECIiEsIAISIiIQwQIiISwgAhIiIhDBAiIhLCACEiIiEMECIiEsIAISIiIQwQIiISwgAhIiIhDBAiIhLCACEiIiEMECIiEsIAISIiIQwQIiISwgAhIiIhDBAiIhLCACEiIiEMECIiEsIAISIiIQwQIiISwgAhIiIhDBAiIhLCACEiIiEMECIiEsIAISIiIQwQIiISwgAhIiIhDBAiIhLCACEiIiEMECIiEsIAISIiIQwQIiISwgAhIiIhDBAiIhLCACEiIiEMECIiEsIAISIiIQwQIiISwgAhIiIhDBAiIhLCACEiIiEMECIiEsIAISIiIQwQIiISwgAhIiIhDBAiIhLCACEiIiEMECIiEsIAISIiIQwQIiISwgAhIiIhDBAiIhLCACEiIiEMECIiEsIAISIiIQwQIiISwgAhIiIhDBAiIhLCACEiIiEMECIiEsIAISIiIQwQIiISwgAhIiIhDBAiIhLCACEiIiEMECIiEsIAISIiIQwQIiISwgAhIiIhDBAiIhLCACEiIiEMECIiEsIAISIiIQwQIiISwgBxJKoqsWt5fTtizY64vmTi2nJMDBAHUl1TI6/v6mrZwze/Zq4vh6m7qqpK9tBJAAPEgVwsKZHWd/HFi7KHbza9Xo9KSRsmR1xfAFBSWiql32KJv9skjgHiQM5fuIDa2lqb93uxpAQlZWWyhy8kOzdXSr8Z2dmyhy4kS9b6ysqSPXQSwABxIEajEadSU23e79GTJ2UPXVhySorN+7xQUIDzFy7IHrqQk6dOSen3WHKy7KGTAAaIg0k4fNjmfcYfOCB72MIOcH2ZJSEx0eYTAE6eOuWwh/waOgaIg9kWF2fT/+AVlZXYGR8ve9jC9h86hFIbH377bds22cMWlnfhgs33Bhx5fTV0DBAHk5Wbi32HDtmsvzUbNkg7EW0J+tparN240Wb9HUpKwqkzZ2QPu05Wrl1rs74KioqwKTZW9pBJEAPEAS1euhRGo9Hq/RQWFWHZ6tWyh1tnP61Zg4s2mF1kMBiwcMkS2cOts1379tnsXMiX334LvV4ve8gkiAHigFLT07HCBp8SP164EOUVFbKHW2dl5eVYsGiR1fv5fuVKpKanyx6uRcxduBA1Vt6wxx84gC07dsgeKtUBA8RBLf7+exyz4uyo75Yvx96EBNnDtJitcXFYv3mz1drfe/AgvvnpJ9nDtJjU9HTMt2LoZmRlYda8ebKHSXWkvfRV1zoiYpqpb1IU2WWT0WjEnv370aNrVzRp3Niiba/+9Vd8+e23sodocfsPHUJoy5Zo0by5Rds9fPQo3p41C7UGg+whWlRKaiqMqoouHTtatN3s3Fy8Pn06Z17ZMVO38QwQB1ZdU4Ptu3ahbevWaBoUVOf2DAYD/rt0KZb88IPsoVmFqqrYGR8Pby8vhLdta5E2N27bhhlz51r9cI8sSSdOoPjiRXTv3BkaTd0PWCQdP4433n0XhcXFsodGt8EAaSD0ej22xsWhoqICke3bw8nJSaidtIwMvP3hh4jdvVv2kKxKVVXsP3QIqenp6BgeDnd3d6F2ioqL8fFnn2HpypU2mdAg0+9nzmD/4cNoFxYGXx8foTaqq6vx9Y8/Yu7ChQ49q6+hMHUbf3kxl5gJE0z6V1VVBoi9atyoER4YPRp3DxmCxo0amfSeM2fPYsUvv2BrXFy93xBez9XFBfcMG4axI0eavAeXl5+PX377zeGnN4tQFAUD+/bF/WPGILxNG5PeU1Zejo3bt+Onn39GQVGR7CGQCczZxjNA6iGNRoMuHTuic2QkQlu2RJC/P9zc3KCqKsorKpCdm4vk06eRcPgwzmZmyi7XLrQPC0PXqCi0CQ1F06AgeHp4QKvRoLyyEufy8nA6NRWHkpJw/Pffeat2AM2Cg9G9c2eEt22LZsHB8PbygrOTE6qqqnChoABp6ek4cuwYDiUlQS/h/m0kjgFCRERCzNnGcxovEREJYYAQEZEQBggREQlhgBARkRAGCBERCWGAEBGREAYIEREJYYAQEZEQBggREQlhgBARkRAGCBERCWGAEBGREAYIEREJYYAQEZEQBggREQlhgBARkRAGCBERCWGAEBGREAYIEREJYYAQEZEQnewCiByZk5MTXF1coNVq4aTTQafTQVEUqKoKo9EIFYBer0dNTQ2qa2pQW1sru2Qii2GAEF1Fo9EgwM8P/n5+8Pf1hZ+vL/x8fNDI2xuNGzWCt5cXvL284O7mBnc3N2i1WrPaNxgMqKisRFl5OcrKy1FeUYHyS38vq6hAQVERLuTn//GnoAD5hYUwGAyyVwvRTTFAqEHy9PBAy5AQtAoJQcuQEDRv2hTNgoIQ6O8Pnc56/y20Wi28PD3h5elp0vKqqqKwuBgX8vORlZOD9KwspGdlISMzEznnz8NoNMpeldSAMUCo3vP08EBEu3ZoFxaGtq1bo23r1gj095ddlkkURYGvjw98fXwQ3rbtNa/V6PV/hEpmJk6dOYOTp07hVGoqampqZJdNDYRy6atLzIQJVaa8QVUBRTFlSSI5Avz80KVTJ3QKD0eH8HC0aNYMSgP5pTUYDEhNT8fJU6eu/MnKzZVdFjkQc7bxDBByeB7u7ugWFYUeXbqga6dOaBoUJLsku5KXn4+DiYk4mJiIQ0lJKCktlV0S2TEGCNV7wYGB6B8djT7duiEyPNzsk9kNlaqqOJ2WhoOJidh/6BCOJSfzPApdgwFC9VJQQAAG9O2LQX37ol1YmOxy6oWiixexe98+7IyPx5FjxxgmxACh+iPQ3x8D+/XDwOhotG/TRnY59VpJaSl279+PuL17kXDkCMOkgWKAkEPT6XTo16sXRg0dim5RUQ3mBLg9KSouxqbYWPy2bRsys7Nll0M2xAAhh9QsOBijhg7F3YMHo3GjRrLLoUuOJydjw9atiN2zB1VVJm0myIExQMhhaDQaDIiOxr3Dh6NLx46yy6HbqKysxLZdu7By3TpkZGXJLoeshAFCds/Z2RkjhgzBA2PGIDgwUHY5ZAZVVXHg8GGsWLsWh5KSZJdDFsYAIbvl5emJsSNGYPw996CRt7fscqiOUs+exYq1a7Ft1y7eKLKeYICQ3fFr0gQPjh2LkUOHws3VVXY5ZGEFRUX4YeVKrN+8GXoGiUNjgJDd8Pb0xCMTJmDsyJFwdnaWXQ5Z2YWCAixdsQIbtm7lXYQdFAOEpHN1ccGEe+/Fg2PHwtPDQ3Y5ZGPn8vLw3fLl2BQby+tJHAwDhKTRarW4Z+hQPPbAA2ji4yO7HJIsOzcXn3/zDfbs3y+7FDIRA4Sk6NO9O/7+5JO8mSHd4FBSEhYsXoyzmZmyS6E7YICQTQX6++P5v/4VfXv2lF0K2TGDwYB1mzZhybJlKC0rk10O3QIDhGxCp9PhwbFjMfG+++Di4iK7HHIQJaWlWLJsGdZu3AhVVWWXQ9dhgJDVdYuKwgtPP42Qpk1ll0IO6sSpU5g9fz6varczDBCyGg93d7zw1FMYOnCg7FKkKCktRWFREYovXkRJWRnKystRWlaG6upqVNXUoLq6GrW1tTAajVBVFaqqQqfTQafTwUmng6ur65Vnont5eFz5eyNv7wZ5/68avR7fLV+OZatXc7aWnWCAkFV079wZ/3z+efj7+souxWqMRiNyz59HWkYG0jMzkZuXh3Pnz+NcXh4KCgutepGci7MzAv39ERQYiKDLXwMC0DIkBM2Dg+v1Q7NOp6Vh9vz5OJ2WJruUBo8BQhbl6uKCp//8Z4wdMUJ2KRZVVV2N5JQUnE5Lw9mMDKSlp+NsZiaqa2pkl3YDZ2dnhIaEICw0FGGtWiGsVSu0ad0arvXo3JPBYMCPP/+MJcuWcW9EIgYIWUyH9u0x+YUX0Cw4WHYpdVZSWopjyck4euIEjp08iVOpqQ59tbRWq0X7sDBERUYiqkMHdIyIgLubm+yy6uzkqVOYMXcuzuXlyS6lQWKAUJ1pNBo8/tBDeGTCBGg0GtnlCDEYDDiWnIz4Awdw4MgRpNfzaxA0Gg3ahIaia6dO6NuzJyLatXPYf7uy8nLMXbgQO/bskV1Kg8MAoTpp7O2Nqa++iq6dOskuxWxl5eU4cPgw9iYkYN+hQygrL5ddkjSNvb3Rp2dP9O3ZE92johxyqvWvW7Zg/qJFdnlYsb5igJCwjuHhmPbaa/Br0kR2KSarrq7Grn37sHnHDhw+etShD0tZi7OzM3p17Yphgwahd7du0Ol0sksyWXpmJqbPns3pvjbCACEh948Zg6cfe8whZvuoqoqjJ05gU2wsdsbHo6KyUnZJDsPbywsx/ftj+ODBaNu6texyTFJRWYn3P/kE8QkJskup9xggZBZ3NzdM+sc/0L9PH9ml3FFhURHWbdqETbGxPMlqAa1CQjBy6FCMGDIEHu7ussu5LVVV8dUPP+D7lStll1KvMUDIZIH+/pg5bRpaNm8uu5TbSklNxap167B9924++c4K3FxdMWLIEIy/5x67vxlm7O7d+OjTT3lexEoYIGSS8LZt8e4bb8DHTq+ANhqNiD9wACvXrUPSiROyy2kQFEVBn+7dcd+996KLHU+iSElNxVuzZiEvP192KfUOA4TuqH+fPvi/F1+0y5k5BoMBW+Pi8N3y5cg5d052OQ1W+zZt8PjDD6NX166yS7mpwqIi/N+77yI1PV12KfUKA4Ru66Fx4/DUY49BsbN/SKPRiB179uDrH39EVk6O7HLokg7t2uHxhx9G986dZZdyg7Lycrz5wQc4yj1Ui2GA0E1pNBq8/MwzGDV0qOxSrqGqKuL27sU3P/7IBw7ZsY7h4Xji4Yft7tBWTU0N3ps7l089tBAGCN1Ap9PhzVdfRb/evWWXco3jycn4dNEipKSmyi6FTBTdowee+8tf7Opku8FgwCeff44NW7fKLsXhmbONvzzhX9c6ImKaqR0wQByLs7Mz3pk8GX169JBdyhUFRUX49xdfYMFXX6GwqEh2OWSGrJwcrN20CZVVVejQrh2cnJxklwSNRoO+PXtCX1uLYydPyi7H4TFACADg6uqKmVOnoltUlOxSAAB6vR4r1q7FO7Nn49SZM7LLIUFGoxHHk5Oxcds2eHt7I6xVK7s4p9YtKgq1BgOOMkTqhAFC8HB3x4f/+hc6RkTILgUAcDAxEdNmzkQsr+WoNyqrqrBn/34cPnoUHcPD4e3lJbskdO3UCTV6PY4lJ8suxWExQBq4Rt7e+Ojtt9G+TRvZpaCyshKfLlqEBV99hZKyMtnlkBXk5efj161b4ezsjIi2baXvjXSLikJlVRVO/P677FXjkHgSvQHz9PDA3PfeQ2iLFrJLweGjRzF7/nycv3BBdilkIxFt2+Kf//iHXdzdYMHixVi1fr1V+9BoNPD39UVQYCCCAwLg7+eHRl5e8L70x9PDA05OTlcea6woCi6WlqKoqAiFxcUoLCpCVm4usrKzkZWbi/KKCqnrjLOwrMDTwwMBfn5o3KgRvDw94e3lBTdXV7i4uMDVxQW6S78YGkWBCqBWr4e+thbVNTUoKCxEfmHhla+lVvwU7urqio/eegsR7dpJXV+VVVX48ptv8MvGjVLrIDmcdDo88cgjeHDsWOl7I//58kv88ttvFmnL1cUFEe3aISw0FG1atULrVq3Qsnlzi96ANL+wEKfOnEFySgp+P30aySkpNg0VBogg3yZNENaqFVq1aIEgf38EXvoT4O9v0Se91dTUIL+wENm5ucjKzUV2Ts4fX3Nzcf7CBeHHeTrpdJg5bZr053gknz6NGR9/jNzz56XWQfL17NIFk198EY0l3i5HVVW8O2cOdsbHm/1enU6HqA4d0LVTJ3Tu2BHtWre2+a3wDQYDTp05g4OJiTiYlITjyclWfeQvA8QEQQEBiAwPR5tWra48Z7qRt7fssqDX65GRnY3Tqak4ffYszqSl4czZs3f8BKLRaPDWpEno16uX1Pp//vVXLPz6a54kpyt8fXww5ZVX0DkyUloNNXo9Xp8+3aQpvq6urujdrRv69eqF3t27291diktKS7F7/37s3LMHh6zw/BsGyE0E+vujc8eO6BwZiS4dOyLQ3192SWY5l5eH30+fxrHkZBxPTsbptLRrPoX834svYujAgdLqq6isxOz584U+5VH9p9Fo8KcHHsDE+++X9pjd0rIyvDRlCjKys2/6esfwcIyIicHAvn3h5uoqc3WZrKS0FFvj4vDr5s1Iy8iwSJsMEPzxC9spIgJ39emD6B49EBQQILski6qqrkZySgpO/P47/Hx9MXzQIGm1nDl7Fu/Mno3s3FzZq4XsXLeoKLz52mvw8vSU0v/5vDy88MYbKCwuBgC4ODtjZEwMxo4ciZBmzWSvnjpJTknBL7/9hq1xcXXaK2mwAeLk5ITuUVFXQsMeDknVd1t27sScBQug1+tll0IOonlwMN6bMgXNmzaV0n9Kaiqmf/QRhg8ahLGjRqGRHVy7Ykn5BQVYuW4d1m/eLPSkzgYXIO3DwjBy6FAMvusuuzteWZ8tWbYM3y1fLrsMckCeHh54a9Ik6RM+6rOy8nL8tGYNVq1bh6rqapPf1yACxNvTE0MHDsSImBi0btlSdjkNSo1ej9nz52NbXJzsUsiBaTQavPDUUxh9992yS6nXioqLsXTFCqzdtMmkQ1v1OkBat2yJB8eNw8DoaLu4iVtDc7GkBP+aNQvHeZsIspD7R4/GM48/Lv16kfouIysL8/77Xxw+evS2y9XLAOkWFYWHxo2zy4faNBSZ2dmYMmMGr+8gi7t78GC8+txzFr0gj24udvdufPbVVyi4xV2w602AKIqCwXfdhQfHjkWb0FDbdEo3lXr2LF6fPh3FJSWyS6F6qn+fPpjy8ss8smADZeXl+HTRImzZseOG1+pFgET36IEnJ060i/s5NXTJp0/jjXffteotWIgAoEeXLnj79dfh6uIiu5QGYfe+fZi7cOE1HwwdOkCiOnTAXx97DJHt21uvEzLZ0RMnMHXmTKHpgEQiIsPDMXPqVM6otJGCoiK89/HHV54r75BPJGzRrBkmv/QSnnz0UQT4+Vl7nZEJDiYmYurMmWZNASSqqwv5+Th28iQG3XWXze871RC5u7lh2MCB0Ov1VybHOEyAuLq44IlHHsHkF190+CtB65P9hw/jX++/jxpeIEgS5OXnIzklBQP79eOJdRvQaDTo3rkzQlu2xK59+6Gqpt2sUWqA9OvVCzOmTkXv7t2l3R+HbnT05Em8OXMmw4Okyj1/Hmnp6RgQHc3tg420bN4cWo32jlN9L5PyrxLg74+ZU6di+uTJPFxlZ06npWHazJmorqmRXQoR9hw4gFnz5ln19uV0rWbBQSYva/MDjMMHD8bzTz7JE2R2KDMnB//3zjvSn4hGdLVtcXHwdHfHi3/7m+xS6Do2C5DG3t545bnnpD+vgm4uLz8fk3mdB9mpXzZuRLOmTXHfvffKLoWuYpMA6durF1599lmpTyWjWystK8Pkd95BXn6+7FKIbmnhkiVoGhSE6B49ZJdCl1j1HIhWq8U//vpXvDN5MsPDThkMBrwzezYyb/GQHSJ7oaoqZsydi9SzZ2WXQpdYbQ/Er0kT/GvSJHRo1072GOk25i9aZPKMCyLZqqqqMHXmTMyfNQtNfHxkl3OD6upqnM3MxPkLF5CXn4/8ggIUXbyImpoaVFVXo0avh5uLC7y9vdHIywtNGjdGi+bN0SokBAH+/g53Q0mrBEjXTp0w9ZVX6u1eh6qqKK+oQElpKUrLylBaVobyigoYjUYYjUaoqgqjqgL449yPn68v/H19pT2F7VbWbNiAXzZulF0GkVkuFBTgrVmzMPe996RfaHguLw8JR47g6IkTSElLQ1ZOjvCMMVdXV0S0bYsuHTuiS6dOCG/Txu6vgbH42n9o3Dg8+eijdj/wOzEajcjMycHZjAzknDuHnHPnkHv+PHLOn0d+QYHQL4mLszP8fH3h16QJgoOCENK0KUKaNUOrkBAEBwba9NPHwcREzF+82JarlMhiTqak4ItvvsHfn3zS5n2npKZiy44diE9IQM65cxZrt6qqCoePHv3jiMAPP8Db0xP9o6MxpH9/dIqIsMtrYSwWIBqNBq8+9xxGDBkie0xC8vLzkXTiBE6dPo1Tqak4nZaGqiqTbg9msuqaGmTn5iI7NxeJx49f85q7mxvCQkPRPiwMkeHh6BgeDp/Gja0y1szsbLwzezbn1pNDW7V+PTpHRqJf795W76u0rAzrN2/Gpu3bkWGj84Ull/pcv3kzAvz8MH7UKIwcOhSeHh426d8UFrmZorubG96aNMmhntVRVl6OxGPHcDApCYcSE5GVmyu7pBs0Dw5Gjy5d0KNrV3SOjISbq2ud2ywqLsYLb7yBc3l5sodHVGce7u74fM4cBAUEWKX9c3l5WLl2LTZs3WoX94Rzc3XFPcOG4ZEJE9DI29sqfezYswfvzplj0rJ1DhB/X1/MmDrVIR4rW1Jail379iF2924cOXbMoT6BOzs7o2eXLhgQHY3onj3h7uZmdhuVlZV45c03cTotTfZwiCymfVgYPpkxw6LPEblYWorvfvoJv2zcaNJjYG3Nw90dD40bh/vuvRcuFr71vc0CJLRFC7z/5pvwa9LEZivOXNXV1Yjdswexu3bhYFKSQ4XGrTg7O6N/nz4YGRODzpGRJp07MRgMmDpzJhKOHJFdPpHFjRkxAi8+/XSd2zEYDFi1bh2+W7HCIe7IEODvj9eee86iR3+279qFGXPnmrTs5S2Pc8yECSbtn10OkDahoZj11lto5OVl85VmioysLKzdtAmbtm93iF8EUcGBgYgZMADDBg5Es+DgWy734bx52BQbK7tcIqt5+ZlncO/w4cLvT8/MxIfz5uH3M2dkD8VsI2Ni8Mzjj1vk/MiGLVsw57PPTFr2coBoYyZMqDXlDaoKRLRriw/efNOuTub8UZuK+IQErFy79oaT1A1BRNu2GDpoEAb163dNsC9auhQ/rFoluzwiq9JoNPjwX/9Cl06dzHqf0WjET2vW4Otly6CvNWkzaJeCAwPx9uuvI6xVqzq1s2LtWixcssSkZS8HiBIzYYLJx3aWffmlXR22MhqN2LFnD75fuRJpGRmyy5FOq9WiV9euGDZoEPILC7GA03WpgfDy9MSnH3xw273xq+WcO4dZ8+ZdeZCSo3N2dsbLzzyD4YMGCbcxf9EirP71V5OWvTyNV1VVVVVMvBChsKjILgLEaDRi686dWLpihV3OopLFYDAgPiEB8QkJskshsqnSsjJMe/99zHv//TseIVm/eTM+W7LE4tP1ZaqpqcGH8+YhKycHTz76qFAb6VlZJi975ToQRVFU/G+P5LZOnTmDdmFhUlfUkWPHsHDJEs4oIqJrZGZn472PP8aMKVNuekFzUXEx5ixYgL0HD8ou1Wq+X7kSF0tK8NLf/mbWBYhGoxEpqakmL39l7bYOD58MRTFpHpybmxsGREdLWTGZOTmYM38+Fi1disLiYik1EJF9yzl3DuXl5ejVrds1P4/buxdvvPcezjSAGzKmpKYiMycHd/XubfJdLlJSU7F6/XqT+7iyB6ICWQpg0p0PDyYmora21qb3odHr9Vi6ciV+WLXKLudlE5F9Wf3rr2gZEoJ7hw9HeUUFPv3vf7F5xw7ZZdlU7O7d8HB3xyvPPmvS8nv27ze5bScnJ/XKHkiriIhgRVH6m/LG6poatG/bFiFNm9pkJZw4dQpTZsxA3N69UC/dpJCI6E4OHDkCV2dnfPjppzh68qTscqRISU1FdU3NHa8VUVUVH82fb/JlD21atTJeCRCf0NCjrjrdP009kV5ZVYUh/U3KG2HV1dX4/Jtv8MnChbjIJ+URkZlUVcXBxMR6fS2YKY4nJyMwIABtQkNvuczehASs27TJ5DbDQkPPXzm7cnjDhgsAakx9896EBKtOmU3PzMTzkydj9fr13OsgIqqjTz7/HL+fPn3L179dvtys9pycnD6/5vS8Amwxp4HFS5daZaAbtm7F319/HWczM63SPhFRQ6PX6/H2hx+irLz8hte279qFU2ZcgR8cGKi+M3ny9GsCpMJgeBmAyR/34xMSLDoVrqq6GjM/+QRzFixAdY3JO0NERGSCCwUFmPfll9f8rKy8HAu++sqsdkKaNs0Ernsm+p41a8717t7drONFcy10fiK/oACvTJuGbXFxVlp1RES0NS4OO+Pjr3w/Z8ECFJlxSYRWq1UNRuNTwHUBoihK2d2DB5t1TX9BYSE++Pe/6zS19tSZM3h+8mSzLmAhIiIx//niC5SVl2P5L78gbu9es94b1aFD5YdvvbUZuC5AAGBAdPSTUR06mNXggSNH8J/rdotMtTM+Hi9Pm4aCoiKbrTwiooasuKQEM+bOxedff23W+zQajRrStOkrV76/fgFFUfYNHTjwmLkFrd+8GfMXLzZrxtSGrVvx7pw5qOH5DiIim1FV4MDhw2a/LyqiQ8VLzzzzxeXvb3qTlFFDh97Tt3dvs+fOrl6/HjPmzkW1CY9+XLV+PeYsWMApukRENnSzx5KbwtPDQ23RvNnoq3920wBRFCVj1ODB81wFHpUYu3s3np88Gem3mYK7dMUK3mKciMiGVFU8PACgb69eJ1565pntV//slk2pqqpd9N13uT+sXu0v0plOp8MDY8Zg4v334+og+n7lSiz+/nspK5CIqKG5+iCPaHh0aN++9j8zZ3ooinLN+YZb3g1RURSDqqpdUjMyMvcdPGj6/YAvqa2txQ+rVmHDli24b/RojL77bmyLi2N4EBHZgCWCAwB8fXzU7lFR464PD8CE53/E7dv3yMKvvlp6Li+vDiX88ZQ8g8FwZVB1GRAREd3o+lPKdd3OXjqS9P1Tjz028Wavm9T8qvXr3/9u+fLJF0tKLLbZ57lzIiLLs9SHc0VR8MCYMQefefzxHrdcxtTGlq1evfTb5csfrU+PfyQiopu7f/TojGefeKLVpafV3pTJ5zYeHj9+4vhRo7739PDgvgMRUT2lKAoeGjcu+9knnmh/u/AAzNgDuWzp8uUfrdm48bWCwkKexSAiqkecnJzUPz3wwLFH77uvm6IotXda3uzZVRMfeGDSsIEDJ7Zv08Yoe7BERGQhKmofHDv2q0fvu6+zKeEBCOyBXJaYmBjwy5Ytx2J37xa6ToSIiOyDqqo5peXlfQ5s2mTWQ5jqfBhq7mefLUw6efJvGVlZPKRFRORYDEaDOn/7mtUvibzZIhv9zZs3N9qblLT7YGJih9KyMgYJEZEdU/+4CeEBpaRkzNatW8+LtmPRjf3bH3zQYse+fXM1ijIWgFb2SiIiov9RVVVVgH1VtbVP7V679nhd2/t/+E3n30LBQTEAAAAldEVYdGRhdGU6Y3JlYXRlADIwMjAtMDQtMDNUMDc6Mjc6MTArMDA6MDDHVXucAAAAJXRFWHRkYXRlOm1vZGlmeQAyMDIwLTA0LTAzVDA3OjI3OjEwKzAwOjAwtgjDIAAAAABJRU5ErkJggg==;strokeWidth=102;spacingTop=-3;spacingBottom=-3;spacingLeft=-3;spacingRight=-3;labelBackgroundColor=none;rounded=0;html=1;whiteSpace=wrap;movable=1;resizable=1;rotatable=1;deletable=1;editable=1;connectable=1;direction=east;container=0;" parent="Uwwz0JagbKvEItC36lnY-1" vertex="1">
          <mxGeometry x="593.1800000000001" y="309" width="95" height="95" as="geometry" />
        </mxCell>
        <mxCell id="Uwwz0JagbKvEItC36lnY-35" style="vsdxID=156;edgeStyle=orthogonalEdgeStyle;startArrow=none;endArrow=none;startSize=5;endSize=5;strokeColor=#000000;spacingTop=-3;spacingBottom=-3;spacingLeft=-3;spacingRight=-3;verticalAlign=middle;html=1;labelBackgroundColor=none;rounded=1;curved=1;exitX=0.977;exitY=0.538;exitDx=0;exitDy=0;exitPerimeter=0;strokeWidth=2;" parent="Uwwz0JagbKvEItC36lnY-1" source="Uwwz0JagbKvEItC36lnY-12" target="Uwwz0JagbKvEItC36lnY-30" edge="1">
          <mxGeometry relative="1" as="geometry">
            <Array as="points">
              <mxPoint x="363.5" y="327" />
              <mxPoint x="463.5" y="327" />
              <mxPoint x="463.5" y="356" />
            </Array>
            <mxPoint x="273.5" y="266.5000000000001" as="sourcePoint" />
            <mxPoint x="427.5" y="344" as="targetPoint" />
          </mxGeometry>
        </mxCell>
        <mxCell id="Y9vbwo8gkhhabcxUIGdL-0" value="" style="shape=image;aspect=fixed;image=data:image/svg+xml,PHN2ZyB3aWR0aD0iNDkiIGhlaWdodD0iNDkiIHhtbG5zPSJodHRwOi8vd3d3LnczLm9yZy8yMDAwL3N2ZyIgeG1sbnM6eGxpbms9Imh0dHA6Ly93d3cudzMub3JnLzE5OTkveGxpbmsiIHhtbDpzcGFjZT0icHJlc2VydmUiIG92ZXJmbG93PSJoaWRkZW4iPjxkZWZzPjxjbGlwUGF0aCBpZD0iY2xpcDAiPjxyZWN0IHg9IjIyNSIgeT0iNDgxIiB3aWR0aD0iNDkiIGhlaWdodD0iNDkiLz48L2NsaXBQYXRoPjxjbGlwUGF0aCBpZD0iY2xpcDEiPjxyZWN0IHg9IjIyNiIgeT0iNDgyIiB3aWR0aD0iNDgiIGhlaWdodD0iNDgiLz48L2NsaXBQYXRoPjxjbGlwUGF0aCBpZD0iY2xpcDIiPjxyZWN0IHg9IjIyNiIgeT0iNDgyIiB3aWR0aD0iNDgiIGhlaWdodD0iNDgiLz48L2NsaXBQYXRoPjxjbGlwUGF0aCBpZD0iY2xpcDMiPjxyZWN0IHg9IjIyNiIgeT0iNDgyIiB3aWR0aD0iNDgiIGhlaWdodD0iNDgiLz48L2NsaXBQYXRoPjwvZGVmcz48ZyBjbGlwLXBhdGg9InVybCgjY2xpcDApIiB0cmFuc2Zvcm09InRyYW5zbGF0ZSgtMjI1IC00ODEpIj48ZyBjbGlwLXBhdGg9InVybCgjY2xpcDEpIj48ZyBjbGlwLXBhdGg9InVybCgjY2xpcDIpIj48ZyBjbGlwLXBhdGg9InVybCgjY2xpcDMpIj48cGF0aCBkPSJNMjQ5Ljg4IDUwMS4yNUMyNDUuMzYgNTAxLjI1IDI0MS4xMTMgNTAwLjY2IDIzNy45MjMgNDk5LjU4NSAyMzMuNSA0OTguMDk1IDIzMi41OCA0OTYuMTk1IDIzMi41OCA0OTQuODY1IDIzMi41OCA0OTMuNTM1IDIzMy41MjcgNDkxLjYwMyAyMzguMDQgNDkwLjExNSAyNDEuMjE3IDQ4OS4wNjggMjQ1LjQyMyA0ODguNDg3IDI0OS44OCA0ODguNDg3IDI1NC4zMzcgNDg4LjQ4NyAyNTguNTQgNDg5LjA2NSAyNjEuNzE3IDQ5MC4xMTUgMjY2LjIxNyA0OTEuNjE1IDI2Ny4xNzcgNDkzLjUyNSAyNjcuMTc3IDQ5NC44NjUgMjY3LjE3NyA0OTYuMjA1IDI2Ni4yNSA0OTguMDkyIDI2MS44MzUgNDk5LjU4MiAyNTguNjQzIDUwMC42NTggMjU0LjM5NyA1MDEuMjUgMjQ5Ljg4IDUwMS4yNVpNMjQ5Ljg4IDQ5MC40ODVDMjQ1LjYzIDQ5MC40ODUgMjQxLjY0OCA0OTEuMDI3IDIzOC42NjcgNDkyLjAxMyAyMzUuNjg4IDQ5Mi45OTcgMjM0LjU4IDQ5NC4xNyAyMzQuNTggNDk0Ljg2NSAyMzQuNTggNDk1LjU2IDIzNS42MjIgNDk2LjY5NSAyMzguNTYgNDk3LjY4NSAyNDEuNTYgNDk4LjY4NSAyNDUuNTYgNDk5LjI0NyAyNDkuODggNDk5LjI0NyAyNTQuMiA0OTkuMjQ3IDI1OC4yMDUgNDk4LjY5MyAyNjEuMTk1IDQ5Ny42ODUgMjY0LjEzNSA0OTYuNjg1IDI2NS4xNzcgNDk1LjU0NyAyNjUuMTc3IDQ5NC44NjUgMjY1LjE3NyA0OTMuMDggMjU5LjIxNyA0OTAuNDgzIDI0OS44OCA0OTAuNDgzWiIgZmlsbD0iIzAwMDAwMCIgZmlsbC1ydWxlPSJub256ZXJvIiBmaWxsLW9wYWNpdHk9IjEiLz48cGF0aCBkPSJNMjQxIDUwOC4zMjNDMjQwLjA1MyA1MDguMTA1IDIzOC45MyA1MDcuNzgzIDIzOC4xMiA1MDcuNTA1IDIzMy41NDIgNTA1LjkzOCAyMzIuNTggNTAzLjkyNyAyMzIuNTggNTAyLjUwNUwyMzIuNTggNDk0LjU3OCAyMzQuNTggNDk0LjU3OEMyMzQuNTggNDk1LjU3OCAyMzYuMTEgNDk2LjczIDIzOC41OCA0OTcuNjA1IDI0MS41OCA0OTguNjY1IDI0NS41OCA0OTkuMjQ3IDI0OS44ODUgNDk5LjI0NyAyNTQuMTkgNDk5LjI0NyAyNTguMTk4IDQ5OC42NjUgMjYxLjE4NSA0OTcuNjA1IDI2My42NSA0OTYuNzMgMjY1LjE4NSA0OTUuNTcgMjY1LjE4NSA0OTQuNTc4TDI2Ny4xODUgNDk0LjU3OCAyNjcuMTg1IDUwMi41MTdDMjY3LjE4NSA1MDMuOTI3IDI2Ni4yMjMgNTA1Ljk0IDI2MS42NDMgNTA3LjUxNyAyNjAuODkzIDUwNy43NjcgMjU5Ljg2MiA1MDguMDE3IDI1OS4wMDggNTA4LjIyM0wyNTkuMDA4IDUwNi4xNThDMjU5LjY4MSA1MDYuMDExIDI2MC4zNDYgNTA1LjgzIDI2MSA1MDUuNjEyIDI2My41ODUgNTA0LjczIDI2NS4xOSA1MDMuNTQzIDI2NS4xOSA1MDIuNTE3TDI2NS4xOSA0OTcuODM1QzI2NC4xNjEgNDk4LjU0NiAyNjMuMDM3IDQ5OS4xMDYgMjYxLjg1IDQ5OS41IDI1OC42NTIgNTAwLjYzMyAyNTQuNDAyIDUwMS4yNSAyNDkuODggNTAxLjI1IDI0NS4zNTcgNTAxLjI1IDI0MS4xMDIgNTAwLjYyNSAyMzcuOTA1IDQ5OS41IDIzNi43MjQgNDk5LjEwOCAyMzUuNjA0IDQ5OC41NTEgMjM0LjU4IDQ5Ny44NDVMMjM0LjU4IDUwMi41MTdDMjM0LjU4IDUwMy41NDMgMjM2LjE4NSA1MDQuNzMgMjM4Ljc2OCA1MDUuNjEyIDIzOS40OTkgNTA1Ljg2OCAyNDAuMjQ0IDUwNi4wODEgMjQxIDUwNi4yNVoiIGZpbGw9IiMwMDAwMDAiIGZpbGwtcnVsZT0ibm9uemVybyIgZmlsbC1vcGFjaXR5PSIxIi8+PHBhdGggZD0iTTI0MSA1MTYuMkMyNDAuMDUgNTE1Ljk4NSAyMzguOTM1IDUxNS43IDIzOC4xMiA1MTUuNDEyIDIzMy41NDIgNTEzLjg0NyAyMzIuNTggNTExLjgzNyAyMzIuNTggNTEwLjQxM0wyMzIuNTggNTAyLjQ4NSAyMzQuNTggNTAyLjQ4NUMyMzQuNTggNTAzLjQ4NSAyMzYuMTEgNTA0LjYzOCAyMzguNTggNTA1LjUxMyAyMzkuMzcgNTA1LjgxMSAyNDAuMTc4IDUwNi4wNTcgMjQxIDUwNi4yNUwyNDEgNTA4LjMyNUMyMzkuOTUyIDUwOC4wNzQgMjM4LjkxOSA1MDcuNzY1IDIzNy45MDUgNTA3LjQgMjM2LjcyNCA1MDcuMDExIDIzNS42MDQgNTA2LjQ1NSAyMzQuNTggNTA1Ljc1TDIzNC41OCA1MTAuNDI1QzIzNC41OCA1MTEuNDUgMjM2LjE4NSA1MTIuNjM4IDIzOC43NjggNTEzLjUyIDIzOS40OTggNTEzLjc3NyAyNDAuMjQ0IDUxMy45ODkgMjQxIDUxNC4xNTVaIiBmaWxsPSIjMDAwMDAwIiBmaWxsLXJ1bGU9Im5vbnplcm8iIGZpbGwtb3BhY2l0eT0iMSIvPjxwYXRoIGQ9Ik0yNTkgNTE2LjExNyAyNTkgNTE0LjA2QzI1OS42NzEgNTEzLjkxNiAyNjAuMzMzIDUxMy43MzYgMjYwLjk4NSA1MTMuNTIgMjYzLjU3MyA1MTIuNjM4IDI2NS4xNzcgNTExLjQ1MyAyNjUuMTc3IDUxMC40MjVMMjY1LjE3NyA1MDUuNzVDMjY0LjE1MiA1MDYuNDU2IDI2My4wMzIgNTA3LjAxMyAyNjEuODUgNTA3LjQwNSAyNjEuMDQ3IDUwNy42OSAyNTkuOTQzIDUwNy45OTUgMjU5IDUwOC4yMTdMMjU5IDUwNi4xNThDMjU5LjczOSA1MDUuOTg3IDI2MC40NjcgNTA1Ljc3MSAyNjEuMTggNTA1LjUxMyAyNjMuNjQ1IDUwNC42MzggMjY1LjE4IDUwMy40NzggMjY1LjE4IDUwMi40ODVMMjY3LjE4IDUwMi40ODUgMjY3LjE4IDUxMC40MjVDMjY3LjE4IDUxMS44MzcgMjY2LjIxNyA1MTMuODQ3IDI2MS42MzggNTE1LjQyNSAyNjAuOSA1MTUuNjY1IDI1OS44NTUgNTE1LjkxNSAyNTkgNTE2LjExN1oiIGZpbGw9IiMwMDAwMDAiIGZpbGwtcnVsZT0ibm9uemVybyIgZmlsbC1vcGFjaXR5PSIxIi8+PHBhdGggZD0iTTI0OS44OCA1MjVDMjQ1LjQ2NSA1MjUgMjQxLjI4OCA1MjQuNDAzIDIzOC4xMyA1MjMuMzE1IDIzMy41NDIgNTIxLjc1IDIzMi41OCA1MTkuNzUgMjMyLjU4IDUxOC4zMjhMMjMyLjU4IDUxMC4zODggMjM0LjU4IDUxMC4zODhDMjM0LjU4IDUxMS4zODggMjM2LjExIDUxMi41NCAyMzguNTggNTEzLjQxNSAyMzkuMzcgNTEzLjcxOSAyNDAuMTgxIDUxMy45NyAyNDEuMDA1IDUxNC4xNjVMMjQxLjAwNSA1MTYuMjFDMjM5Ljk1OCA1MTUuOTY3IDIzOC45MjQgNTE1LjY2NiAyMzcuOTEgNTE1LjMxIDIzNi43MjkgNTE0LjkxOSAyMzUuNjEgNTE0LjM2MyAyMzQuNTg1IDUxMy42NTdMMjM0LjU4NSA1MTguMzM4QzIzNC41ODUgNTE5LjM2NSAyMzYuMTkgNTIwLjU1IDIzOC43NzMgNTIxLjQzMiAyNDEuNzMyIDUyMi40NCAyNDUuNjggNTIzIDI0OS44OCA1MjMgMjU0LjA4IDUyMyAyNTguMDI1IDUyMi40NCAyNjAuOTg3IDUyMS40MjIgMjYzLjU3MyA1MjAuNTQgMjY1LjE3NyA1MTkuMzU1IDI2NS4xNzcgNTE4LjMyOEwyNjUuMTc3IDUxMy42NDVDMjY0LjE1MyA1MTQuMzUyIDI2My4wMzIgNTE0LjkwOSAyNjEuODUgNTE1LjMgMjYxLjA1IDUxNS41ODUgMjU5LjkzOCA1MTUuODk1IDI1OSA1MTYuMTE3TDI1OSA1MTQuMDZDMjU5LjczOSA1MTMuODg5IDI2MC40NjcgNTEzLjY3NCAyNjEuMTggNTEzLjQxNSAyNjMuNjQ1IDUxMi41NCAyNjUuMTggNTExLjM4IDI2NS4xOCA1MTAuMzg4TDI2Ny4xOCA1MTAuMzg4IDI2Ny4xOCA1MTguMzI4QzI2Ny4xOCA1MTkuNzQgMjY2LjIxNyA1MjEuNzUgMjYxLjYzOCA1MjMuMzE1IDI1OC40NyA1MjQuNDAzIDI1NC4yOTUgNTI1IDI0OS44OCA1MjVaIiBmaWxsPSIjMDAwMDAwIiBmaWxsLXJ1bGU9Im5vbnplcm8iIGZpbGwtb3BhY2l0eT0iMSIvPjxwYXRoIGQ9Ik0yNDMuODcyIDUwNS44NTggMjQzLjg3MiA1MTMuM0MyNDMuODcyIDUxNi42MSAyNDguODE1IDUxOS43MDggMjQ5Ljk0NyA1MTkuNzA4IDI1MS4xODUgNTE5LjcwOCAyNTYuMTI4IDUxNi42MSAyNTYuMTI4IDUxMy4zTDI1Ni4xMjggNTA1Ljg1OEMyNTIuMjAxIDUwNC4yNTYgMjQ3LjgwNCA1MDQuMjU2IDI0My44NzggNTA1Ljg1OFoiIGZpbGw9IiM5MTY0Q0MiIGZpbGwtcnVsZT0ibm9uemVybyIgZmlsbC1vcGFjaXR5PSIxIi8+PC9nPjwvZz48L2c+PC9nPjwvc3ZnPg==;" parent="Uwwz0JagbKvEItC36lnY-1" vertex="1">
          <mxGeometry x="48" y="485" width="100" height="100" as="geometry" />
        </mxCell>
        <mxCell id="Y9vbwo8gkhhabcxUIGdL-1" value="FortiClient EMS/Cloud" style="text;html=1;strokeColor=none;fillColor=none;align=center;verticalAlign=middle;whiteSpace=wrap;rounded=0;" parent="Uwwz0JagbKvEItC36lnY-1" vertex="1">
          <mxGeometry x="68" y="585.0000000000001" width="60" height="30" as="geometry" />
        </mxCell>
        <mxCell id="Y9vbwo8gkhhabcxUIGdL-6" style="edgeStyle=orthogonalEdgeStyle;rounded=0;orthogonalLoop=1;jettySize=auto;html=1;exitX=0.5;exitY=1;exitDx=0;exitDy=0;entryX=0.002;entryY=0.662;entryDx=0;entryDy=0;entryPerimeter=0;curved=1;strokeWidth=2;" parent="Uwwz0JagbKvEItC36lnY-1" source="Y9vbwo8gkhhabcxUIGdL-3" target="Uwwz0JagbKvEItC36lnY-12" edge="1">
          <mxGeometry relative="1" as="geometry" />
        </mxCell>
        <mxCell id="Y9vbwo8gkhhabcxUIGdL-3" value="" style="shape=image;aspect=fixed;image=data:image/svg+xml,PHN2ZyB3aWR0aD0iMTU2IiBoZWlnaHQ9IjEzOCIgeG1sbnM9Imh0dHA6Ly93d3cudzMub3JnLzIwMDAvc3ZnIiB4bWxuczp4bGluaz0iaHR0cDovL3d3dy53My5vcmcvMTk5OS94bGluayIgeG1sOnNwYWNlPSJwcmVzZXJ2ZSIgb3ZlcmZsb3c9ImhpZGRlbiI+PGRlZnM+PGNsaXBQYXRoIGlkPSJjbGlwMCI+PHJlY3QgeD0iNzc5IiB5PSIxNDAyIiB3aWR0aD0iMTU2IiBoZWlnaHQ9IjEzOCIvPjwvY2xpcFBhdGg+PC9kZWZzPjxnIGNsaXAtcGF0aD0idXJsKCNjbGlwMCkiIHRyYW5zZm9ybT0idHJhbnNsYXRlKC03NzkgLTE0MDIpIj48cGF0aCBkPSJNODM5IDE0MzMuMTEgODM5IDE0NTYuMTRDODM5IDE0NjYuMzkgODU0LjMzMiAxNDc2IDg1Ny44NCAxNDc2IDg2MS42NjggMTQ3NiA4NzcgMTQ2Ni4zOSA4NzcgMTQ1Ni4xNEw4NzcgMTQzMy4xMSA4NzYuNjcxIDE0MzMuMTFDODY0LjM3NiAxNDMwLjMyIDg1MS42MTggMTQzMC4zIDgzOS4zMTIgMTQzMy4wM1oiIGZpbGw9IiM5MTY0Q0MiIGZpbGwtcnVsZT0iZXZlbm9kZCIgZmlsbC1vcGFjaXR5PSIxIi8+PHBhdGggZD0iTTg5MyAxNDc4LjAzIDg5MyAxNDkyQzg5MyAxNDk4LjE5IDkwMi4yNzggMTUwNCA5MDQuNCAxNTA0IDkwNi43MjMgMTUwNCA5MTYgMTQ5OC4xOSA5MTYgMTQ5Mkw5MTYgMTQ3OC4wM0M5MDguNTczIDE0NzUuMzIgOTAwLjQyOCAxNDc1LjMyIDg5MyAxNDc4LjAzWiIgZmlsbD0iIzkxNjRDQyIgZmlsbC1ydWxlPSJldmVub2RkIiBmaWxsLW9wYWNpdHk9IjEiLz48cGF0aCBkPSJNOTMwLjUgMTQxMy44IDkzMC41IDE0NTEuNDJDOTMwLjUgMTQ0OS4wNCA5MjguNTgxIDE0NDcuMTIgOTI2LjIxNCAxNDQ3LjEyTDg4My4zNTcgMTQ0Ny4xMkM4ODAuOTkxIDE0NDcuMTIgODc5LjA3MSAxNDQ5LjA0IDg3OS4wNzEgMTQ1MS40Mkw4NzkuMDcxIDE0OTUuNSA3OTAuNzg2IDE0OTUuNUM3ODguNDE5IDE0OTUuNSA3ODYuNSAxNDkzLjU3IDc4Ni41IDE0OTEuMkw3ODYuNSAxNDEzLjhDNzg2LjUgMTQxMS40MyA3ODguNDE5IDE0MDkuNSA3OTAuNzg2IDE0MDkuNUw5MjYuMjE0IDE0MDkuNUM5MjguNTgxIDE0MDkuNSA5MzAuNSAxNDExLjQzIDkzMC41IDE0MTMuOFoiIHN0cm9rZT0iIzAwMDAwMCIgc3Ryb2tlLXdpZHRoPSI2Ljg3NSIgc3Ryb2tlLWxpbmVjYXA9InJvdW5kIiBzdHJva2UtbGluZWpvaW49InJvdW5kIiBzdHJva2UtbWl0ZXJsaW1pdD0iMTAiIHN0cm9rZS1vcGFjaXR5PSIxIiBmaWxsPSJub25lIiBmaWxsLXJ1bGU9ImV2ZW5vZGQiLz48cGF0aCBkPSJNODM3LjUgMTQ5NS41IDg3OS41IDE0OTUuNSA4NzkuNSAxNTIyLjUgODM3LjUgMTUyMi41WiIgc3Ryb2tlPSIjMDAwMDAwIiBzdHJva2Utd2lkdGg9IjYuODc1IiBzdHJva2UtbGluZWNhcD0icm91bmQiIHN0cm9rZS1saW5lam9pbj0icm91bmQiIHN0cm9rZS1taXRlcmxpbWl0PSIxMCIgc3Ryb2tlLW9wYWNpdHk9IjEiIGZpbGw9Im5vbmUiIGZpbGwtcnVsZT0iZXZlbm9kZCIvPjxwYXRoIGQ9Ik04MTcuNSAxNTIyLjUgODc5LjUgMTUyMi41IiBzdHJva2U9IiMwMDAwMDAiIHN0cm9rZS13aWR0aD0iNi44NzUiIHN0cm9rZS1saW5lY2FwPSJyb3VuZCIgc3Ryb2tlLWxpbmVqb2luPSJyb3VuZCIgc3Ryb2tlLW1pdGVybGltaXQ9IjEwIiBzdHJva2Utb3BhY2l0eT0iMSIgZmlsbD0ibm9uZSIgZmlsbC1ydWxlPSJldmVub2RkIi8+PHBhdGggZD0iTTkyNi4yNSAxNDQ2LjVDOTI4LjU5NyAxNDQ2LjUgOTMwLjUgMTQ0Ni41IDkzMC41IDE0NDYuNUw5MzAuNSAxNTMyLjVDOTMwLjUgMTUzMi41IDkyOC41OTcgMTUzMi41IDkyNi4yNSAxNTMyLjVMODgzLjc1IDE1MzIuNUM4ODEuNDAzIDE1MzIuNSA4NzkuNSAxNTMyLjUgODc5LjUgMTUzMi41TDg3OS41IDE0NDYuNUM4NzkuNSAxNDQ2LjUgODgxLjQwMyAxNDQ2LjUgODgzLjc1IDE0NDYuNVoiIHN0cm9rZT0iIzAwMDAwMCIgc3Ryb2tlLXdpZHRoPSI2Ljg3NSIgc3Ryb2tlLWxpbmVjYXA9InJvdW5kIiBzdHJva2UtbGluZWpvaW49InJvdW5kIiBzdHJva2UtbWl0ZXJsaW1pdD0iMTAiIHN0cm9rZS1vcGFjaXR5PSIxIiBmaWxsPSJub25lIiBmaWxsLXJ1bGU9ImV2ZW5vZGQiLz48cGF0aCBkPSJNOTEzLjQ5OSAxNDQ2QzkxNS40MzMgMTQ0NiA5MTcgMTQ0NiA5MTcgMTQ0Nkw5MTcgMTQ1M0M5MTcgMTQ1MyA5MTUuNDMzIDE0NTMgOTEzLjQ5OSAxNDUzTDg5NS41MDEgMTQ1M0M4OTMuNTY4IDE0NTMgODkyIDE0NTMgODkyIDE0NTNMODkyIDE0NDZDODkyIDE0NDYgODkzLjU2OCAxNDQ2IDg5NS41MDEgMTQ0NloiIGZpbGw9IiMwMDAwMDAiIGZpbGwtcnVsZT0iZXZlbm9kZCIgZmlsbC1vcGFjaXR5PSIxIi8+PC9nPjwvc3ZnPg==;" parent="Uwwz0JagbKvEItC36lnY-1" vertex="1">
          <mxGeometry x="50" y="184.89000000000001" width="96" height="84.92" as="geometry" />
        </mxCell>
        <mxCell id="Y9vbwo8gkhhabcxUIGdL-4" value="" style="shape=image;aspect=fixed;image=data:image/svg+xml,PHN2ZyB3aWR0aD0iNDgiIGhlaWdodD0iNDgiIHhtbG5zPSJodHRwOi8vd3d3LnczLm9yZy8yMDAwL3N2ZyIgeG1sbnM6eGxpbms9Imh0dHA6Ly93d3cudzMub3JnLzE5OTkveGxpbmsiIHhtbDpzcGFjZT0icHJlc2VydmUiIG92ZXJmbG93PSJoaWRkZW4iPjxkZWZzPjxjbGlwUGF0aCBpZD0iY2xpcDAiPjxyZWN0IHg9IjIzNiIgeT0iNDA4IiB3aWR0aD0iNDgiIGhlaWdodD0iNDgiLz48L2NsaXBQYXRoPjwvZGVmcz48ZyBjbGlwLXBhdGg9InVybCgjY2xpcDApIiB0cmFuc2Zvcm09InRyYW5zbGF0ZSgtMjM2IC00MDgpIj48cGF0aCBkPSJNMjcyIDQzMy42MjJDMjY5LjU3NSA0MzMuNjI0IDI2Ny4zNDQgNDMyLjI5NyAyNjYuMTg4IDQzMC4xNjUgMjY2LjAyMyA0MjkuODY2IDI2NS44ODMgNDI5LjU1NCAyNjUuNzcgNDI5LjIzMkwyNjUuNjEgNDI4Ljc3NSAyNjUuODYgNDI4LjM2N0MyNjUuOTEzIDQyOC4yODUgMjY1Ljk2IDQyOC4yMDMgMjY2LjAwNSA0MjguMTE3IDI2Ni43NiA0MjYuNzI4IDI2Ny4wMTIgNDI1LjEyMSAyNjYuNzE3IDQyMy41NjhMMjY2LjYyOCA0MjMuMDk4IDI2Ni45MzggNDIyLjczNUMyNjkuMjk2IDQxOS45NDMgMjczLjQ3MSA0MTkuNTkxIDI3Ni4yNjMgNDIxLjk0OSAyNzkuMDU1IDQyNC4zMDggMjc5LjQwNyA0MjguNDgzIDI3Ny4wNDkgNDMxLjI3NSAyNzUuNzkzIDQzMi43NjIgMjczLjk0NiA0MzMuNjIgMjcyIDQzMy42MjJaTTI2Ny44MjUgNDI4Ljk3OEMyNjcuODYgNDI5LjA1NSAyNjcuOSA0MjkuMTMgMjY3Ljk0IDQyOS4yMDcgMjY5LjE1NiA0MzEuNDQ5IDI3MS45NTkgNDMyLjI4IDI3NC4yMDEgNDMxLjA2NCAyNzQuOTg2IDQzMC42MzggMjc1LjYzMSA0MjkuOTkzIDI3Ni4wNTcgNDI5LjIwNyAyNzYuODcgNDI3LjcxMyAyNzYuNzk0IDQyNS44OTIgMjc1Ljg2IDQyNC40NyAyNzQuNDYyIDQyMi4zMzkgMjcxLjYgNDIxLjc0NSAyNjkuNDcgNDIzLjE0NCAyNjkuMjIgNDIzLjMwOCAyNjguOTg2IDQyMy40OTYgMjY4Ljc3MiA0MjMuNzA1IDI2OC44MjMgNDI0LjA4NCAyNjguODQ4IDQyNC40NjUgMjY4Ljg0OCA0MjQuODQ4IDI2OC44NDcgNDI2LjI4NyAyNjguNDk1IDQyNy43MDUgMjY3LjgyMyA0MjguOTc4WiIgZmlsbD0iIzAwMDAwMCIgZmlsbC1ydWxlPSJub256ZXJvIiBmaWxsLW9wYWNpdHk9IjEiLz48cGF0aCBkPSJNMjgyLjAzMyA0NDUuMzY3IDI3MS42MTUgNDQ1LjM2NyAyNzEuNjE1IDQ0Mi45MDJDMjcxLjYxNSA0NDIuNTIgMjcxLjU2NCA0NDIuMTM5IDI3MS40NjIgNDQxLjc3IDI3MS4wOTUgNDQwLjQ0NyAyNzAuMTA4IDQzOS4zODUgMjY4LjgxNSA0MzguOTIyIDI2OC40NjYgNDM4Ljc5IDI2OC4xIDQzOC43MDYgMjY3LjcyOCA0MzguNjcyTDI2Ny44MDcgNDM2LjY3MiAyNzcuMjg1IDQzNi42NzJDMjc5LjQxOCA0MzYuNjczIDI4MS4yODkgNDM4LjA5NSAyODEuODYgNDQwLjE1IDI4MS45NzQgNDQwLjU2NCAyODIuMDMyIDQ0MC45OTEgMjgyLjAzMyA0NDEuNDJaTTI3My42MTUgNDQzLjM2NyAyODAuMDMzIDQ0My4zNjcgMjgwLjAzMyA0NDEuNDM1QzI4MC4wMzMgNDQxLjE4NyAyODAgNDQwLjk0MSAyNzkuOTMyIDQ0MC43MDMgMjc5LjYwMiA0MzkuNTEzIDI3OC41MiA0MzguNjg5IDI3Ny4yODUgNDM4LjY4OEwyNzEuOTc1IDQzOC42ODhDMjczLjAzIDQzOS44MzggMjczLjYxNSA0NDEuMzQyIDI3My42MTUgNDQyLjkwMloiIGZpbGw9IiMwMDAwMDAiIGZpbGwtcnVsZT0ibm9uemVybyIgZmlsbC1vcGFjaXR5PSIxIi8+PHBhdGggZD0iTTI2MCA0MzMuNjlDMjU2Ljg5OSA0MzMuNzA0IDI1NC4wMjEgNDMyLjA4MSAyNTIuNDMgNDI5LjQyIDI1Mi4zNiA0MjkuMzA3IDI1Mi4yOTUgNDI5LjE5MyAyNTIuMjMgNDI5LjA3NSAyNTEuMjU1IDQyNy4yOCAyNTAuOTMgNDI1LjIwMiAyNTEuMzEgNDIzLjE5NSAyNTEuNTI0IDQyMi4wNDcgMjUxLjk2NyA0MjAuOTUzIDI1Mi42MTMgNDE5Ljk4IDI1NS4yOTQgNDE1Ljg5NyAyNjAuNzc4IDQxNC43NjEgMjY0Ljg2MSA0MTcuNDQyIDI2OC43MDkgNDE5Ljk2OSAyNjkuOTc1IDQyNS4wMjUgMjY3Ljc3MiA0MjkuMDY4IDI2Ny43MDcgNDI5LjE5IDI2Ny42MzUgNDI5LjMxOCAyNjcuNTU3IDQyOS40NCAyNjUuOTY0IDQzMi4wOSAyNjMuMDkyIDQzMy43MDUgMjYwIDQzMy42OVpNMjYwIDQxOEMyNTcuNjk2IDQxNy45OTggMjU1LjU0NyA0MTkuMTU3IDI1NC4yODMgNDIxLjA4MiAyNTMuNzg2IDQyMS44MzUgMjUzLjQ0NiA0MjIuNjc5IDI1My4yODMgNDIzLjU2NSAyNTIuOTg4IDQyNS4xMTggMjUzLjIzOSA0MjYuNzI1IDI1My45OTIgNDI4LjExNSAyNTQuMDQyIDQyOC4yMDUgMjU0LjA5MiA0MjguMjkzIDI1NC4xNDcgNDI4LjM4MyAyNTYuMTAyIDQzMS42MTggMjYwLjMxIDQzMi42NTYgMjYzLjU0NiA0MzAuNzAyIDI2NC40OTUgNDMwLjEyOCAyNjUuMjkxIDQyOS4zMzIgMjY1Ljg2NSA0MjguMzgzIDI2NS45MjcgNDI4LjI4MyAyNjUuOTc1IDQyOC4yIDI2Ni4wMiA0MjguMTEyIDI2Ny44MjUgNDI0Ljc5MSAyNjYuNTk1IDQyMC42MzUgMjYzLjI3MyA0MTguODMgMjYyLjI2OCA0MTguMjg1IDI2MS4xNDMgNDE3Ljk5OSAyNjAgNDE4WiIgZmlsbD0iIzAwMDAwMCIgZmlsbC1ydWxlPSJub256ZXJvIiBmaWxsLW9wYWNpdHk9IjEiLz48cGF0aCBkPSJNMjQ4IDQzMy42MjJDMjQ0LjM0NCA0MzMuNjI2IDI0MS4zNzcgNDMwLjY2NSAyNDEuMzc0IDQyNy4wMDggMjQxLjM3MSA0MjMuMzUyIDI0NC4zMzIgNDIwLjM4NiAyNDcuOTg4IDQyMC4zODMgMjQ5Ljk0MSA0MjAuMzgxIDI1MS43OTYgNDIxLjI0MiAyNTMuMDU1IDQyMi43MzVMMjUzLjM2NSA0MjMuMSAyNTMuMjc1IDQyMy41NjhDMjUyLjk4MSA0MjUuMTIgMjUzLjIzMiA0MjYuNzI2IDI1My45ODUgNDI4LjExNSAyNTQuMDM1IDQyOC4yMDUgMjU0LjA4NSA0MjguMjkzIDI1NC4xNCA0MjguMzgzTDI1NC4zOSA0MjguNzg4IDI1NC4yMzIgNDI5LjIzNUMyNTQuMTIgNDI5LjU1NiAyNTMuOTgxIDQyOS44NjcgMjUzLjgxOCA0MzAuMTY1IDI1Mi42NiA0MzIuMjk4IDI1MC40MjcgNDMzLjYyNSAyNDggNDMzLjYyMlpNMjQ4IDQyMi4zODVDMjQ1LjQ0OCA0MjIuMzgxIDI0My4zNzcgNDI0LjQ0NiAyNDMuMzcyIDQyNi45OTcgMjQzLjM2OCA0MjkuNTQ5IDI0NS40MzMgNDMxLjYyMSAyNDcuOTg1IDQzMS42MjUgMjQ5LjY4MyA0MzEuNjI4IDI1MS4yNDYgNDMwLjY5OCAyNTIuMDU1IDQyOS4yMDUgMjUyLjA5OSA0MjkuMTMgMjUyLjEzOSA0MjkuMDUyIDI1Mi4xNzUgNDI4Ljk3MyAyNTEuNTA2IDQyNy43IDI1MS4xNTYgNDI2LjI4MyAyNTEuMTU1IDQyNC44NDUgMjUxLjE1NSA0MjQuNDY0IDI1MS4xOCA0MjQuMDgzIDI1MS4yMyA0MjMuNzA1IDI1MC4zNjcgNDIyLjg2IDI0OS4yMDggNDIyLjM4NiAyNDggNDIyLjM4NVoiIGZpbGw9IiMwMDAwMDAiIGZpbGwtcnVsZT0ibm9uemVybyIgZmlsbC1vcGFjaXR5PSIxIi8+PHBhdGggZD0iTTI3My42MTUgNDQ4IDI0Ni4zODUgNDQ4IDI0Ni4zODUgNDQyLjkwMkMyNDYuMzg0IDQ0MC4yNzEgMjQ4LjAzNyA0MzcuOTIzIDI1MC41MTUgNDM3LjAzOCAyNTEuMDI5IDQzNi44NSAyNTEuNTY3IDQzNi43MzQgMjUyLjExMyA0MzYuNjkzIDI1Mi4yNjUgNDM2LjY3NyAyNTIuNDM4IDQzNi42NyAyNTIuNjEzIDQzNi42N0wyNjcuMzc4IDQzNi42N0MyNjcuNTU3IDQzNi42NyAyNjcuNzMgNDM2LjY3IDI2Ny44NzggNDM2LjY5MyAyNjguNDI0IDQzNi43MzUgMjY4Ljk2MyA0MzYuODUzIDI2OS40NzggNDM3LjA0MyAyNzEuOTUgNDM3LjkzIDI3My41OTkgNDQwLjI3NSAyNzMuNTk4IDQ0Mi45MDJaTTI0OC4zODUgNDQ2IDI3MS42MTUgNDQ2IDI3MS42MTUgNDQyLjkwMkMyNzEuNjE1IDQ0Mi41MiAyNzEuNTY0IDQ0Mi4xMzkgMjcxLjQ2MiA0NDEuNzcgMjcxLjA5NSA0NDAuNDQ3IDI3MC4xMDggNDM5LjM4NSAyNjguODE1IDQzOC45MjIgMjY4LjQ2NiA0MzguNzkgMjY4LjEgNDM4LjcwNiAyNjcuNzI4IDQzOC42NzIgMjY3LjYxNyA0MzguNjcyIDI2Ny41MDUgNDM4LjY1OCAyNjcuMzgzIDQzOC42NThMMjUyLjYxNyA0MzguNjU4QzI1Mi40OTYgNDM4LjY1OCAyNTIuMzgzIDQzOC42NjMgMjUyLjI4IDQzOC42NzIgMjUxLjkwOSA0MzguNyAyNTEuNTQ0IDQzOC43NzkgMjUxLjE5NSA0MzguOTA4IDI0OS44OTggNDM5LjM2NyAyNDguOTA3IDQ0MC40MyAyNDguNTM4IDQ0MS43NTUgMjQ4LjQzNiA0NDIuMTI1IDI0OC4zODUgNDQyLjUwNyAyNDguMzg1IDQ0Mi44OVoiIGZpbGw9IiMwMDAwMDAiIGZpbGwtcnVsZT0ibm9uemVybyIgZmlsbC1vcGFjaXR5PSIxIi8+PHBhdGggZD0iTTI0OC4zODUgNDQ1LjM2NyAyMzcuOTY1IDQ0NS4zNjcgMjM3Ljk2NSA0NDEuNDM1QzIzNy45NjMgNDQxLjAwNCAyMzguMDIxIDQ0MC41NzUgMjM4LjEzNyA0NDAuMTYgMjM4LjU1MyA0MzguNjc4IDIzOS42NjEgNDM3LjQ4OSAyNDEuMTEgNDM2Ljk3IDI0MS42MjMgNDM2Ljc4MiAyNDIuMTY2IDQzNi42ODYgMjQyLjcxMiA0MzYuNjg4TDI1Mi4xOTMgNDM2LjY4OCAyNTIuMjcyIDQzOC42ODhDMjUxLjkwNCA0MzguNzE2IDI1MS41NDIgNDM4Ljc5NSAyNTEuMTk1IDQzOC45MjIgMjQ5Ljg5OCA0MzkuMzgyIDI0OC45MDcgNDQwLjQ0NSAyNDguNTM4IDQ0MS43NyAyNDguNDM2IDQ0Mi4xNCAyNDguMzg1IDQ0Mi41MjIgMjQ4LjM4NSA0NDIuOTA1Wk0yMzkuOTY1IDQ0My4zNjcgMjQ2LjM4NSA0NDMuMzY3IDI0Ni4zODUgNDQyLjkwMkMyNDYuMzg1IDQ0MS4zNDIgMjQ2Ljk3IDQzOS44MzggMjQ4LjAyNSA0MzguNjg4TDI0Mi43MTIgNDM4LjY4OEMyNDIuMzk3IDQzOC42ODcgMjQyLjA4NCA0MzguNzQyIDI0MS43ODggNDM4Ljg1IDI0MC45NDYgNDM5LjE1IDI0MC4zMDMgNDM5Ljg0IDI0MC4wNjIgNDQwLjcgMjM5Ljk5NyA0NDAuOTM5IDIzOS45NjQgNDQxLjE4NyAyMzkuOTY1IDQ0MS40MzVaIiBmaWxsPSIjMDAwMDAwIiBmaWxsLXJ1bGU9Im5vbnplcm8iIGZpbGwtb3BhY2l0eT0iMSIvPjwvZz48L3N2Zz4=;" parent="Uwwz0JagbKvEItC36lnY-1" vertex="1">
          <mxGeometry x="10" y="101" width="93" height="93" as="geometry" />
        </mxCell>
        <mxCell id="Y9vbwo8gkhhabcxUIGdL-7" value="" style="endArrow=classic;startArrow=classic;html=1;rounded=0;curved=1;strokeWidth=2;fillColor=#eeeeee;strokeColor=#999999;" parent="Uwwz0JagbKvEItC36lnY-1" source="Uwwz0JagbKvEItC36lnY-30" target="Y9vbwo8gkhhabcxUIGdL-0" edge="1">
          <mxGeometry width="50" height="50" relative="1" as="geometry">
            <mxPoint x="790" y="480" as="sourcePoint" />
            <mxPoint x="840" y="430" as="targetPoint" />
          </mxGeometry>
        </mxCell>
      </root>
    </mxGraphModel>
  </diagram>
  <diagram name="Copy of ZTNA" id="DxHsEq1lt3mdD5KyV4N7">
    <mxGraphModel dx="1314" dy="924" grid="1" gridSize="10" guides="1" tooltips="1" connect="1" arrows="1" fold="1" page="1" pageScale="1" pageWidth="827" pageHeight="1169" math="0" shadow="0">
      <root>
        <mxCell id="8lnVzVoALOnFnLTqH_IZ-0" />
        <mxCell id="8lnVzVoALOnFnLTqH_IZ-1" parent="8lnVzVoALOnFnLTqH_IZ-0" />
        <mxCell id="8lnVzVoALOnFnLTqH_IZ-2" value="" style="rounded=1;whiteSpace=wrap;html=1;sketch=0;fontSize=10;strokeColor=#007fff;fillColor=#FFFFFF;gradientColor=none;gradientDirection=south;absoluteArcSize=1;arcSize=4;fontFamily=Helvetica;" vertex="1" parent="8lnVzVoALOnFnLTqH_IZ-1">
          <mxGeometry x="343.5" y="127" width="859.9999999999999" height="600" as="geometry" />
        </mxCell>
        <mxCell id="8lnVzVoALOnFnLTqH_IZ-3" value="" style="vsdxID=12;fillColor=#f0f0f0;gradientColor=none;shape=stencil(hZNRcoMgEIZPwysDrJjw2EmTC/QETqSVqdUMMa3p6UtcNIAk9Qn+/Ve+XVgCu3NTnTQR7DzY/lP/mHpoCLwSIUzXaGsGtyKwJ7B7763+sP2lq3F/qpxTsEnRNebwm1uwyh7fzK9GjVHgG4kBzPzqv28njj6OoevsVsUkHNB7vFg089g9b2nBVPCVJcZHMcfLjc8Q0Q9G8MRUFt4AoWE6nr04gtZ0Aa3a0kLGxM9wlaIgEuSY0DmUShAfFQXrFMi1Lccd5CwKk/+wLyl3SW5X/EuFXuIsaXLYNIg9j3iDe8kkZN7F/aJ5ShHf/FWsa4HYAdkOZSifv123mIYEx8e0Lc5YGE+Hykk4kLD/Aw==);strokeColor=#bfbfbf;spacingTop=-3;spacingBottom=-3;spacingLeft=-3;spacingRight=-3;labelBackgroundColor=none;rounded=1;html=1;whiteSpace=wrap;arcSize=17;" vertex="1" parent="8lnVzVoALOnFnLTqH_IZ-1">
          <mxGeometry x="684.5" y="167" width="206" height="490" as="geometry" />
        </mxCell>
        <mxCell id="8lnVzVoALOnFnLTqH_IZ-4" style="vsdxID=7;fillColor=#ffffff;gradientColor=none;fillOpacity=0;strokeOpacity=0;shape=stencil(pZPRDoIgFIafhlt35Cy1y2b2Hi4xWSYOteztg7EMNXVMrg7w/4fv3zgE46ZIa0YoNK0Ud/biWVsQPBNKeVUwyVtVEUwIxrmQ7CZFV2VmX6daqauHeOoOvfGBdlB427uLEZa8soToReGy9tpJ09Uf1MHRXl+vP3q2pxtyOpbjjAVnMHDaZj94QbQHX/lD+xrd4izZF+ONef8kBKd44JQGnOBhF/nqp5pgwyomrGJN/4uqfxOS87I0AzagqGI6UerITCMmHw==);spacingTop=-3;spacingBottom=-3;spacingLeft=-3;spacingRight=-3;labelBackgroundColor=none;rounded=0;html=1;whiteSpace=wrap;" vertex="1" parent="8lnVzVoALOnFnLTqH_IZ-1">
          <mxGeometry x="193" y="101" width="918" height="626" as="geometry" />
        </mxCell>
        <mxCell id="8lnVzVoALOnFnLTqH_IZ-9" value="&lt;p style=&quot;align:center;margin-left:0;margin-right:0;margin-top:0px;margin-bottom:0px;text-indent:0;valign:middle;direction:ltr;&quot;&gt;&lt;font style=&quot;font-size:9px;font-family:Arial;color:#000000;direction:ltr;letter-spacing:0px;line-height:100%;opacity:1&quot;&gt;Internal&lt;/font&gt;&lt;/p&gt;" style="text;vsdxID=11;fillColor=none;gradientColor=none;strokeColor=none;spacingTop=-3;spacingBottom=-3;spacingLeft=-3;spacingRight=-3;labelBackgroundColor=none;rounded=1;html=1;whiteSpace=wrap;verticalAlign=middle;align=center;;html=1;" vertex="1" parent="8lnVzVoALOnFnLTqH_IZ-1">
          <mxGeometry x="696.4466019417475" y="184.8886567164179" width="184.49417475728154" height="18.576119402985075" as="geometry" />
        </mxCell>
        <mxCell id="8lnVzVoALOnFnLTqH_IZ-10" value="&lt;span style=&quot;&quot;&gt;172.16.130.64/26&amp;nbsp;&lt;/span&gt;" style="text;html=1;strokeColor=none;fillColor=none;align=right;verticalAlign=middle;whiteSpace=wrap;rounded=0;fontFamily=Helvetica;fontSize=10;" vertex="1" parent="8lnVzVoALOnFnLTqH_IZ-1">
          <mxGeometry x="798.752427184466" y="628.2089552238806" width="91.74757281553397" height="27.791044776119403" as="geometry" />
        </mxCell>
        <mxCell id="8lnVzVoALOnFnLTqH_IZ-11" value="&lt;font color=&quot;#000000&quot;&gt;Public IP Address&lt;/font&gt;" style="aspect=fixed;html=1;points=[];align=center;image;fontSize=12;image=img/lib/azure2/networking/Public_IP_Addresses.svg;rounded=1;sketch=0;strokeColor=#007fff;fillColor=#FFFFFF;gradientColor=none;gradientDirection=south;fontFamily=Helvetica;fontColor=#999999;" vertex="1" parent="8lnVzVoALOnFnLTqH_IZ-1">
          <mxGeometry x="300" y="297.00000000000006" width="65" height="52" as="geometry" />
        </mxCell>
        <mxCell id="8lnVzVoALOnFnLTqH_IZ-12" value="&lt;span style=&quot;font-size: 13px;&quot;&gt;Virtual Network&amp;nbsp;&lt;/span&gt;&lt;br style=&quot;font-size: 13px;&quot;&gt;&lt;span style=&quot;font-size: 13px;&quot;&gt;172.16.130.0/24&amp;nbsp;&lt;/span&gt;" style="text;html=1;strokeColor=none;fillColor=none;align=right;verticalAlign=middle;whiteSpace=wrap;rounded=0;sketch=0;fontSize=4;labelPosition=center;verticalLabelPosition=middle;horizontal=1;fontFamily=Helvetica;" vertex="1" parent="8lnVzVoALOnFnLTqH_IZ-1">
          <mxGeometry x="365" y="677" width="766.83" height="50" as="geometry" />
        </mxCell>
        <mxCell id="8lnVzVoALOnFnLTqH_IZ-13" value="" style="aspect=fixed;html=1;points=[];align=center;image;fontSize=12;image=img/lib/azure2/networking/Virtual_Networks.svg;rounded=1;sketch=0;strokeColor=#007fff;fillColor=#FFFFFF;gradientColor=none;gradientDirection=south;fontFamily=Helvetica;" vertex="1" parent="8lnVzVoALOnFnLTqH_IZ-1">
          <mxGeometry x="1131.8333333333333" y="687" width="57.548333333333325" height="34.32833333333333" as="geometry" />
        </mxCell>
        <mxCell id="8lnVzVoALOnFnLTqH_IZ-14" style="vsdxID=113;fillColor=none;gradientColor=none;strokeColor=none;spacingTop=-3;spacingBottom=-3;spacingLeft=-3;spacingRight=-3;labelBackgroundColor=none;rounded=1;html=1;whiteSpace=wrap;" vertex="1" parent="8lnVzVoALOnFnLTqH_IZ-1">
          <mxGeometry x="940" y="167" width="207" height="493" as="geometry" />
        </mxCell>
        <mxCell id="8lnVzVoALOnFnLTqH_IZ-15" style="vsdxID=114;fillColor=#f0f0f0;gradientColor=none;shape=stencil(fZPdcoMgEIWfhlsHWDXhspMmL9AncJRUplYzxDSapw9xpfyExCvcPQe+XVgCu3NbnSTh9Dzq4UdeVTO2BD4J56pvpVajWRHYE9gdBy2/9XDpG/w/VUbJ6RKRDXrYQ81ppesvdZMYoxmwTYEJdP4Of48TpzWPqXndIcvFEjigtr5oFLNQbX+zQlDvgxzzE7f5crM6eLDBBPa8AlYBWAsrHAH9MBCd6j1gsc3ybQAdWp6hhTA9iMBDTkZphPmqMIgNkGpcAts5/ssoy3fUzuDKyFnI7VcWl2JR/X5F9C9Z3a0kDIlX4a45hp/Ce5/5cy0QKiDZnwTl+5drFsuI4PCorsMJ8/PxSJkQjiPs7w==);strokeColor=#bfbfbf;spacingTop=-3;spacingBottom=-3;spacingLeft=-3;spacingRight=-3;labelBackgroundColor=none;rounded=1;html=1;whiteSpace=wrap;" vertex="1" parent="8lnVzVoALOnFnLTqH_IZ-14">
          <mxGeometry width="207" height="490" as="geometry" />
        </mxCell>
        <mxCell id="8lnVzVoALOnFnLTqH_IZ-16" value="&lt;p style=&quot;align:center;margin-left:0;margin-right:0;margin-top:0px;margin-bottom:0px;text-indent:0;valign:middle;direction:ltr;&quot;&gt;&lt;font style=&quot;font-size:9px;font-family:Arial;color:#000000;direction:ltr;letter-spacing:0px;line-height:100%;opacity:1&quot;&gt;Application&lt;br&gt;&lt;/font&gt;&lt;/p&gt;" style="text;vsdxID=113;fillColor=none;gradientColor=none;strokeColor=none;spacingTop=-3;spacingBottom=-3;spacingLeft=-3;spacingRight=-3;labelBackgroundColor=none;rounded=1;html=1;whiteSpace=wrap;verticalAlign=middle;align=center;;html=1;" vertex="1" parent="8lnVzVoALOnFnLTqH_IZ-14">
          <mxGeometry x="12.7" y="24.608396624472576" width="182.88" height="26.418143459915612" as="geometry" />
        </mxCell>
        <mxCell id="8lnVzVoALOnFnLTqH_IZ-17" value="" style="aspect=fixed;html=1;points=[];align=center;image;fontSize=12;image=img/lib/azure2/networking/Route_Tables.svg;rounded=1;sketch=0;strokeColor=#007fff;fillColor=#FFFFFF;gradientColor=none;gradientDirection=south;fontFamily=Helvetica;" vertex="1" parent="8lnVzVoALOnFnLTqH_IZ-14">
          <mxGeometry x="4" y="453.0037552742616" width="33.03" height="32" as="geometry" />
        </mxCell>
        <mxCell id="8lnVzVoALOnFnLTqH_IZ-19" value="Application Server" style="text;html=1;strokeColor=none;fillColor=none;align=center;verticalAlign=middle;whiteSpace=wrap;rounded=0;fontFamily=Helvetica;fontSize=10;fontColor=#000000;" vertex="1" parent="8lnVzVoALOnFnLTqH_IZ-14">
          <mxGeometry x="74.13999999999999" y="249.62025316455697" width="60" height="62.40506329113924" as="geometry" />
        </mxCell>
        <mxCell id="8lnVzVoALOnFnLTqH_IZ-18" value="" style="shape=image;verticalLabelPosition=bottom;verticalAlign=top;imageAspect=0;aspect=fixed;image=data:image/svg+xml,PHN2ZyB4bWxucz0iaHR0cDovL3d3dy53My5vcmcvMjAwMC9zdmciIGRhdGEtbmFtZT0iZmx1ZW50X2ljb25zIiB2aWV3Qm94PSIwIDAgMTggMTgiPjxkZWZzPjxsaW5lYXJHcmFkaWVudCBpZD0iYSIgeDE9IjguODgiIHkxPSIxMi4yMSIgeDI9IjguODgiIHkyPSIuMjEiIGdyYWRpZW50VW5pdHM9InVzZXJTcGFjZU9uVXNlIj48c3RvcCBvZmZzZXQ9IjAiIHN0b3AtY29sb3I9IiMwMDc4ZDQiLz48c3RvcCBvZmZzZXQ9Ii44MiIgc3RvcC1jb2xvcj0iIzVlYTBlZiIvPjwvbGluZWFyR3JhZGllbnQ+PGxpbmVhckdyYWRpZW50IGlkPSJiIiB4MT0iOC44OCIgeTE9IjE2Ljg0IiB4Mj0iOC44OCIgeTI9IjEyLjIxIiBncmFkaWVudFVuaXRzPSJ1c2VyU3BhY2VPblVzZSI+PHN0b3Agb2Zmc2V0PSIuMTUiIHN0b3AtY29sb3I9IiNjY2MiLz48c3RvcCBvZmZzZXQ9IjEiIHN0b3AtY29sb3I9IiM3MDcwNzAiLz48L2xpbmVhckdyYWRpZW50PjwvZGVmcz48cmVjdCB4PSItLjEyIiB5PSIuMjEiIHdpZHRoPSIxOCIgaGVpZ2h0PSIxMiIgcng9Ii42IiBmaWxsPSJ1cmwoI2EpIi8+PHBhdGggZmlsbD0iIzUwZTZmZiIgZD0iTTExLjg4IDQuNDZ2My40OWwtMyAxLjc2di0zLjVsMy0xLjc1eiIvPjxwYXRoIGZpbGw9IiNjM2YxZmYiIGQ9Ik0xMS44OCA0LjQ2bC0zIDEuNzYtMy0xLjc2IDMtMS43NSAzIDEuNzV6Ii8+PHBhdGggZmlsbD0iIzljZWJmZiIgZD0iTTguODggNi4yMnYzLjQ5bC0zLTEuNzZWNC40NmwzIDEuNzZ6Ii8+PHBhdGggZmlsbD0iI2MzZjFmZiIgZD0iTTUuODggNy45NWwzLTEuNzR2My41bC0zLTEuNzZ6Ii8+PHBhdGggZmlsbD0iIzljZWJmZiIgZD0iTTExLjg4IDcuOTVsLTMtMS43NHYzLjVsMy0xLjc2eiIvPjxwYXRoIGQ9Ik0xMi40OSAxNS44NGMtMS43OC0uMjgtMS44NS0xLjU2LTEuODUtMy42M0g3LjExYzAgMi4wNy0uMDYgMy4zNS0xLjg0IDMuNjNhMSAxIDAgMDAtLjg5IDFoOWExIDEgMCAwMC0uODktMXoiIGZpbGw9InVybCgjYikiLz48L3N2Zz4=;rounded=1;sketch=0;fontSize=3;strokeColor=#007fff;fillColor=#FFFFFF;gradientColor=none;gradientDirection=south;fontFamily=Helvetica;fontColor=#000000;" vertex="1" parent="8lnVzVoALOnFnLTqH_IZ-14">
          <mxGeometry x="80" y="213" width="47" height="47" as="geometry" />
        </mxCell>
        <mxCell id="SSU8CUwgX_QRmmI8L2Xm-0" value="&lt;span style=&quot;&quot;&gt;172.16.130.128/25&amp;nbsp;&lt;/span&gt;" style="text;html=1;strokeColor=none;fillColor=none;align=right;verticalAlign=middle;whiteSpace=wrap;rounded=0;fontFamily=Helvetica;fontSize=10;" vertex="1" parent="8lnVzVoALOnFnLTqH_IZ-14">
          <mxGeometry x="115.25242718446589" y="462.2089552238806" width="91.74757281553397" height="27.791044776119403" as="geometry" />
        </mxCell>
        <mxCell id="8lnVzVoALOnFnLTqH_IZ-23" value="" style="vsdxID=12;fillColor=#f0f0f0;gradientColor=none;shape=stencil(hZNRcoMgEIZPwysDrJjw2EmTC/QETqSVqdUMMa3p6UtcNIAk9Qn+/Ve+XVgCu3NTnTQR7DzY/lP/mHpoCLwSIUzXaGsGtyKwJ7B7763+sP2lq3F/qpxTsEnRNebwm1uwyh7fzK9GjVHgG4kBzPzqv28njj6OoevsVsUkHNB7vFg089g9b2nBVPCVJcZHMcfLjc8Q0Q9G8MRUFt4AoWE6nr04gtZ0Aa3a0kLGxM9wlaIgEuSY0DmUShAfFQXrFMi1Lccd5CwKk/+wLyl3SW5X/EuFXuIsaXLYNIg9j3iDe8kkZN7F/aJ5ShHf/FWsa4HYAdkOZSifv123mIYEx8e0Lc5YGE+Hykk4kLD/Aw==);strokeColor=#bfbfbf;spacingTop=-3;spacingBottom=-3;spacingLeft=-3;spacingRight=-3;labelBackgroundColor=none;rounded=1;html=1;whiteSpace=wrap;" vertex="1" parent="8lnVzVoALOnFnLTqH_IZ-1">
          <mxGeometry x="393.5" y="166" width="206" height="490" as="geometry" />
        </mxCell>
        <mxCell id="8lnVzVoALOnFnLTqH_IZ-24" value="" style="group" vertex="1" connectable="0" parent="8lnVzVoALOnFnLTqH_IZ-1">
          <mxGeometry x="393.5" y="167" width="211.63" height="490" as="geometry" />
        </mxCell>
        <mxCell id="8lnVzVoALOnFnLTqH_IZ-25" value="&lt;p style=&quot;align:center;margin-left:0;margin-right:0;margin-top:0px;margin-bottom:0px;text-indent:0;valign:middle;direction:ltr;&quot;&gt;&lt;font style=&quot;font-size:9px;font-family:Arial;color:#000000;direction:ltr;letter-spacing:0px;line-height:100%;opacity:1&quot;&gt;External&lt;/font&gt;&lt;/p&gt;" style="text;vsdxID=11;fillColor=none;gradientColor=none;strokeColor=none;spacingTop=-3;spacingBottom=-3;spacingLeft=-3;spacingRight=-3;labelBackgroundColor=none;rounded=1;html=1;whiteSpace=wrap;verticalAlign=middle;align=center;;html=1;" vertex="1" parent="8lnVzVoALOnFnLTqH_IZ-24">
          <mxGeometry x="12.699999999999989" y="17.888656716417895" width="180.98" height="18.57611940298507" as="geometry" />
        </mxCell>
        <mxCell id="8lnVzVoALOnFnLTqH_IZ-26" value="&lt;span style=&quot;&quot;&gt;&amp;nbsp;172.16.130.0/26&lt;/span&gt;" style="text;html=1;strokeColor=none;fillColor=none;align=left;verticalAlign=middle;whiteSpace=wrap;rounded=0;fontFamily=Helvetica;fontSize=10;" vertex="1" parent="8lnVzVoALOnFnLTqH_IZ-24">
          <mxGeometry y="462.2089552238806" width="90" height="27.791044776119403" as="geometry" />
        </mxCell>
        <mxCell id="SSU8CUwgX_QRmmI8L2Xm-3" value="" style="aspect=fixed;html=1;points=[];align=center;image;fontSize=12;image=img/lib/azure2/networking/Network_Interfaces.svg;strokeWidth=2;rotation=-180;movable=1;resizable=1;rotatable=1;deletable=1;editable=1;connectable=1;direction=east;container=0;" vertex="1" parent="8lnVzVoALOnFnLTqH_IZ-24">
          <mxGeometry x="176.5" y="333" width="35.13" height="31" as="geometry" />
        </mxCell>
        <mxCell id="SSU8CUwgX_QRmmI8L2Xm-7" value=".10" style="text;html=1;strokeColor=none;fillColor=none;align=center;verticalAlign=middle;whiteSpace=wrap;rounded=0;fontSize=13;movable=1;resizable=1;rotatable=1;deletable=1;editable=1;connectable=1;direction=east;container=0;" vertex="1" parent="8lnVzVoALOnFnLTqH_IZ-24">
          <mxGeometry x="182.06000000000006" y="364" width="24" height="30" as="geometry" />
        </mxCell>
        <mxCell id="8lnVzVoALOnFnLTqH_IZ-27" value="" style="aspect=fixed;html=1;points=[];align=center;image;fontSize=12;image=img/lib/azure2/networking/Network_Interfaces.svg;strokeWidth=2;rotation=-180;movable=1;resizable=1;rotatable=1;deletable=1;editable=1;connectable=1;direction=east;container=0;" vertex="1" parent="8lnVzVoALOnFnLTqH_IZ-1">
          <mxGeometry x="563.5" y="341" width="35.13" height="31" as="geometry" />
        </mxCell>
        <mxCell id="8lnVzVoALOnFnLTqH_IZ-28" value=".4" style="text;html=1;strokeColor=none;fillColor=none;align=center;verticalAlign=middle;whiteSpace=wrap;rounded=0;fontSize=13;movable=1;resizable=1;rotatable=1;deletable=1;editable=1;connectable=1;direction=east;container=0;" vertex="1" parent="8lnVzVoALOnFnLTqH_IZ-1">
          <mxGeometry x="569.1800000000001" y="371" width="24" height="30" as="geometry" />
        </mxCell>
        <mxCell id="8lnVzVoALOnFnLTqH_IZ-29" value="" style="aspect=fixed;html=1;points=[];align=center;image;fontSize=12;image=img/lib/azure2/networking/Network_Interfaces.svg;strokeWidth=2;movable=1;resizable=1;rotatable=1;deletable=1;editable=1;connectable=1;direction=east;container=0;" vertex="1" parent="8lnVzVoALOnFnLTqH_IZ-1">
          <mxGeometry x="684.5" y="341" width="35.13" height="31" as="geometry" />
        </mxCell>
        <mxCell id="8lnVzVoALOnFnLTqH_IZ-30" value=".68" style="text;html=1;strokeColor=none;fillColor=none;align=center;verticalAlign=middle;whiteSpace=wrap;rounded=0;fontSize=13;movable=1;resizable=1;rotatable=1;deletable=1;editable=1;connectable=1;direction=east;container=0;" vertex="1" parent="8lnVzVoALOnFnLTqH_IZ-1">
          <mxGeometry x="691.0699999999999" y="371" width="24" height="30" as="geometry" />
        </mxCell>
        <mxCell id="8lnVzVoALOnFnLTqH_IZ-31" style="vsdxID=46;fillColor=none;gradientColor=none;image;aspect=fixed;image=data:image/png,iVBORw0KGgoAAAANSUhEUgAAAZAAAAGNCAYAAAA/9yeJAAAABGdBTUEAALGPC/xhBQAAACBjSFJNAAB6JgAAgIQAAPoAAACA6AAAdTAAAOpgAAA6mAAAF3CculE8AAAABmJLR0QA/wD/AP+gvaeTAAAACXBIWXMAAA7DAAAOwwHHb6hkAAAAB3RJTUUH5AQDBxsK6pjOGwAALOxJREFUeNrt3Xd4VFX+BvD3zkx6gZAOBAihJARCLwGpAQSUahd3dV1ddV37Ij8BV1FBURB3EURdEAuK0kRApAcChBJKQosEEtIhpJGeTGbu7w+BpTNzMjNnJnk/z8MTkrlzzvdcwn3n3nvuvQrk0nbv3l1TVVWlVLdooTSvrFQk10NE5DCy3NzURnl5Ri8vLzU2NrbW1v3baoOtxIwZ00nV6YZAVftCRXdVQYgCxcnWAyYiqp9UFSouqKoxSdFo9hlVdUtWdXX86Q0bqq3VozUDRIkZO/Yuo6I8oSjKA4DideUF7mcQEVmNql76ClWvAlsVVf1vXkrK2uPHj9dYsh+Lb8qjhg/38Hd3f1YFJkHRBAIMDCIiWS6HiaKgXAUW6oE5catW5VqibYtt2qOGD/fw9/R8STUap0DReDA0iIjsyx9hotaqqvpFrUbzXl2DxCKb+Zhx48YZgcWKovFhcBAR2TdVBRSoNVDV17f+/POnAAwi7dRpc99/5Eh/nYvrMkVRhjA4iIgci6oCqoLT0OvHbV+79ri57xfe7A8aP/4ujaKsg4pGDA8iIsd0+bAWVPXpbT//vMSc9wpt+gePHfuiotF8oiiMDiKi+kBVAVU1/qAWF//Z1GtKzA6AmLFjP1Q12kmMDiKi+uXS3sjuynPnhsXHx1feaXmzYmDg+PFfa6H8meFBRFQ/qSqgQk1Wi4p6xsbGlt1uWY2pjQ4YN24uw4OIqH5TFECBEq5p7LMnMjLS+XbLak1pMGbcuJc0iuZtS4bH5YtbiIjIMiy1jf6jHSXQ3df3rrPJyd8CuOkW+47dDRw/PloL7LbECfOrQ4N7MkRElnX9B/O6bmcvHc76z/bVq1+62eu3bf6ue+7xcXZxyVQAD0sMiKFBRGQbltr2qqqqAhi6bfXqbde/dttzIE7Ozr9CrXt4KArDg4jIlq7e7tbllMGlo0+/9ho/3vf6124ZIP0mTBijQOkjsuH/Yz4xg4OISLbL2+HL22XBVlw8gBXX//SmJ9HbjBzp4uvktF9R4Hznhq919V4HERHZh6u3yeZuny8t3zKkXbvt6b//nn755zfdAwlxcZ0pcuiK4UFEZL/qckhLURRFp9X+fPXPbgiQyMhIZ0VRXjA3BBgeRET27+pDWgLv9hkwZszEy9/dECB+YWHTAJj1qFmGBxGR4zE3RBQF0Gm08y5/f0OAaLXa18wJAoYHEZHjET6cpSg+g0aNGgFcFyCDRo/uAyjuooUQEZHjEAkRRQE0zi5zgOsCRNHp5orsfRARkWMS2QFQNEp499Gj3a8NEKCHLTonIiL7Ys4OgapC46nTPX8lQHrFxLQDFJ01OiMiIvslcl2IFnjqSoB4eHm9LnhxCRER1QNm7RgoSqjmf39X7rZKJ0REZPfM3iFQ4fS/AAH8rdoZERHVG4py1SwsFebf94qIiOoXc44wXQ4Q3jeXiKiBMzcFNKJvJCKihu1ygJj0bHTgf8/5ICKihu2qQ1hERESm01z3lYiIyCQMDiIiEsIAISIiIQwQIiISwgAhIiIhDBAiIhLCACEiIiEMECIiEsIAISIiIQwQIiISwgAhIiIhDBAiIhLCACEiIiEMECIiEsIAISIiIQwQIiISwgAhIiIhDBAiIhLCACEiIiEMECIiEsIAISIiIQwQIiISwgAhIiIhDBAiIhLCACEiIiEMECIiEsIAISIiIQwQIiISwgAhIiIhDBAiIhLCACEiIiEMECIiEsIAISIiITrZBZB1ebi7I9DfH+5ublABlJWXI/f8edTU1MguzS45OzsjKCAAnh4e0Gg0qKysxLm8PJRXVMguzS5pNBoEBQTA28sLzk5OqKyqwoX8fBSXlMgujWyAAVLPaLVa9OzaFQOjo9G5Y0cE+PndsIzRaMTZjAwcOHIEW3buRFp6uuyypYoMD8fgfv3QNSoKLZo1g6IoNyyTe/48DiUlYfuuXThy7JjskqUKadYMMf37o0eXLmjbujW0Wu0NyxRfvIgjx45hx5492JuQAH1treyyyQou/09xiZkwocqUN6gqcJP/XySZRqPBPcOG4ZEJE24aGrdzKCkJi7//HskpKbKHYVN9evTAEw8/jDahoWa972xGBr7+8UfE7d0rewg21SY0FE8++ih6detm1vsKioqwbNUqrPntNxiNRtnDoDswZxvPAKkHmgcHY+qrr6Jt69bCbaiqijUbNuDzr7+u958WvTw98c+//x39eveuUzv7Dx3Ch59+iuKLF2UPyaq0Wi2emjgR940eDY1G/LRpano63v/kE6RlZMgeEt2GOdv4y/ueutYREdNM7YABYj+6RUXho+nTERQQUKd2FEVBeNu26NWtG3bv24eq6mrZQ7OK5sHB+GTGDHRo377ObTULDkbMgAE4nJSEouJi2UOzCg93d3zw5psY3L//TQ/tmcOncWPcPXgwMrKykJGdLXtodBsMkAagW1QUZkyZAlcXF4u16dukCaJ79cKO3bvrXYgEBwbi3zNnwt/X12Jturu5YUj//jiYmIjCoiLZQ7QoV1dXzJk+3SJhe5lOp8OA6Ghk5ebiLPdE7Jap23hO43VQTYOC8NakSXBycrJ42yFNm+K9qVOh09WfORaurq6YOW0afBo1snjbHu7umDltGvyaNJE9TIua8vLLaBcWZvF2NRoNJr/wAjpGRMgeItURA8QBKYqCN156CR7u7lbrI7xNGzz9pz/JHqrF/P0vf0FI06ZWa9+nUSNMfeUV2cO0mHuGDUPfnj2t1r5Op8O0V16x6u8wWR8DxAHdPXgwItq1s3o/40eNMnuGkj1qFxaGkTExVu+nU4cONunH2jw9PPDXiROt3o+fr69N+iHrYYA4GEVR8Oh999mkL41Gg7888ojsIdfZxPvvr/MJYFP9+aGHHP7Q37iRI+Ht5WWTvu4ZNqzOE0BIHgaIg+nRuTOaBgXZrL/e3bujeXCw7GEL823SxKqHYq7n7+uLAdHRsoddJ/cOH26zvrRaLcaOGCF7yCSIAeJgBvTta/M+YwYMkD1sYQP69LHZ3sdlQx14fUWGh8PPgrPUTOHIv18NHQPEwXSOjLR5n927dJE9bGGdO3a0eZ9RkZEOexiri4T11cTHB6EtW8oeOglggDgQN1dXmx6+uqxNaKjNP8VbSlirVjbv09XFBS2aNZM9dCEy1hcAtLfCdGGyPgaIA5F1stHZycmiF9/ZiqIoZt8XzFKaOeh5o0B/fyn9yvhgRHXHAHEg7hLnzHt4eMgevtlcXFxueqdYW3DE9QVA2nUZjrq+GjoGiAOReVzdyQGP6cus2RHXFyDvd8zZQddXQ8cAISIiIQwQIiISwgAhIiIhDBAiIhLCACEiIiEMECIiEsIAISIiIQwQIiISwgAhIiIhDBAiIhLCACEiIiEMECIiEsIAISIiIQwQIiISwgAhIiIhDBAiIhLCACEiIiEMECIiEsIAISIiIQwQIiISwgAhIiIhDBAiIhLCACEiIiEMECIiEsIAISIiIQwQIiISwgAhIiIhDBAiIhLCACEiIiEMECIiEsIAISIiIQwQIiISwgAhIiIhDBAiIhLCACEiIiEMECIiEsIAISIiIQwQIiISwgAhIiIhDBAiIhLCACEiIiEMECIiEsIAISIiIQwQIiISwgAhIiIhDBAiIhLCACEiIiEMECIiEsIAISIiIQwQIiISwgAhIiIhDBAiIhLCACEiIiEMECIiEsIAISIiIQwQIiISwgAhIiIhDBAiIhLCACEiIiEMECIiEsIAISIiIQwQIiISwgAhIiIhDBAiIhLCACEiIiEMECIiEsIAISIiIQwQIiISwgAhIiIhDBAiIhLCACEiIiEMECIiEsIAISIiIQwQIiISwgAhIiIhDBAiIhLCACEiIiEMECIiEsIAISIiIQwQIiISwgAhIiIhDBAiIhLCACEiIiEMECIiEsIAISIiIQwQIiISwgAhIiIhDBAiIhLCACEiIiEMECIiEsIAISIiIQwQIiISwgAhIiIhDBAiIhLCACEiIiEMECIiEsIAISIiIQwQIiISwgAhIiIhDBAiIhLCACEiIiEMECIiEsIAISIiIQwQIiISwgAhIiIhDBAiIhLCACEiIiEMECIiEsIAISIiIQwQIiISwgAhIiIhDBAiIhLCACEiIiEMECIiEsIAISIiIQwQIiISwgAhIiIhDBAiIhLCACEiIiEMECIiEsIAISIiIQwQIiISwgAhIiIhDBAiIhLCACEiIiEMECIiEsIAISIiIQwQIiISwgAhIiIhDBAiIhLCACEiIiEMECIiEsIAISIiIQwQIiISwgAhIiIhDBAiIhLCACEiIiEMECIiEsIAISIiIQwQIiISwgAhIiIhDBAiIhLCACEiIiEMECIiEsIAISIiIQwQIiISwgAhIiIhDBAiIhLCACEiIiEMECIiEsIAISIiIQwQIiISwgAhIiIhDBAiIhLCACEiIiEMECIiEsIAISIiIQwQIiISwgAhIiIhDBAiIhLCACEiIiEMECIiEsIAISIiIQwQIiISwgAhIiIhDBAiIhLCACEiIiEMECIiEsIAISIiIQwQIiISwgAhIiIhDBAiIhLCACEiIiEMECIiEsIAISIiIQwQIiISwgBxJKoqsWt5fTtizY64vmTi2nJMDBAHUl1TI6/v6mrZwze/Zq4vh6m7qqpK9tBJAAPEgVwsKZHWd/HFi7KHbza9Xo9KSRsmR1xfAFBSWiql32KJv9skjgHiQM5fuIDa2lqb93uxpAQlZWWyhy8kOzdXSr8Z2dmyhy4kS9b6ysqSPXQSwABxIEajEadSU23e79GTJ2UPXVhySorN+7xQUIDzFy7IHrqQk6dOSen3WHKy7KGTAAaIg0k4fNjmfcYfOCB72MIOcH2ZJSEx0eYTAE6eOuWwh/waOgaIg9kWF2fT/+AVlZXYGR8ve9jC9h86hFIbH377bds22cMWlnfhgs33Bhx5fTV0DBAHk5Wbi32HDtmsvzUbNkg7EW0J+tparN240Wb9HUpKwqkzZ2QPu05Wrl1rs74KioqwKTZW9pBJEAPEAS1euhRGo9Hq/RQWFWHZ6tWyh1tnP61Zg4s2mF1kMBiwcMkS2cOts1379tnsXMiX334LvV4ve8gkiAHigFLT07HCBp8SP164EOUVFbKHW2dl5eVYsGiR1fv5fuVKpKanyx6uRcxduBA1Vt6wxx84gC07dsgeKtUBA8RBLf7+exyz4uyo75Yvx96EBNnDtJitcXFYv3mz1drfe/AgvvnpJ9nDtJjU9HTMt2LoZmRlYda8ebKHSXWkvfRV1zoiYpqpb1IU2WWT0WjEnv370aNrVzRp3Niiba/+9Vd8+e23sodocfsPHUJoy5Zo0by5Rds9fPQo3p41C7UGg+whWlRKaiqMqoouHTtatN3s3Fy8Pn06Z17ZMVO38QwQB1ZdU4Ptu3ahbevWaBoUVOf2DAYD/rt0KZb88IPsoVmFqqrYGR8Pby8vhLdta5E2N27bhhlz51r9cI8sSSdOoPjiRXTv3BkaTd0PWCQdP4433n0XhcXFsodGt8EAaSD0ej22xsWhoqICke3bw8nJSaidtIwMvP3hh4jdvVv2kKxKVVXsP3QIqenp6BgeDnd3d6F2ioqL8fFnn2HpypU2mdAg0+9nzmD/4cNoFxYGXx8foTaqq6vx9Y8/Yu7ChQ49q6+hMHUbf3kxl5gJE0z6V1VVBoi9atyoER4YPRp3DxmCxo0amfSeM2fPYsUvv2BrXFy93xBez9XFBfcMG4axI0eavAeXl5+PX377zeGnN4tQFAUD+/bF/WPGILxNG5PeU1Zejo3bt+Onn39GQVGR7CGQCczZxjNA6iGNRoMuHTuic2QkQlu2RJC/P9zc3KCqKsorKpCdm4vk06eRcPgwzmZmyi7XLrQPC0PXqCi0CQ1F06AgeHp4QKvRoLyyEufy8nA6NRWHkpJw/Pffeat2AM2Cg9G9c2eEt22LZsHB8PbygrOTE6qqqnChoABp6ek4cuwYDiUlQS/h/m0kjgFCRERCzNnGcxovEREJYYAQEZEQBggREQlhgBARkRAGCBERCWGAEBGREAYIEREJYYAQEZEQBggREQlhgBARkRAGCBERCWGAEBGREAYIEREJYYAQEZEQBggREQlhgBARkRAGCBERCWGAEBGREAYIEREJYYAQEZEQnewCiByZk5MTXF1coNVq4aTTQafTQVEUqKoKo9EIFYBer0dNTQ2qa2pQW1sru2Qii2GAEF1Fo9EgwM8P/n5+8Pf1hZ+vL/x8fNDI2xuNGzWCt5cXvL284O7mBnc3N2i1WrPaNxgMqKisRFl5OcrKy1FeUYHyS38vq6hAQVERLuTn//GnoAD5hYUwGAyyVwvRTTFAqEHy9PBAy5AQtAoJQcuQEDRv2hTNgoIQ6O8Pnc56/y20Wi28PD3h5elp0vKqqqKwuBgX8vORlZOD9KwspGdlISMzEznnz8NoNMpeldSAMUCo3vP08EBEu3ZoFxaGtq1bo23r1gj095ddlkkURYGvjw98fXwQ3rbtNa/V6PV/hEpmJk6dOYOTp07hVGoqampqZJdNDYRy6atLzIQJVaa8QVUBRTFlSSI5Avz80KVTJ3QKD0eH8HC0aNYMSgP5pTUYDEhNT8fJU6eu/MnKzZVdFjkQc7bxDBByeB7u7ugWFYUeXbqga6dOaBoUJLsku5KXn4+DiYk4mJiIQ0lJKCktlV0S2TEGCNV7wYGB6B8djT7duiEyPNzsk9kNlaqqOJ2WhoOJidh/6BCOJSfzPApdgwFC9VJQQAAG9O2LQX37ol1YmOxy6oWiixexe98+7IyPx5FjxxgmxACh+iPQ3x8D+/XDwOhotG/TRnY59VpJaSl279+PuL17kXDkCMOkgWKAkEPT6XTo16sXRg0dim5RUQ3mBLg9KSouxqbYWPy2bRsys7Nll0M2xAAhh9QsOBijhg7F3YMHo3GjRrLLoUuOJydjw9atiN2zB1VVJm0myIExQMhhaDQaDIiOxr3Dh6NLx46yy6HbqKysxLZdu7By3TpkZGXJLoeshAFCds/Z2RkjhgzBA2PGIDgwUHY5ZAZVVXHg8GGsWLsWh5KSZJdDFsYAIbvl5emJsSNGYPw996CRt7fscqiOUs+exYq1a7Ft1y7eKLKeYICQ3fFr0gQPjh2LkUOHws3VVXY5ZGEFRUX4YeVKrN+8GXoGiUNjgJDd8Pb0xCMTJmDsyJFwdnaWXQ5Z2YWCAixdsQIbtm7lXYQdFAOEpHN1ccGEe+/Fg2PHwtPDQ3Y5ZGPn8vLw3fLl2BQby+tJHAwDhKTRarW4Z+hQPPbAA2ji4yO7HJIsOzcXn3/zDfbs3y+7FDIRA4Sk6NO9O/7+5JO8mSHd4FBSEhYsXoyzmZmyS6E7YICQTQX6++P5v/4VfXv2lF0K2TGDwYB1mzZhybJlKC0rk10O3QIDhGxCp9PhwbFjMfG+++Di4iK7HHIQJaWlWLJsGdZu3AhVVWWXQ9dhgJDVdYuKwgtPP42Qpk1ll0IO6sSpU5g9fz6varczDBCyGg93d7zw1FMYOnCg7FKkKCktRWFREYovXkRJWRnKystRWlaG6upqVNXUoLq6GrW1tTAajVBVFaqqQqfTQafTwUmng6ur65Vnont5eFz5eyNv7wZ5/68avR7fLV+OZatXc7aWnWCAkFV079wZ/3z+efj7+souxWqMRiNyz59HWkYG0jMzkZuXh3Pnz+NcXh4KCgutepGci7MzAv39ERQYiKDLXwMC0DIkBM2Dg+v1Q7NOp6Vh9vz5OJ2WJruUBo8BQhbl6uKCp//8Z4wdMUJ2KRZVVV2N5JQUnE5Lw9mMDKSlp+NsZiaqa2pkl3YDZ2dnhIaEICw0FGGtWiGsVSu0ad0arvXo3JPBYMCPP/+MJcuWcW9EIgYIWUyH9u0x+YUX0Cw4WHYpdVZSWopjyck4euIEjp08iVOpqQ59tbRWq0X7sDBERUYiqkMHdIyIgLubm+yy6uzkqVOYMXcuzuXlyS6lQWKAUJ1pNBo8/tBDeGTCBGg0GtnlCDEYDDiWnIz4Awdw4MgRpNfzaxA0Gg3ahIaia6dO6NuzJyLatXPYf7uy8nLMXbgQO/bskV1Kg8MAoTpp7O2Nqa++iq6dOskuxWxl5eU4cPgw9iYkYN+hQygrL5ddkjSNvb3Rp2dP9O3ZE92johxyqvWvW7Zg/qJFdnlYsb5igJCwjuHhmPbaa/Br0kR2KSarrq7Grn37sHnHDhw+etShD0tZi7OzM3p17Yphgwahd7du0Ol0sksyWXpmJqbPns3pvjbCACEh948Zg6cfe8whZvuoqoqjJ05gU2wsdsbHo6KyUnZJDsPbywsx/ftj+ODBaNu6texyTFJRWYn3P/kE8QkJskup9xggZBZ3NzdM+sc/0L9PH9ml3FFhURHWbdqETbGxPMlqAa1CQjBy6FCMGDIEHu7ussu5LVVV8dUPP+D7lStll1KvMUDIZIH+/pg5bRpaNm8uu5TbSklNxap167B9924++c4K3FxdMWLIEIy/5x67vxlm7O7d+OjTT3lexEoYIGSS8LZt8e4bb8DHTq+ANhqNiD9wACvXrUPSiROyy2kQFEVBn+7dcd+996KLHU+iSElNxVuzZiEvP192KfUOA4TuqH+fPvi/F1+0y5k5BoMBW+Pi8N3y5cg5d052OQ1W+zZt8PjDD6NX166yS7mpwqIi/N+77yI1PV12KfUKA4Ru66Fx4/DUY49BsbN/SKPRiB179uDrH39EVk6O7HLokg7t2uHxhx9G986dZZdyg7Lycrz5wQc4yj1Ui2GA0E1pNBq8/MwzGDV0qOxSrqGqKuL27sU3P/7IBw7ZsY7h4Xji4Yft7tBWTU0N3ps7l089tBAGCN1Ap9PhzVdfRb/evWWXco3jycn4dNEipKSmyi6FTBTdowee+8tf7Opku8FgwCeff44NW7fKLsXhmbONvzzhX9c6ImKaqR0wQByLs7Mz3pk8GX169JBdyhUFRUX49xdfYMFXX6GwqEh2OWSGrJwcrN20CZVVVejQrh2cnJxklwSNRoO+PXtCX1uLYydPyi7H4TFACADg6uqKmVOnoltUlOxSAAB6vR4r1q7FO7Nn49SZM7LLIUFGoxHHk5Oxcds2eHt7I6xVK7s4p9YtKgq1BgOOMkTqhAFC8HB3x4f/+hc6RkTILgUAcDAxEdNmzkQsr+WoNyqrqrBn/34cPnoUHcPD4e3lJbskdO3UCTV6PY4lJ8suxWExQBq4Rt7e+Ojtt9G+TRvZpaCyshKfLlqEBV99hZKyMtnlkBXk5efj161b4ezsjIi2baXvjXSLikJlVRVO/P677FXjkHgSvQHz9PDA3PfeQ2iLFrJLweGjRzF7/nycv3BBdilkIxFt2+Kf//iHXdzdYMHixVi1fr1V+9BoNPD39UVQYCCCAwLg7+eHRl5e8L70x9PDA05OTlcea6woCi6WlqKoqAiFxcUoLCpCVm4usrKzkZWbi/KKCqnrjLOwrMDTwwMBfn5o3KgRvDw94e3lBTdXV7i4uMDVxQW6S78YGkWBCqBWr4e+thbVNTUoKCxEfmHhla+lVvwU7urqio/eegsR7dpJXV+VVVX48ptv8MvGjVLrIDmcdDo88cgjeHDsWOl7I//58kv88ttvFmnL1cUFEe3aISw0FG1atULrVq3Qsnlzi96ANL+wEKfOnEFySgp+P30aySkpNg0VBogg3yZNENaqFVq1aIEgf38EXvoT4O9v0Se91dTUIL+wENm5ucjKzUV2Ts4fX3Nzcf7CBeHHeTrpdJg5bZr053gknz6NGR9/jNzz56XWQfL17NIFk198EY0l3i5HVVW8O2cOdsbHm/1enU6HqA4d0LVTJ3Tu2BHtWre2+a3wDQYDTp05g4OJiTiYlITjyclWfeQvA8QEQQEBiAwPR5tWra48Z7qRt7fssqDX65GRnY3Tqak4ffYszqSl4czZs3f8BKLRaPDWpEno16uX1Pp//vVXLPz6a54kpyt8fXww5ZVX0DkyUloNNXo9Xp8+3aQpvq6urujdrRv69eqF3t27291diktKS7F7/37s3LMHh6zw/BsGyE0E+vujc8eO6BwZiS4dOyLQ3192SWY5l5eH30+fxrHkZBxPTsbptLRrPoX834svYujAgdLqq6isxOz584U+5VH9p9Fo8KcHHsDE+++X9pjd0rIyvDRlCjKys2/6esfwcIyIicHAvn3h5uoqc3WZrKS0FFvj4vDr5s1Iy8iwSJsMEPzxC9spIgJ39emD6B49EBQQILski6qqrkZySgpO/P47/Hx9MXzQIGm1nDl7Fu/Mno3s3FzZq4XsXLeoKLz52mvw8vSU0v/5vDy88MYbKCwuBgC4ODtjZEwMxo4ciZBmzWSvnjpJTknBL7/9hq1xcXXaK2mwAeLk5ITuUVFXQsMeDknVd1t27sScBQug1+tll0IOonlwMN6bMgXNmzaV0n9Kaiqmf/QRhg8ahLGjRqGRHVy7Ykn5BQVYuW4d1m/eLPSkzgYXIO3DwjBy6FAMvusuuzteWZ8tWbYM3y1fLrsMckCeHh54a9Ik6RM+6rOy8nL8tGYNVq1bh6rqapPf1yACxNvTE0MHDsSImBi0btlSdjkNSo1ej9nz52NbXJzsUsiBaTQavPDUUxh9992yS6nXioqLsXTFCqzdtMmkQ1v1OkBat2yJB8eNw8DoaLu4iVtDc7GkBP+aNQvHeZsIspD7R4/GM48/Lv16kfouIysL8/77Xxw+evS2y9XLAOkWFYWHxo2zy4faNBSZ2dmYMmMGr+8gi7t78GC8+txzFr0gj24udvdufPbVVyi4xV2w602AKIqCwXfdhQfHjkWb0FDbdEo3lXr2LF6fPh3FJSWyS6F6qn+fPpjy8ss8smADZeXl+HTRImzZseOG1+pFgET36IEnJ060i/s5NXTJp0/jjXffteotWIgAoEeXLnj79dfh6uIiu5QGYfe+fZi7cOE1HwwdOkCiOnTAXx97DJHt21uvEzLZ0RMnMHXmTKHpgEQiIsPDMXPqVM6otJGCoiK89/HHV54r75BPJGzRrBkmv/QSnnz0UQT4+Vl7nZEJDiYmYurMmWZNASSqqwv5+Th28iQG3XWXze871RC5u7lh2MCB0Ov1VybHOEyAuLq44IlHHsHkF190+CtB65P9hw/jX++/jxpeIEgS5OXnIzklBQP79eOJdRvQaDTo3rkzQlu2xK59+6Gqpt2sUWqA9OvVCzOmTkXv7t2l3R+HbnT05Em8OXMmw4Okyj1/Hmnp6RgQHc3tg420bN4cWo32jlN9L5PyrxLg74+ZU6di+uTJPFxlZ06npWHazJmorqmRXQoR9hw4gFnz5ln19uV0rWbBQSYva/MDjMMHD8bzTz7JE2R2KDMnB//3zjvSn4hGdLVtcXHwdHfHi3/7m+xS6Do2C5DG3t545bnnpD+vgm4uLz8fk3mdB9mpXzZuRLOmTXHfvffKLoWuYpMA6durF1599lmpTyWjWystK8Pkd95BXn6+7FKIbmnhkiVoGhSE6B49ZJdCl1j1HIhWq8U//vpXvDN5MsPDThkMBrwzezYyb/GQHSJ7oaoqZsydi9SzZ2WXQpdYbQ/Er0kT/GvSJHRo1072GOk25i9aZPKMCyLZqqqqMHXmTMyfNQtNfHxkl3OD6upqnM3MxPkLF5CXn4/8ggIUXbyImpoaVFVXo0avh5uLC7y9vdHIywtNGjdGi+bN0SokBAH+/g53Q0mrBEjXTp0w9ZVX6u1eh6qqKK+oQElpKUrLylBaVobyigoYjUYYjUaoqgqjqgL449yPn68v/H19pT2F7VbWbNiAXzZulF0GkVkuFBTgrVmzMPe996RfaHguLw8JR47g6IkTSElLQ1ZOjvCMMVdXV0S0bYsuHTuiS6dOCG/Txu6vgbH42n9o3Dg8+eijdj/wOzEajcjMycHZjAzknDuHnHPnkHv+PHLOn0d+QYHQL4mLszP8fH3h16QJgoOCENK0KUKaNUOrkBAEBwba9NPHwcREzF+82JarlMhiTqak4ItvvsHfn3zS5n2npKZiy44diE9IQM65cxZrt6qqCoePHv3jiMAPP8Db0xP9o6MxpH9/dIqIsMtrYSwWIBqNBq8+9xxGDBkie0xC8vLzkXTiBE6dPo1Tqak4nZaGqiqTbg9msuqaGmTn5iI7NxeJx49f85q7mxvCQkPRPiwMkeHh6BgeDp/Gja0y1szsbLwzezbn1pNDW7V+PTpHRqJf795W76u0rAzrN2/Gpu3bkWGj84Ull/pcv3kzAvz8MH7UKIwcOhSeHh426d8UFrmZorubG96aNMmhntVRVl6OxGPHcDApCYcSE5GVmyu7pBs0Dw5Gjy5d0KNrV3SOjISbq2ud2ywqLsYLb7yBc3l5sodHVGce7u74fM4cBAUEWKX9c3l5WLl2LTZs3WoX94Rzc3XFPcOG4ZEJE9DI29sqfezYswfvzplj0rJ1DhB/X1/MmDrVIR4rW1Jail379iF2924cOXbMoT6BOzs7o2eXLhgQHY3onj3h7uZmdhuVlZV45c03cTotTfZwiCymfVgYPpkxw6LPEblYWorvfvoJv2zcaNJjYG3Nw90dD40bh/vuvRcuFr71vc0CJLRFC7z/5pvwa9LEZivOXNXV1Yjdswexu3bhYFKSQ4XGrTg7O6N/nz4YGRODzpGRJp07MRgMmDpzJhKOHJFdPpHFjRkxAi8+/XSd2zEYDFi1bh2+W7HCIe7IEODvj9eee86iR3+279qFGXPnmrTs5S2Pc8yECSbtn10OkDahoZj11lto5OVl85VmioysLKzdtAmbtm93iF8EUcGBgYgZMADDBg5Es+DgWy734bx52BQbK7tcIqt5+ZlncO/w4cLvT8/MxIfz5uH3M2dkD8VsI2Ni8Mzjj1vk/MiGLVsw57PPTFr2coBoYyZMqDXlDaoKRLRriw/efNOuTub8UZuK+IQErFy79oaT1A1BRNu2GDpoEAb163dNsC9auhQ/rFoluzwiq9JoNPjwX/9Cl06dzHqf0WjET2vW4Otly6CvNWkzaJeCAwPx9uuvI6xVqzq1s2LtWixcssSkZS8HiBIzYYLJx3aWffmlXR22MhqN2LFnD75fuRJpGRmyy5FOq9WiV9euGDZoEPILC7GA03WpgfDy9MSnH3xw273xq+WcO4dZ8+ZdeZCSo3N2dsbLzzyD4YMGCbcxf9EirP71V5OWvTyNV1VVVVVMvBChsKjILgLEaDRi686dWLpihV3OopLFYDAgPiEB8QkJskshsqnSsjJMe/99zHv//TseIVm/eTM+W7LE4tP1ZaqpqcGH8+YhKycHTz76qFAb6VlZJi975ToQRVFU/G+P5LZOnTmDdmFhUlfUkWPHsHDJEs4oIqJrZGZn472PP8aMKVNuekFzUXEx5ixYgL0HD8ou1Wq+X7kSF0tK8NLf/mbWBYhGoxEpqakmL39l7bYOD58MRTFpHpybmxsGREdLWTGZOTmYM38+Fi1disLiYik1EJF9yzl3DuXl5ejVrds1P4/buxdvvPcezjSAGzKmpKYiMycHd/XubfJdLlJSU7F6/XqT+7iyB6ICWQpg0p0PDyYmora21qb3odHr9Vi6ciV+WLXKLudlE5F9Wf3rr2gZEoJ7hw9HeUUFPv3vf7F5xw7ZZdlU7O7d8HB3xyvPPmvS8nv27ze5bScnJ/XKHkiriIhgRVH6m/LG6poatG/bFiFNm9pkJZw4dQpTZsxA3N69UC/dpJCI6E4OHDkCV2dnfPjppzh68qTscqRISU1FdU3NHa8VUVUVH82fb/JlD21atTJeCRCf0NCjrjrdP009kV5ZVYUh/U3KG2HV1dX4/Jtv8MnChbjIJ+URkZlUVcXBxMR6fS2YKY4nJyMwIABtQkNvuczehASs27TJ5DbDQkPPXzm7cnjDhgsAakx9896EBKtOmU3PzMTzkydj9fr13OsgIqqjTz7/HL+fPn3L179dvtys9pycnD6/5vS8Amwxp4HFS5daZaAbtm7F319/HWczM63SPhFRQ6PX6/H2hx+irLz8hte279qFU2ZcgR8cGKi+M3ny9GsCpMJgeBmAyR/34xMSLDoVrqq6GjM/+QRzFixAdY3JO0NERGSCCwUFmPfll9f8rKy8HAu++sqsdkKaNs0Ernsm+p41a8717t7drONFcy10fiK/oACvTJuGbXFxVlp1RES0NS4OO+Pjr3w/Z8ECFJlxSYRWq1UNRuNTwHUBoihK2d2DB5t1TX9BYSE++Pe/6zS19tSZM3h+8mSzLmAhIiIx//niC5SVl2P5L78gbu9es94b1aFD5YdvvbUZuC5AAGBAdPSTUR06mNXggSNH8J/rdotMtTM+Hi9Pm4aCoiKbrTwiooasuKQEM+bOxedff23W+zQajRrStOkrV76/fgFFUfYNHTjwmLkFrd+8GfMXLzZrxtSGrVvx7pw5qOH5DiIim1FV4MDhw2a/LyqiQ8VLzzzzxeXvb3qTlFFDh97Tt3dvs+fOrl6/HjPmzkW1CY9+XLV+PeYsWMApukRENnSzx5KbwtPDQ23RvNnoq3920wBRFCVj1ODB81wFHpUYu3s3np88Gem3mYK7dMUK3mKciMiGVFU8PACgb69eJ1565pntV//slk2pqqpd9N13uT+sXu0v0plOp8MDY8Zg4v334+og+n7lSiz+/nspK5CIqKG5+iCPaHh0aN++9j8zZ3ooinLN+YZb3g1RURSDqqpdUjMyMvcdPGj6/YAvqa2txQ+rVmHDli24b/RojL77bmyLi2N4EBHZgCWCAwB8fXzU7lFR464PD8CE53/E7dv3yMKvvlp6Li+vDiX88ZQ8g8FwZVB1GRAREd3o+lPKdd3OXjqS9P1Tjz028Wavm9T8qvXr3/9u+fLJF0tKLLbZ57lzIiLLs9SHc0VR8MCYMQefefzxHrdcxtTGlq1evfTb5csfrU+PfyQiopu7f/TojGefeKLVpafV3pTJ5zYeHj9+4vhRo7739PDgvgMRUT2lKAoeGjcu+9knnmh/u/AAzNgDuWzp8uUfrdm48bWCwkKexSAiqkecnJzUPz3wwLFH77uvm6IotXda3uzZVRMfeGDSsIEDJ7Zv08Yoe7BERGQhKmofHDv2q0fvu6+zKeEBCOyBXJaYmBjwy5Ytx2J37xa6ToSIiOyDqqo5peXlfQ5s2mTWQ5jqfBhq7mefLUw6efJvGVlZPKRFRORYDEaDOn/7mtUvibzZIhv9zZs3N9qblLT7YGJih9KyMgYJEZEdU/+4CeEBpaRkzNatW8+LtmPRjf3bH3zQYse+fXM1ijIWgFb2SiIiov9RVVVVgH1VtbVP7V679nhd2/t/+E3n30LBQTEAAAAldEVYdGRhdGU6Y3JlYXRlADIwMjAtMDQtMDNUMDc6Mjc6MTArMDA6MDDHVXucAAAAJXRFWHRkYXRlOm1vZGlmeQAyMDIwLTA0LTAzVDA3OjI3OjEwKzAwOjAwtgjDIAAAAABJRU5ErkJggg==;strokeWidth=102;spacingTop=-3;spacingBottom=-3;spacingLeft=-3;spacingRight=-3;labelBackgroundColor=none;rounded=0;html=1;whiteSpace=wrap;movable=1;resizable=1;rotatable=1;deletable=1;editable=1;connectable=1;direction=east;container=0;" vertex="1" parent="8lnVzVoALOnFnLTqH_IZ-1">
          <mxGeometry x="593.1800000000001" y="309" width="95" height="95" as="geometry" />
        </mxCell>
        <mxCell id="8lnVzVoALOnFnLTqH_IZ-32" style="vsdxID=156;edgeStyle=orthogonalEdgeStyle;startArrow=none;endArrow=none;startSize=5;endSize=5;strokeColor=#000000;spacingTop=-3;spacingBottom=-3;spacingLeft=-3;spacingRight=-3;verticalAlign=middle;html=1;labelBackgroundColor=none;rounded=1;curved=1;exitX=0.977;exitY=0.538;exitDx=0;exitDy=0;exitPerimeter=0;strokeWidth=2;" edge="1" parent="8lnVzVoALOnFnLTqH_IZ-1" source="8lnVzVoALOnFnLTqH_IZ-11" target="8lnVzVoALOnFnLTqH_IZ-27">
          <mxGeometry relative="1" as="geometry">
            <Array as="points">
              <mxPoint x="363.5" y="327" />
              <mxPoint x="463.5" y="327" />
              <mxPoint x="463.5" y="356" />
            </Array>
            <mxPoint x="273.5" y="266.5000000000001" as="sourcePoint" />
            <mxPoint x="427.5" y="344" as="targetPoint" />
          </mxGeometry>
        </mxCell>
        <mxCell id="8lnVzVoALOnFnLTqH_IZ-33" value="" style="shape=image;aspect=fixed;image=data:image/svg+xml,PHN2ZyB3aWR0aD0iNDkiIGhlaWdodD0iNDkiIHhtbG5zPSJodHRwOi8vd3d3LnczLm9yZy8yMDAwL3N2ZyIgeG1sbnM6eGxpbms9Imh0dHA6Ly93d3cudzMub3JnLzE5OTkveGxpbmsiIHhtbDpzcGFjZT0icHJlc2VydmUiIG92ZXJmbG93PSJoaWRkZW4iPjxkZWZzPjxjbGlwUGF0aCBpZD0iY2xpcDAiPjxyZWN0IHg9IjIyNSIgeT0iNDgxIiB3aWR0aD0iNDkiIGhlaWdodD0iNDkiLz48L2NsaXBQYXRoPjxjbGlwUGF0aCBpZD0iY2xpcDEiPjxyZWN0IHg9IjIyNiIgeT0iNDgyIiB3aWR0aD0iNDgiIGhlaWdodD0iNDgiLz48L2NsaXBQYXRoPjxjbGlwUGF0aCBpZD0iY2xpcDIiPjxyZWN0IHg9IjIyNiIgeT0iNDgyIiB3aWR0aD0iNDgiIGhlaWdodD0iNDgiLz48L2NsaXBQYXRoPjxjbGlwUGF0aCBpZD0iY2xpcDMiPjxyZWN0IHg9IjIyNiIgeT0iNDgyIiB3aWR0aD0iNDgiIGhlaWdodD0iNDgiLz48L2NsaXBQYXRoPjwvZGVmcz48ZyBjbGlwLXBhdGg9InVybCgjY2xpcDApIiB0cmFuc2Zvcm09InRyYW5zbGF0ZSgtMjI1IC00ODEpIj48ZyBjbGlwLXBhdGg9InVybCgjY2xpcDEpIj48ZyBjbGlwLXBhdGg9InVybCgjY2xpcDIpIj48ZyBjbGlwLXBhdGg9InVybCgjY2xpcDMpIj48cGF0aCBkPSJNMjQ5Ljg4IDUwMS4yNUMyNDUuMzYgNTAxLjI1IDI0MS4xMTMgNTAwLjY2IDIzNy45MjMgNDk5LjU4NSAyMzMuNSA0OTguMDk1IDIzMi41OCA0OTYuMTk1IDIzMi41OCA0OTQuODY1IDIzMi41OCA0OTMuNTM1IDIzMy41MjcgNDkxLjYwMyAyMzguMDQgNDkwLjExNSAyNDEuMjE3IDQ4OS4wNjggMjQ1LjQyMyA0ODguNDg3IDI0OS44OCA0ODguNDg3IDI1NC4zMzcgNDg4LjQ4NyAyNTguNTQgNDg5LjA2NSAyNjEuNzE3IDQ5MC4xMTUgMjY2LjIxNyA0OTEuNjE1IDI2Ny4xNzcgNDkzLjUyNSAyNjcuMTc3IDQ5NC44NjUgMjY3LjE3NyA0OTYuMjA1IDI2Ni4yNSA0OTguMDkyIDI2MS44MzUgNDk5LjU4MiAyNTguNjQzIDUwMC42NTggMjU0LjM5NyA1MDEuMjUgMjQ5Ljg4IDUwMS4yNVpNMjQ5Ljg4IDQ5MC40ODVDMjQ1LjYzIDQ5MC40ODUgMjQxLjY0OCA0OTEuMDI3IDIzOC42NjcgNDkyLjAxMyAyMzUuNjg4IDQ5Mi45OTcgMjM0LjU4IDQ5NC4xNyAyMzQuNTggNDk0Ljg2NSAyMzQuNTggNDk1LjU2IDIzNS42MjIgNDk2LjY5NSAyMzguNTYgNDk3LjY4NSAyNDEuNTYgNDk4LjY4NSAyNDUuNTYgNDk5LjI0NyAyNDkuODggNDk5LjI0NyAyNTQuMiA0OTkuMjQ3IDI1OC4yMDUgNDk4LjY5MyAyNjEuMTk1IDQ5Ny42ODUgMjY0LjEzNSA0OTYuNjg1IDI2NS4xNzcgNDk1LjU0NyAyNjUuMTc3IDQ5NC44NjUgMjY1LjE3NyA0OTMuMDggMjU5LjIxNyA0OTAuNDgzIDI0OS44OCA0OTAuNDgzWiIgZmlsbD0iIzAwMDAwMCIgZmlsbC1ydWxlPSJub256ZXJvIiBmaWxsLW9wYWNpdHk9IjEiLz48cGF0aCBkPSJNMjQxIDUwOC4zMjNDMjQwLjA1MyA1MDguMTA1IDIzOC45MyA1MDcuNzgzIDIzOC4xMiA1MDcuNTA1IDIzMy41NDIgNTA1LjkzOCAyMzIuNTggNTAzLjkyNyAyMzIuNTggNTAyLjUwNUwyMzIuNTggNDk0LjU3OCAyMzQuNTggNDk0LjU3OEMyMzQuNTggNDk1LjU3OCAyMzYuMTEgNDk2LjczIDIzOC41OCA0OTcuNjA1IDI0MS41OCA0OTguNjY1IDI0NS41OCA0OTkuMjQ3IDI0OS44ODUgNDk5LjI0NyAyNTQuMTkgNDk5LjI0NyAyNTguMTk4IDQ5OC42NjUgMjYxLjE4NSA0OTcuNjA1IDI2My42NSA0OTYuNzMgMjY1LjE4NSA0OTUuNTcgMjY1LjE4NSA0OTQuNTc4TDI2Ny4xODUgNDk0LjU3OCAyNjcuMTg1IDUwMi41MTdDMjY3LjE4NSA1MDMuOTI3IDI2Ni4yMjMgNTA1Ljk0IDI2MS42NDMgNTA3LjUxNyAyNjAuODkzIDUwNy43NjcgMjU5Ljg2MiA1MDguMDE3IDI1OS4wMDggNTA4LjIyM0wyNTkuMDA4IDUwNi4xNThDMjU5LjY4MSA1MDYuMDExIDI2MC4zNDYgNTA1LjgzIDI2MSA1MDUuNjEyIDI2My41ODUgNTA0LjczIDI2NS4xOSA1MDMuNTQzIDI2NS4xOSA1MDIuNTE3TDI2NS4xOSA0OTcuODM1QzI2NC4xNjEgNDk4LjU0NiAyNjMuMDM3IDQ5OS4xMDYgMjYxLjg1IDQ5OS41IDI1OC42NTIgNTAwLjYzMyAyNTQuNDAyIDUwMS4yNSAyNDkuODggNTAxLjI1IDI0NS4zNTcgNTAxLjI1IDI0MS4xMDIgNTAwLjYyNSAyMzcuOTA1IDQ5OS41IDIzNi43MjQgNDk5LjEwOCAyMzUuNjA0IDQ5OC41NTEgMjM0LjU4IDQ5Ny44NDVMMjM0LjU4IDUwMi41MTdDMjM0LjU4IDUwMy41NDMgMjM2LjE4NSA1MDQuNzMgMjM4Ljc2OCA1MDUuNjEyIDIzOS40OTkgNTA1Ljg2OCAyNDAuMjQ0IDUwNi4wODEgMjQxIDUwNi4yNVoiIGZpbGw9IiMwMDAwMDAiIGZpbGwtcnVsZT0ibm9uemVybyIgZmlsbC1vcGFjaXR5PSIxIi8+PHBhdGggZD0iTTI0MSA1MTYuMkMyNDAuMDUgNTE1Ljk4NSAyMzguOTM1IDUxNS43IDIzOC4xMiA1MTUuNDEyIDIzMy41NDIgNTEzLjg0NyAyMzIuNTggNTExLjgzNyAyMzIuNTggNTEwLjQxM0wyMzIuNTggNTAyLjQ4NSAyMzQuNTggNTAyLjQ4NUMyMzQuNTggNTAzLjQ4NSAyMzYuMTEgNTA0LjYzOCAyMzguNTggNTA1LjUxMyAyMzkuMzcgNTA1LjgxMSAyNDAuMTc4IDUwNi4wNTcgMjQxIDUwNi4yNUwyNDEgNTA4LjMyNUMyMzkuOTUyIDUwOC4wNzQgMjM4LjkxOSA1MDcuNzY1IDIzNy45MDUgNTA3LjQgMjM2LjcyNCA1MDcuMDExIDIzNS42MDQgNTA2LjQ1NSAyMzQuNTggNTA1Ljc1TDIzNC41OCA1MTAuNDI1QzIzNC41OCA1MTEuNDUgMjM2LjE4NSA1MTIuNjM4IDIzOC43NjggNTEzLjUyIDIzOS40OTggNTEzLjc3NyAyNDAuMjQ0IDUxMy45ODkgMjQxIDUxNC4xNTVaIiBmaWxsPSIjMDAwMDAwIiBmaWxsLXJ1bGU9Im5vbnplcm8iIGZpbGwtb3BhY2l0eT0iMSIvPjxwYXRoIGQ9Ik0yNTkgNTE2LjExNyAyNTkgNTE0LjA2QzI1OS42NzEgNTEzLjkxNiAyNjAuMzMzIDUxMy43MzYgMjYwLjk4NSA1MTMuNTIgMjYzLjU3MyA1MTIuNjM4IDI2NS4xNzcgNTExLjQ1MyAyNjUuMTc3IDUxMC40MjVMMjY1LjE3NyA1MDUuNzVDMjY0LjE1MiA1MDYuNDU2IDI2My4wMzIgNTA3LjAxMyAyNjEuODUgNTA3LjQwNSAyNjEuMDQ3IDUwNy42OSAyNTkuOTQzIDUwNy45OTUgMjU5IDUwOC4yMTdMMjU5IDUwNi4xNThDMjU5LjczOSA1MDUuOTg3IDI2MC40NjcgNTA1Ljc3MSAyNjEuMTggNTA1LjUxMyAyNjMuNjQ1IDUwNC42MzggMjY1LjE4IDUwMy40NzggMjY1LjE4IDUwMi40ODVMMjY3LjE4IDUwMi40ODUgMjY3LjE4IDUxMC40MjVDMjY3LjE4IDUxMS44MzcgMjY2LjIxNyA1MTMuODQ3IDI2MS42MzggNTE1LjQyNSAyNjAuOSA1MTUuNjY1IDI1OS44NTUgNTE1LjkxNSAyNTkgNTE2LjExN1oiIGZpbGw9IiMwMDAwMDAiIGZpbGwtcnVsZT0ibm9uemVybyIgZmlsbC1vcGFjaXR5PSIxIi8+PHBhdGggZD0iTTI0OS44OCA1MjVDMjQ1LjQ2NSA1MjUgMjQxLjI4OCA1MjQuNDAzIDIzOC4xMyA1MjMuMzE1IDIzMy41NDIgNTIxLjc1IDIzMi41OCA1MTkuNzUgMjMyLjU4IDUxOC4zMjhMMjMyLjU4IDUxMC4zODggMjM0LjU4IDUxMC4zODhDMjM0LjU4IDUxMS4zODggMjM2LjExIDUxMi41NCAyMzguNTggNTEzLjQxNSAyMzkuMzcgNTEzLjcxOSAyNDAuMTgxIDUxMy45NyAyNDEuMDA1IDUxNC4xNjVMMjQxLjAwNSA1MTYuMjFDMjM5Ljk1OCA1MTUuOTY3IDIzOC45MjQgNTE1LjY2NiAyMzcuOTEgNTE1LjMxIDIzNi43MjkgNTE0LjkxOSAyMzUuNjEgNTE0LjM2MyAyMzQuNTg1IDUxMy42NTdMMjM0LjU4NSA1MTguMzM4QzIzNC41ODUgNTE5LjM2NSAyMzYuMTkgNTIwLjU1IDIzOC43NzMgNTIxLjQzMiAyNDEuNzMyIDUyMi40NCAyNDUuNjggNTIzIDI0OS44OCA1MjMgMjU0LjA4IDUyMyAyNTguMDI1IDUyMi40NCAyNjAuOTg3IDUyMS40MjIgMjYzLjU3MyA1MjAuNTQgMjY1LjE3NyA1MTkuMzU1IDI2NS4xNzcgNTE4LjMyOEwyNjUuMTc3IDUxMy42NDVDMjY0LjE1MyA1MTQuMzUyIDI2My4wMzIgNTE0LjkwOSAyNjEuODUgNTE1LjMgMjYxLjA1IDUxNS41ODUgMjU5LjkzOCA1MTUuODk1IDI1OSA1MTYuMTE3TDI1OSA1MTQuMDZDMjU5LjczOSA1MTMuODg5IDI2MC40NjcgNTEzLjY3NCAyNjEuMTggNTEzLjQxNSAyNjMuNjQ1IDUxMi41NCAyNjUuMTggNTExLjM4IDI2NS4xOCA1MTAuMzg4TDI2Ny4xOCA1MTAuMzg4IDI2Ny4xOCA1MTguMzI4QzI2Ny4xOCA1MTkuNzQgMjY2LjIxNyA1MjEuNzUgMjYxLjYzOCA1MjMuMzE1IDI1OC40NyA1MjQuNDAzIDI1NC4yOTUgNTI1IDI0OS44OCA1MjVaIiBmaWxsPSIjMDAwMDAwIiBmaWxsLXJ1bGU9Im5vbnplcm8iIGZpbGwtb3BhY2l0eT0iMSIvPjxwYXRoIGQ9Ik0yNDMuODcyIDUwNS44NTggMjQzLjg3MiA1MTMuM0MyNDMuODcyIDUxNi42MSAyNDguODE1IDUxOS43MDggMjQ5Ljk0NyA1MTkuNzA4IDI1MS4xODUgNTE5LjcwOCAyNTYuMTI4IDUxNi42MSAyNTYuMTI4IDUxMy4zTDI1Ni4xMjggNTA1Ljg1OEMyNTIuMjAxIDUwNC4yNTYgMjQ3LjgwNCA1MDQuMjU2IDI0My44NzggNTA1Ljg1OFoiIGZpbGw9IiM5MTY0Q0MiIGZpbGwtcnVsZT0ibm9uemVybyIgZmlsbC1vcGFjaXR5PSIxIi8+PC9nPjwvZz48L2c+PC9nPjwvc3ZnPg==;" vertex="1" parent="8lnVzVoALOnFnLTqH_IZ-1">
          <mxGeometry x="330" y="10" width="100" height="100" as="geometry" />
        </mxCell>
        <mxCell id="8lnVzVoALOnFnLTqH_IZ-34" value="FortiClient EMS/Cloud" style="text;html=1;strokeColor=none;fillColor=none;align=center;verticalAlign=middle;whiteSpace=wrap;rounded=0;" vertex="1" parent="8lnVzVoALOnFnLTqH_IZ-1">
          <mxGeometry x="270" y="45.000000000000114" width="60" height="30" as="geometry" />
        </mxCell>
        <mxCell id="8lnVzVoALOnFnLTqH_IZ-35" style="edgeStyle=orthogonalEdgeStyle;rounded=0;orthogonalLoop=1;jettySize=auto;html=1;exitX=0.5;exitY=1;exitDx=0;exitDy=0;entryX=0.002;entryY=0.662;entryDx=0;entryDy=0;entryPerimeter=0;curved=1;strokeWidth=2;" edge="1" parent="8lnVzVoALOnFnLTqH_IZ-1" source="8lnVzVoALOnFnLTqH_IZ-36" target="8lnVzVoALOnFnLTqH_IZ-11">
          <mxGeometry relative="1" as="geometry" />
        </mxCell>
        <mxCell id="8lnVzVoALOnFnLTqH_IZ-36" value="" style="shape=image;aspect=fixed;image=data:image/svg+xml,PHN2ZyB3aWR0aD0iMTU2IiBoZWlnaHQ9IjEzOCIgeG1sbnM9Imh0dHA6Ly93d3cudzMub3JnLzIwMDAvc3ZnIiB4bWxuczp4bGluaz0iaHR0cDovL3d3dy53My5vcmcvMTk5OS94bGluayIgeG1sOnNwYWNlPSJwcmVzZXJ2ZSIgb3ZlcmZsb3c9ImhpZGRlbiI+PGRlZnM+PGNsaXBQYXRoIGlkPSJjbGlwMCI+PHJlY3QgeD0iNzc5IiB5PSIxNDAyIiB3aWR0aD0iMTU2IiBoZWlnaHQ9IjEzOCIvPjwvY2xpcFBhdGg+PC9kZWZzPjxnIGNsaXAtcGF0aD0idXJsKCNjbGlwMCkiIHRyYW5zZm9ybT0idHJhbnNsYXRlKC03NzkgLTE0MDIpIj48cGF0aCBkPSJNODM5IDE0MzMuMTEgODM5IDE0NTYuMTRDODM5IDE0NjYuMzkgODU0LjMzMiAxNDc2IDg1Ny44NCAxNDc2IDg2MS42NjggMTQ3NiA4NzcgMTQ2Ni4zOSA4NzcgMTQ1Ni4xNEw4NzcgMTQzMy4xMSA4NzYuNjcxIDE0MzMuMTFDODY0LjM3NiAxNDMwLjMyIDg1MS42MTggMTQzMC4zIDgzOS4zMTIgMTQzMy4wM1oiIGZpbGw9IiM5MTY0Q0MiIGZpbGwtcnVsZT0iZXZlbm9kZCIgZmlsbC1vcGFjaXR5PSIxIi8+PHBhdGggZD0iTTg5MyAxNDc4LjAzIDg5MyAxNDkyQzg5MyAxNDk4LjE5IDkwMi4yNzggMTUwNCA5MDQuNCAxNTA0IDkwNi43MjMgMTUwNCA5MTYgMTQ5OC4xOSA5MTYgMTQ5Mkw5MTYgMTQ3OC4wM0M5MDguNTczIDE0NzUuMzIgOTAwLjQyOCAxNDc1LjMyIDg5MyAxNDc4LjAzWiIgZmlsbD0iIzkxNjRDQyIgZmlsbC1ydWxlPSJldmVub2RkIiBmaWxsLW9wYWNpdHk9IjEiLz48cGF0aCBkPSJNOTMwLjUgMTQxMy44IDkzMC41IDE0NTEuNDJDOTMwLjUgMTQ0OS4wNCA5MjguNTgxIDE0NDcuMTIgOTI2LjIxNCAxNDQ3LjEyTDg4My4zNTcgMTQ0Ny4xMkM4ODAuOTkxIDE0NDcuMTIgODc5LjA3MSAxNDQ5LjA0IDg3OS4wNzEgMTQ1MS40Mkw4NzkuMDcxIDE0OTUuNSA3OTAuNzg2IDE0OTUuNUM3ODguNDE5IDE0OTUuNSA3ODYuNSAxNDkzLjU3IDc4Ni41IDE0OTEuMkw3ODYuNSAxNDEzLjhDNzg2LjUgMTQxMS40MyA3ODguNDE5IDE0MDkuNSA3OTAuNzg2IDE0MDkuNUw5MjYuMjE0IDE0MDkuNUM5MjguNTgxIDE0MDkuNSA5MzAuNSAxNDExLjQzIDkzMC41IDE0MTMuOFoiIHN0cm9rZT0iIzAwMDAwMCIgc3Ryb2tlLXdpZHRoPSI2Ljg3NSIgc3Ryb2tlLWxpbmVjYXA9InJvdW5kIiBzdHJva2UtbGluZWpvaW49InJvdW5kIiBzdHJva2UtbWl0ZXJsaW1pdD0iMTAiIHN0cm9rZS1vcGFjaXR5PSIxIiBmaWxsPSJub25lIiBmaWxsLXJ1bGU9ImV2ZW5vZGQiLz48cGF0aCBkPSJNODM3LjUgMTQ5NS41IDg3OS41IDE0OTUuNSA4NzkuNSAxNTIyLjUgODM3LjUgMTUyMi41WiIgc3Ryb2tlPSIjMDAwMDAwIiBzdHJva2Utd2lkdGg9IjYuODc1IiBzdHJva2UtbGluZWNhcD0icm91bmQiIHN0cm9rZS1saW5lam9pbj0icm91bmQiIHN0cm9rZS1taXRlcmxpbWl0PSIxMCIgc3Ryb2tlLW9wYWNpdHk9IjEiIGZpbGw9Im5vbmUiIGZpbGwtcnVsZT0iZXZlbm9kZCIvPjxwYXRoIGQ9Ik04MTcuNSAxNTIyLjUgODc5LjUgMTUyMi41IiBzdHJva2U9IiMwMDAwMDAiIHN0cm9rZS13aWR0aD0iNi44NzUiIHN0cm9rZS1saW5lY2FwPSJyb3VuZCIgc3Ryb2tlLWxpbmVqb2luPSJyb3VuZCIgc3Ryb2tlLW1pdGVybGltaXQ9IjEwIiBzdHJva2Utb3BhY2l0eT0iMSIgZmlsbD0ibm9uZSIgZmlsbC1ydWxlPSJldmVub2RkIi8+PHBhdGggZD0iTTkyNi4yNSAxNDQ2LjVDOTI4LjU5NyAxNDQ2LjUgOTMwLjUgMTQ0Ni41IDkzMC41IDE0NDYuNUw5MzAuNSAxNTMyLjVDOTMwLjUgMTUzMi41IDkyOC41OTcgMTUzMi41IDkyNi4yNSAxNTMyLjVMODgzLjc1IDE1MzIuNUM4ODEuNDAzIDE1MzIuNSA4NzkuNSAxNTMyLjUgODc5LjUgMTUzMi41TDg3OS41IDE0NDYuNUM4NzkuNSAxNDQ2LjUgODgxLjQwMyAxNDQ2LjUgODgzLjc1IDE0NDYuNVoiIHN0cm9rZT0iIzAwMDAwMCIgc3Ryb2tlLXdpZHRoPSI2Ljg3NSIgc3Ryb2tlLWxpbmVjYXA9InJvdW5kIiBzdHJva2UtbGluZWpvaW49InJvdW5kIiBzdHJva2UtbWl0ZXJsaW1pdD0iMTAiIHN0cm9rZS1vcGFjaXR5PSIxIiBmaWxsPSJub25lIiBmaWxsLXJ1bGU9ImV2ZW5vZGQiLz48cGF0aCBkPSJNOTEzLjQ5OSAxNDQ2QzkxNS40MzMgMTQ0NiA5MTcgMTQ0NiA5MTcgMTQ0Nkw5MTcgMTQ1M0M5MTcgMTQ1MyA5MTUuNDMzIDE0NTMgOTEzLjQ5OSAxNDUzTDg5NS41MDEgMTQ1M0M4OTMuNTY4IDE0NTMgODkyIDE0NTMgODkyIDE0NTNMODkyIDE0NDZDODkyIDE0NDYgODkzLjU2OCAxNDQ2IDg5NS41MDEgMTQ0NloiIGZpbGw9IiMwMDAwMDAiIGZpbGwtcnVsZT0iZXZlbm9kZCIgZmlsbC1vcGFjaXR5PSIxIi8+PC9nPjwvc3ZnPg==;" vertex="1" parent="8lnVzVoALOnFnLTqH_IZ-1">
          <mxGeometry x="50" y="184.89000000000001" width="96" height="84.92" as="geometry" />
        </mxCell>
        <mxCell id="8lnVzVoALOnFnLTqH_IZ-37" value="" style="shape=image;aspect=fixed;image=data:image/svg+xml,PHN2ZyB3aWR0aD0iNDgiIGhlaWdodD0iNDgiIHhtbG5zPSJodHRwOi8vd3d3LnczLm9yZy8yMDAwL3N2ZyIgeG1sbnM6eGxpbms9Imh0dHA6Ly93d3cudzMub3JnLzE5OTkveGxpbmsiIHhtbDpzcGFjZT0icHJlc2VydmUiIG92ZXJmbG93PSJoaWRkZW4iPjxkZWZzPjxjbGlwUGF0aCBpZD0iY2xpcDAiPjxyZWN0IHg9IjIzNiIgeT0iNDA4IiB3aWR0aD0iNDgiIGhlaWdodD0iNDgiLz48L2NsaXBQYXRoPjwvZGVmcz48ZyBjbGlwLXBhdGg9InVybCgjY2xpcDApIiB0cmFuc2Zvcm09InRyYW5zbGF0ZSgtMjM2IC00MDgpIj48cGF0aCBkPSJNMjcyIDQzMy42MjJDMjY5LjU3NSA0MzMuNjI0IDI2Ny4zNDQgNDMyLjI5NyAyNjYuMTg4IDQzMC4xNjUgMjY2LjAyMyA0MjkuODY2IDI2NS44ODMgNDI5LjU1NCAyNjUuNzcgNDI5LjIzMkwyNjUuNjEgNDI4Ljc3NSAyNjUuODYgNDI4LjM2N0MyNjUuOTEzIDQyOC4yODUgMjY1Ljk2IDQyOC4yMDMgMjY2LjAwNSA0MjguMTE3IDI2Ni43NiA0MjYuNzI4IDI2Ny4wMTIgNDI1LjEyMSAyNjYuNzE3IDQyMy41NjhMMjY2LjYyOCA0MjMuMDk4IDI2Ni45MzggNDIyLjczNUMyNjkuMjk2IDQxOS45NDMgMjczLjQ3MSA0MTkuNTkxIDI3Ni4yNjMgNDIxLjk0OSAyNzkuMDU1IDQyNC4zMDggMjc5LjQwNyA0MjguNDgzIDI3Ny4wNDkgNDMxLjI3NSAyNzUuNzkzIDQzMi43NjIgMjczLjk0NiA0MzMuNjIgMjcyIDQzMy42MjJaTTI2Ny44MjUgNDI4Ljk3OEMyNjcuODYgNDI5LjA1NSAyNjcuOSA0MjkuMTMgMjY3Ljk0IDQyOS4yMDcgMjY5LjE1NiA0MzEuNDQ5IDI3MS45NTkgNDMyLjI4IDI3NC4yMDEgNDMxLjA2NCAyNzQuOTg2IDQzMC42MzggMjc1LjYzMSA0MjkuOTkzIDI3Ni4wNTcgNDI5LjIwNyAyNzYuODcgNDI3LjcxMyAyNzYuNzk0IDQyNS44OTIgMjc1Ljg2IDQyNC40NyAyNzQuNDYyIDQyMi4zMzkgMjcxLjYgNDIxLjc0NSAyNjkuNDcgNDIzLjE0NCAyNjkuMjIgNDIzLjMwOCAyNjguOTg2IDQyMy40OTYgMjY4Ljc3MiA0MjMuNzA1IDI2OC44MjMgNDI0LjA4NCAyNjguODQ4IDQyNC40NjUgMjY4Ljg0OCA0MjQuODQ4IDI2OC44NDcgNDI2LjI4NyAyNjguNDk1IDQyNy43MDUgMjY3LjgyMyA0MjguOTc4WiIgZmlsbD0iIzAwMDAwMCIgZmlsbC1ydWxlPSJub256ZXJvIiBmaWxsLW9wYWNpdHk9IjEiLz48cGF0aCBkPSJNMjgyLjAzMyA0NDUuMzY3IDI3MS42MTUgNDQ1LjM2NyAyNzEuNjE1IDQ0Mi45MDJDMjcxLjYxNSA0NDIuNTIgMjcxLjU2NCA0NDIuMTM5IDI3MS40NjIgNDQxLjc3IDI3MS4wOTUgNDQwLjQ0NyAyNzAuMTA4IDQzOS4zODUgMjY4LjgxNSA0MzguOTIyIDI2OC40NjYgNDM4Ljc5IDI2OC4xIDQzOC43MDYgMjY3LjcyOCA0MzguNjcyTDI2Ny44MDcgNDM2LjY3MiAyNzcuMjg1IDQzNi42NzJDMjc5LjQxOCA0MzYuNjczIDI4MS4yODkgNDM4LjA5NSAyODEuODYgNDQwLjE1IDI4MS45NzQgNDQwLjU2NCAyODIuMDMyIDQ0MC45OTEgMjgyLjAzMyA0NDEuNDJaTTI3My42MTUgNDQzLjM2NyAyODAuMDMzIDQ0My4zNjcgMjgwLjAzMyA0NDEuNDM1QzI4MC4wMzMgNDQxLjE4NyAyODAgNDQwLjk0MSAyNzkuOTMyIDQ0MC43MDMgMjc5LjYwMiA0MzkuNTEzIDI3OC41MiA0MzguNjg5IDI3Ny4yODUgNDM4LjY4OEwyNzEuOTc1IDQzOC42ODhDMjczLjAzIDQzOS44MzggMjczLjYxNSA0NDEuMzQyIDI3My42MTUgNDQyLjkwMloiIGZpbGw9IiMwMDAwMDAiIGZpbGwtcnVsZT0ibm9uemVybyIgZmlsbC1vcGFjaXR5PSIxIi8+PHBhdGggZD0iTTI2MCA0MzMuNjlDMjU2Ljg5OSA0MzMuNzA0IDI1NC4wMjEgNDMyLjA4MSAyNTIuNDMgNDI5LjQyIDI1Mi4zNiA0MjkuMzA3IDI1Mi4yOTUgNDI5LjE5MyAyNTIuMjMgNDI5LjA3NSAyNTEuMjU1IDQyNy4yOCAyNTAuOTMgNDI1LjIwMiAyNTEuMzEgNDIzLjE5NSAyNTEuNTI0IDQyMi4wNDcgMjUxLjk2NyA0MjAuOTUzIDI1Mi42MTMgNDE5Ljk4IDI1NS4yOTQgNDE1Ljg5NyAyNjAuNzc4IDQxNC43NjEgMjY0Ljg2MSA0MTcuNDQyIDI2OC43MDkgNDE5Ljk2OSAyNjkuOTc1IDQyNS4wMjUgMjY3Ljc3MiA0MjkuMDY4IDI2Ny43MDcgNDI5LjE5IDI2Ny42MzUgNDI5LjMxOCAyNjcuNTU3IDQyOS40NCAyNjUuOTY0IDQzMi4wOSAyNjMuMDkyIDQzMy43MDUgMjYwIDQzMy42OVpNMjYwIDQxOEMyNTcuNjk2IDQxNy45OTggMjU1LjU0NyA0MTkuMTU3IDI1NC4yODMgNDIxLjA4MiAyNTMuNzg2IDQyMS44MzUgMjUzLjQ0NiA0MjIuNjc5IDI1My4yODMgNDIzLjU2NSAyNTIuOTg4IDQyNS4xMTggMjUzLjIzOSA0MjYuNzI1IDI1My45OTIgNDI4LjExNSAyNTQuMDQyIDQyOC4yMDUgMjU0LjA5MiA0MjguMjkzIDI1NC4xNDcgNDI4LjM4MyAyNTYuMTAyIDQzMS42MTggMjYwLjMxIDQzMi42NTYgMjYzLjU0NiA0MzAuNzAyIDI2NC40OTUgNDMwLjEyOCAyNjUuMjkxIDQyOS4zMzIgMjY1Ljg2NSA0MjguMzgzIDI2NS45MjcgNDI4LjI4MyAyNjUuOTc1IDQyOC4yIDI2Ni4wMiA0MjguMTEyIDI2Ny44MjUgNDI0Ljc5MSAyNjYuNTk1IDQyMC42MzUgMjYzLjI3MyA0MTguODMgMjYyLjI2OCA0MTguMjg1IDI2MS4xNDMgNDE3Ljk5OSAyNjAgNDE4WiIgZmlsbD0iIzAwMDAwMCIgZmlsbC1ydWxlPSJub256ZXJvIiBmaWxsLW9wYWNpdHk9IjEiLz48cGF0aCBkPSJNMjQ4IDQzMy42MjJDMjQ0LjM0NCA0MzMuNjI2IDI0MS4zNzcgNDMwLjY2NSAyNDEuMzc0IDQyNy4wMDggMjQxLjM3MSA0MjMuMzUyIDI0NC4zMzIgNDIwLjM4NiAyNDcuOTg4IDQyMC4zODMgMjQ5Ljk0MSA0MjAuMzgxIDI1MS43OTYgNDIxLjI0MiAyNTMuMDU1IDQyMi43MzVMMjUzLjM2NSA0MjMuMSAyNTMuMjc1IDQyMy41NjhDMjUyLjk4MSA0MjUuMTIgMjUzLjIzMiA0MjYuNzI2IDI1My45ODUgNDI4LjExNSAyNTQuMDM1IDQyOC4yMDUgMjU0LjA4NSA0MjguMjkzIDI1NC4xNCA0MjguMzgzTDI1NC4zOSA0MjguNzg4IDI1NC4yMzIgNDI5LjIzNUMyNTQuMTIgNDI5LjU1NiAyNTMuOTgxIDQyOS44NjcgMjUzLjgxOCA0MzAuMTY1IDI1Mi42NiA0MzIuMjk4IDI1MC40MjcgNDMzLjYyNSAyNDggNDMzLjYyMlpNMjQ4IDQyMi4zODVDMjQ1LjQ0OCA0MjIuMzgxIDI0My4zNzcgNDI0LjQ0NiAyNDMuMzcyIDQyNi45OTcgMjQzLjM2OCA0MjkuNTQ5IDI0NS40MzMgNDMxLjYyMSAyNDcuOTg1IDQzMS42MjUgMjQ5LjY4MyA0MzEuNjI4IDI1MS4yNDYgNDMwLjY5OCAyNTIuMDU1IDQyOS4yMDUgMjUyLjA5OSA0MjkuMTMgMjUyLjEzOSA0MjkuMDUyIDI1Mi4xNzUgNDI4Ljk3MyAyNTEuNTA2IDQyNy43IDI1MS4xNTYgNDI2LjI4MyAyNTEuMTU1IDQyNC44NDUgMjUxLjE1NSA0MjQuNDY0IDI1MS4xOCA0MjQuMDgzIDI1MS4yMyA0MjMuNzA1IDI1MC4zNjcgNDIyLjg2IDI0OS4yMDggNDIyLjM4NiAyNDggNDIyLjM4NVoiIGZpbGw9IiMwMDAwMDAiIGZpbGwtcnVsZT0ibm9uemVybyIgZmlsbC1vcGFjaXR5PSIxIi8+PHBhdGggZD0iTTI3My42MTUgNDQ4IDI0Ni4zODUgNDQ4IDI0Ni4zODUgNDQyLjkwMkMyNDYuMzg0IDQ0MC4yNzEgMjQ4LjAzNyA0MzcuOTIzIDI1MC41MTUgNDM3LjAzOCAyNTEuMDI5IDQzNi44NSAyNTEuNTY3IDQzNi43MzQgMjUyLjExMyA0MzYuNjkzIDI1Mi4yNjUgNDM2LjY3NyAyNTIuNDM4IDQzNi42NyAyNTIuNjEzIDQzNi42N0wyNjcuMzc4IDQzNi42N0MyNjcuNTU3IDQzNi42NyAyNjcuNzMgNDM2LjY3IDI2Ny44NzggNDM2LjY5MyAyNjguNDI0IDQzNi43MzUgMjY4Ljk2MyA0MzYuODUzIDI2OS40NzggNDM3LjA0MyAyNzEuOTUgNDM3LjkzIDI3My41OTkgNDQwLjI3NSAyNzMuNTk4IDQ0Mi45MDJaTTI0OC4zODUgNDQ2IDI3MS42MTUgNDQ2IDI3MS42MTUgNDQyLjkwMkMyNzEuNjE1IDQ0Mi41MiAyNzEuNTY0IDQ0Mi4xMzkgMjcxLjQ2MiA0NDEuNzcgMjcxLjA5NSA0NDAuNDQ3IDI3MC4xMDggNDM5LjM4NSAyNjguODE1IDQzOC45MjIgMjY4LjQ2NiA0MzguNzkgMjY4LjEgNDM4LjcwNiAyNjcuNzI4IDQzOC42NzIgMjY3LjYxNyA0MzguNjcyIDI2Ny41MDUgNDM4LjY1OCAyNjcuMzgzIDQzOC42NThMMjUyLjYxNyA0MzguNjU4QzI1Mi40OTYgNDM4LjY1OCAyNTIuMzgzIDQzOC42NjMgMjUyLjI4IDQzOC42NzIgMjUxLjkwOSA0MzguNyAyNTEuNTQ0IDQzOC43NzkgMjUxLjE5NSA0MzguOTA4IDI0OS44OTggNDM5LjM2NyAyNDguOTA3IDQ0MC40MyAyNDguNTM4IDQ0MS43NTUgMjQ4LjQzNiA0NDIuMTI1IDI0OC4zODUgNDQyLjUwNyAyNDguMzg1IDQ0Mi44OVoiIGZpbGw9IiMwMDAwMDAiIGZpbGwtcnVsZT0ibm9uemVybyIgZmlsbC1vcGFjaXR5PSIxIi8+PHBhdGggZD0iTTI0OC4zODUgNDQ1LjM2NyAyMzcuOTY1IDQ0NS4zNjcgMjM3Ljk2NSA0NDEuNDM1QzIzNy45NjMgNDQxLjAwNCAyMzguMDIxIDQ0MC41NzUgMjM4LjEzNyA0NDAuMTYgMjM4LjU1MyA0MzguNjc4IDIzOS42NjEgNDM3LjQ4OSAyNDEuMTEgNDM2Ljk3IDI0MS42MjMgNDM2Ljc4MiAyNDIuMTY2IDQzNi42ODYgMjQyLjcxMiA0MzYuNjg4TDI1Mi4xOTMgNDM2LjY4OCAyNTIuMjcyIDQzOC42ODhDMjUxLjkwNCA0MzguNzE2IDI1MS41NDIgNDM4Ljc5NSAyNTEuMTk1IDQzOC45MjIgMjQ5Ljg5OCA0MzkuMzgyIDI0OC45MDcgNDQwLjQ0NSAyNDguNTM4IDQ0MS43NyAyNDguNDM2IDQ0Mi4xNCAyNDguMzg1IDQ0Mi41MjIgMjQ4LjM4NSA0NDIuOTA1Wk0yMzkuOTY1IDQ0My4zNjcgMjQ2LjM4NSA0NDMuMzY3IDI0Ni4zODUgNDQyLjkwMkMyNDYuMzg1IDQ0MS4zNDIgMjQ2Ljk3IDQzOS44MzggMjQ4LjAyNSA0MzguNjg4TDI0Mi43MTIgNDM4LjY4OEMyNDIuMzk3IDQzOC42ODcgMjQyLjA4NCA0MzguNzQyIDI0MS43ODggNDM4Ljg1IDI0MC45NDYgNDM5LjE1IDI0MC4zMDMgNDM5Ljg0IDI0MC4wNjIgNDQwLjcgMjM5Ljk5NyA0NDAuOTM5IDIzOS45NjQgNDQxLjE4NyAyMzkuOTY1IDQ0MS40MzVaIiBmaWxsPSIjMDAwMDAwIiBmaWxsLXJ1bGU9Im5vbnplcm8iIGZpbGwtb3BhY2l0eT0iMSIvPjwvZz48L3N2Zz4=;" vertex="1" parent="8lnVzVoALOnFnLTqH_IZ-1">
          <mxGeometry x="10" y="101" width="93" height="93" as="geometry" />
        </mxCell>
        <mxCell id="8lnVzVoALOnFnLTqH_IZ-38" value="" style="endArrow=classic;startArrow=classic;html=1;rounded=0;curved=1;strokeWidth=2;fillColor=#eeeeee;strokeColor=#999999;" edge="1" parent="8lnVzVoALOnFnLTqH_IZ-1" source="8lnVzVoALOnFnLTqH_IZ-27" target="8lnVzVoALOnFnLTqH_IZ-33">
          <mxGeometry width="50" height="50" relative="1" as="geometry">
            <mxPoint x="790" y="480" as="sourcePoint" />
            <mxPoint x="840" y="430" as="targetPoint" />
          </mxGeometry>
        </mxCell>
        <mxCell id="SSU8CUwgX_QRmmI8L2Xm-1" value="" style="shape=image;verticalLabelPosition=bottom;verticalAlign=top;imageAspect=0;aspect=fixed;image=data:image/svg+xml,PHN2ZyB4bWxuczp4bGluaz0iaHR0cDovL3d3dy53My5vcmcvMTk5OS94bGluayIgeG1sbnM9Imh0dHA6Ly93d3cudzMub3JnLzIwMDAvc3ZnIiBvdmVyZmxvdz0iaGlkZGVuIiB4bWw6c3BhY2U9InByZXNlcnZlIiBoZWlnaHQ9IjQ5IiB3aWR0aD0iNTAiIHZpZXdCb3g9IjAgMCA1MCA0OSI+PGRlZnM+PGNsaXBQYXRoIGlkPSJjbGlwMCI+PHJlY3QgaGVpZ2h0PSI0OSIgd2lkdGg9IjUwIiB5PSI0MTYiIHg9IjIyNiIvPjwvY2xpcFBhdGg+PGNsaXBQYXRoIGlkPSJjbGlwMSI+PHJlY3QgaGVpZ2h0PSI0OCIgd2lkdGg9IjQ4IiB5PSI0MTciIHg9IjIyNyIvPjwvY2xpcFBhdGg+PGNsaXBQYXRoIGlkPSJjbGlwMiI+PHJlY3QgaGVpZ2h0PSI0OCIgd2lkdGg9IjQ4IiB5PSI0MTciIHg9IjIyNyIvPjwvY2xpcFBhdGg+PGNsaXBQYXRoIGlkPSJjbGlwMyI+PHJlY3QgaGVpZ2h0PSI0OCIgd2lkdGg9IjQ4IiB5PSI0MTciIHg9IjIyNyIvPjwvY2xpcFBhdGg+PC9kZWZzPjxnIHRyYW5zZm9ybT0idHJhbnNsYXRlKC0yMjYgLTQxNikiIGNsaXAtcGF0aD0idXJsKCNjbGlwMCkiPjxnIGNsaXAtcGF0aD0idXJsKCNjbGlwMSkiPjxnIGNsaXAtcGF0aD0idXJsKCNjbGlwMikiPjxnIGNsaXAtcGF0aD0idXJsKCNjbGlwMykiPjxwYXRoIGZpbGwtcnVsZT0ibm9uemVybyIgZmlsbD0ibm9uZSIgc3Ryb2tlLW9wYWNpdHk9IjEiIHN0cm9rZS1taXRlcmxpbWl0PSIxMCIgc3Ryb2tlLWxpbmVqb2luPSJtaXRlciIgc3Ryb2tlLWxpbmVjYXA9ImJ1dHQiIHN0cm9rZS13aWR0aD0iMiIgc3Ryb2tlPSIjMDAwMDAwIiBkPSJNMjU0LjQ1IDQ1My42ODVDMjUyLjYzNSA0NTQuMTkyIDI1MC43MzEgNDU0LjI5OSAyNDguODcgNDU0Ii8+PHBhdGggZmlsbC1ydWxlPSJub256ZXJvIiBmaWxsPSJub25lIiBzdHJva2Utb3BhY2l0eT0iMSIgc3Ryb2tlLW1pdGVybGltaXQ9IjEwIiBzdHJva2UtbGluZWpvaW49Im1pdGVyIiBzdHJva2UtbGluZWNhcD0iYnV0dCIgc3Ryb2tlLXdpZHRoPSIyIiBzdHJva2U9IiMwMDAwMDAiIGQ9Ik0yNjAuMzY3IDQzMS44NzVDMjU1Ljk2NiA0MjcuMzU4IDI0OC45NzQgNDI2LjYxIDI0My43MTcgNDMwLjA5NSIvPjxwYXRoIGZpbGwtcnVsZT0ibm9uemVybyIgZmlsbD0ibm9uZSIgc3Ryb2tlLW9wYWNpdHk9IjEiIHN0cm9rZS1taXRlcmxpbWl0PSIxMCIgc3Ryb2tlLWxpbmVqb2luPSJtaXRlciIgc3Ryb2tlLWxpbmVjYXA9ImJ1dHQiIHN0cm9rZS13aWR0aD0iMiIgc3Ryb2tlPSIjMDAwMDAwIiBkPSJNMjM3Ljg2IDQ0MS41NDVDMjM3Ljg2IDQ0MS4zNzUgMjM3Ljg0NSA0NDEuMjA1IDIzNy44NDUgNDQxLjAzMyAyMzcuODQzIDQzNi42MzIgMjQwLjA0OCA0MzIuNTI0IDI0My43MTcgNDMwLjA5NSIvPjxwYXRoIGZpbGwtcnVsZT0ibm9uemVybyIgZmlsbD0ibm9uZSIgc3Ryb2tlLW9wYWNpdHk9IjEiIHN0cm9rZS1taXRlcmxpbWl0PSIxMCIgc3Ryb2tlLWxpbmVqb2luPSJtaXRlciIgc3Ryb2tlLWxpbmVjYXA9ImJ1dHQiIHN0cm9rZS13aWR0aD0iMiIgc3Ryb2tlPSIjMDAwMDAwIiBkPSJNMjQ4Ljg3IDQ1NEMyNDIuNzEyIDQ1Mi45OTUgMjM4LjExMyA0NDcuNzkzIDIzNy44NyA0NDEuNTU3Ii8+PHBhdGggZmlsbC1ydWxlPSJub256ZXJvIiBmaWxsPSJub25lIiBzdHJva2Utb3BhY2l0eT0iMSIgc3Ryb2tlLW1pdGVybGltaXQ9IjEwIiBzdHJva2UtbGluZWpvaW49Im1pdGVyIiBzdHJva2UtbGluZWNhcD0iYnV0dCIgc3Ryb2tlLXdpZHRoPSIyIiBzdHJva2U9IiMwMDAwMDAiIGQ9Ik0yNjMuNTIyIDQzNy4yQzI2NS42MzYgNDQ0LjEzNyAyNjEuNzI2IDQ1MS40NzMgMjU0Ljc4OSA0NTMuNTg3IDI1NC42NzYgNDUzLjYyMSAyNTQuNTY0IDQ1My42NTQgMjU0LjQ1IDQ1My42ODUiLz48cGF0aCBmaWxsLXJ1bGU9Im5vbnplcm8iIGZpbGw9Im5vbmUiIHN0cm9rZS1vcGFjaXR5PSIxIiBzdHJva2UtbWl0ZXJsaW1pdD0iMTAiIHN0cm9rZS1saW5lam9pbj0ibWl0ZXIiIHN0cm9rZS1saW5lY2FwPSJidXR0IiBzdHJva2Utd2lkdGg9IjIiIHN0cm9rZT0iIzAwMDAwMCIgZD0iTTI2MC4zNjcgNDMxLjg3NUMyNjEuODI4IDQzMy4zNzMgMjYyLjkxIDQzNS4xOTkgMjYzLjUyMiA0MzcuMiIvPjxwYXRoIGZpbGwtcnVsZT0ibm9uemVybyIgZmlsbD0ibm9uZSIgc3Ryb2tlLW9wYWNpdHk9IjEiIHN0cm9rZS1taXRlcmxpbWl0PSIxMCIgc3Ryb2tlLWxpbmVqb2luPSJtaXRlciIgc3Ryb2tlLWxpbmVjYXA9ImJ1dHQiIHN0cm9rZS13aWR0aD0iMiIgc3Ryb2tlPSIjMDAwMDAwIiBkPSJNMjYzLjUyMiA0MzcuMkMyNjEuMjM4IDQzNS43NzcgMjU4LjY4NSA0MzQuODQgMjU2LjAyMiA0MzQuNDUiLz48cGF0aCBmaWxsLXJ1bGU9Im5vbnplcm8iIGZpbGw9Im5vbmUiIHN0cm9rZS1vcGFjaXR5PSIxIiBzdHJva2UtbWl0ZXJsaW1pdD0iMTAiIHN0cm9rZS1saW5lam9pbj0ibWl0ZXIiIHN0cm9rZS1saW5lY2FwPSJidXR0IiBzdHJva2Utd2lkdGg9IjIiIHN0cm9rZT0iIzAwMDAwMCIgZD0iTTIzNy44NiA0NDEuNTQ1QzIzOS4yODYgNDM5Ljc4NCAyNDEuMDA1IDQzOC4yODEgMjQyLjk0IDQzNy4xMDMiLz48cGF0aCBmaWxsLXJ1bGU9Im5vbnplcm8iIGZpbGw9Im5vbmUiIHN0cm9rZS1vcGFjaXR5PSIxIiBzdHJva2UtbWl0ZXJsaW1pdD0iMTAiIHN0cm9rZS1saW5lam9pbj0ibWl0ZXIiIHN0cm9rZS1saW5lY2FwPSJidXR0IiBzdHJva2Utd2lkdGg9IjIiIHN0cm9rZT0iIzAwMDAwMCIgZD0iTTI1Ni4wMjIgNDM0LjQ1N0MyNTEuNDg3IDQzMy43OSAyNDYuODYgNDM0LjcyNSAyNDIuOTQgNDM3LjEwMyIvPjxwYXRoIGZpbGwtcnVsZT0ibm9uemVybyIgZmlsbD0ibm9uZSIgc3Ryb2tlLW9wYWNpdHk9IjEiIHN0cm9rZS1taXRlcmxpbWl0PSIxMCIgc3Ryb2tlLWxpbmVqb2luPSJtaXRlciIgc3Ryb2tlLWxpbmVjYXA9ImJ1dHQiIHN0cm9rZS13aWR0aD0iMiIgc3Ryb2tlPSIjMDAwMDAwIiBkPSJNMjQ1LjEyNSA0MjkuNjI4QzI0NC41NzQgNDMxLjQ2NCAyNDQuMjk0IDQzMy4zNyAyNDQuMjk1IDQzNS4yODggMjQ0LjI5NSA0MzUuNzQgMjQ0LjMxNSA0MzYuMTg4IDI0NC4zNDUgNDM2LjYzMyIvPjxwYXRoIGZpbGwtcnVsZT0ibm9uemVybyIgZmlsbD0ibm9uZSIgc3Ryb2tlLW9wYWNpdHk9IjEiIHN0cm9rZS1taXRlcmxpbWl0PSIxMCIgc3Ryb2tlLWxpbmVqb2luPSJtaXRlciIgc3Ryb2tlLWxpbmVjYXA9ImJ1dHQiIHN0cm9rZS13aWR0aD0iMiIgc3Ryb2tlPSIjMDAwMDAwIiBkPSJNMjQ5Ljg3NSA0NDkuMDEzQzI0Ni42MTkgNDQ1LjY3NCAyNDQuNjU4IDQ0MS4yODUgMjQ0LjM0NSA0MzYuNjMzIi8+PHBhdGggZmlsbC1ydWxlPSJub256ZXJvIiBmaWxsPSJub25lIiBzdHJva2Utb3BhY2l0eT0iMSIgc3Ryb2tlLW1pdGVybGltaXQ9IjEwIiBzdHJva2UtbGluZWpvaW49Im1pdGVyIiBzdHJva2UtbGluZWNhcD0iYnV0dCIgc3Ryb2tlLXdpZHRoPSIyIiBzdHJva2U9IiMwMDAwMDAiIGQ9Ik0yNDkuODc1IDQ0OS4wMTNDMjUxLjU5IDQ1MC43NzUgMjUzLjYxOSA0NTIuMjAxIDI1NS44NTcgNDUzLjIxNyIvPjxwYXRoIGZpbGwtcnVsZT0ibm9uemVybyIgZmlsbD0ibm9uZSIgc3Ryb2tlLW9wYWNpdHk9IjEiIHN0cm9rZS1taXRlcmxpbWl0PSIxMCIgc3Ryb2tlLWxpbmVqb2luPSJtaXRlciIgc3Ryb2tlLWxpbmVjYXA9ImJ1dHQiIHN0cm9rZS13aWR0aD0iMiIgc3Ryb2tlPSIjMDAwMDAwIiBkPSJNMjQ4LjQ3IDQ0OS40ODJDMjQ4LjYwNyA0NDMuNTk1IDI1MS4zNzkgNDM4LjA4IDI1Ni4wMjIgNDM0LjQ1NyIvPjxwYXRoIGZpbGwtcnVsZT0ibm9uemVybyIgZmlsbD0ibm9uZSIgc3Ryb2tlLW9wYWNpdHk9IjEiIHN0cm9rZS1taXRlcmxpbWl0PSIxMCIgc3Ryb2tlLWxpbmVqb2luPSJtaXRlciIgc3Ryb2tlLWxpbmVjYXA9ImJ1dHQiIHN0cm9rZS13aWR0aD0iMiIgc3Ryb2tlPSIjMDAwMDAwIiBkPSJNMjYwLjM2NyA0MzEuODc1QzI1OC44MTQgNDMyLjU0NSAyNTcuMzU0IDQzMy40MTMgMjU2LjAyMiA0MzQuNDU3Ii8+PHBhdGggZmlsbC1ydWxlPSJub256ZXJvIiBmaWxsPSJub25lIiBzdHJva2Utb3BhY2l0eT0iMSIgc3Ryb2tlLW1pdGVybGltaXQ9IjEwIiBzdHJva2UtbGluZWpvaW49Im1pdGVyIiBzdHJva2UtbGluZWNhcD0iYnV0dCIgc3Ryb2tlLXdpZHRoPSIyIiBzdHJva2U9IiMwMDAwMDAiIGQ9Ik0yNDguNDcgNDQ5LjQ4MkMyNDguNDcgNDQ5LjY0MyAyNDguNDcgNDQ5LjgwMiAyNDguNDcgNDQ5Ljk2MiAyNDguNDY1IDQ1MS4zMTkgMjQ4LjU5OSA0NTIuNjcyIDI0OC44NyA0NTQiLz48cGF0aCBmaWxsLW9wYWNpdHk9IjEiIGZpbGwtcnVsZT0ibm9uemVybyIgZmlsbD0iIzMwN0ZFMiIgZD0iTTI1OC41IDQzNC40OEMyNTguNSA0MzUuNzc0IDI1Ny40NTEgNDM2LjgyMyAyNTYuMTU4IDQzNi44MjMgMjU0Ljg2NCA0MzYuODIzIDI1My44MTUgNDM1Ljc3NCAyNTMuODE1IDQzNC40OCAyNTMuODE1IDQzMy4xODYgMjU0Ljg2NCA0MzIuMTM4IDI1Ni4xNTggNDMyLjEzOCAyNTcuNDUxIDQzMi4xMzggMjU4LjUgNDMzLjE4NiAyNTguNSA0MzQuNDhaIi8+PHBhdGggZmlsbC1vcGFjaXR5PSIxIiBmaWxsLXJ1bGU9Im5vbnplcm8iIGZpbGw9IiMzMDdGRTIiIGQ9Ik0yNDYuNTU3IDQzNi4zNkMyNDYuNTU3IDQzNy42NTQgMjQ1LjUwOSA0MzguNzAzIDI0NC4yMTUgNDM4LjcwMyAyNDIuOTIxIDQzOC43MDMgMjQxLjg3MiA0MzcuNjU0IDI0MS44NzIgNDM2LjM2IDI0MS44NzIgNDM1LjA2NiAyNDIuOTIxIDQzNC4wMTcgMjQ0LjIxNSA0MzQuMDE3IDI0NS41MDkgNDM0LjAxNyAyNDYuNTU3IDQzNS4wNjYgMjQ2LjU1NyA0MzYuMzZaIi8+PHBhdGggZmlsbC1vcGFjaXR5PSIxIiBmaWxsLXJ1bGU9Im5vbnplcm8iIGZpbGw9IiMzMDdGRTIiIGQ9Ik0yNTAuNzY1IDQ0OC4wNkMyNTAuNzY1IDQ0OS4zNTQgMjQ5LjcxNiA0NTAuNDAyIDI0OC40MjMgNDUwLjQwMiAyNDcuMTI5IDQ1MC40MDIgMjQ2LjA4IDQ0OS4zNTQgMjQ2LjA4IDQ0OC4wNiAyNDYuMDggNDQ2Ljc2NiAyNDcuMTI5IDQ0NS43MTcgMjQ4LjQyMyA0NDUuNzE3IDI0OS43MTYgNDQ1LjcxNyAyNTAuNzY1IDQ0Ni43NjYgMjUwLjc2NSA0NDguMDZaIi8+PHBhdGggZmlsbC1ydWxlPSJub256ZXJvIiBmaWxsPSJub25lIiBzdHJva2Utb3BhY2l0eT0iMSIgc3Ryb2tlLW1pdGVybGltaXQ9IjEwIiBzdHJva2UtbGluZWpvaW49Im1pdGVyIiBzdHJva2UtbGluZWNhcD0iYnV0dCIgc3Ryb2tlLXdpZHRoPSIyIiBzdHJva2U9IiMwMDAwMDAiIGQ9Ik0yNzIuNTI3IDQ0My43MDUgMjcyLjUyNyA0MzguMDE1QzI2OS42IDQzNi45NiAyNjcuNzc3IDQzNi43MDcgMjY2LjgyMyA0MzQuNDQzIDI2NS45MTUgNDMyLjE3NyAyNjcuMDI1IDQzMC42NjUgMjY4LjMzNyA0MjcuODk3TDI2NC4zIDQyMy44N0MyNjEuNTIyIDQyNS4xNzcgMjU5Ljk1NyA0MjYuMjg1IDI1Ny43MzUgNDI1LjM3IDI1NS40NjUgNDI0LjQxMyAyNTUuMTYgNDIyLjU1IDI1NC4xNTIgNDE5LjY4TDI0OC40MDIgNDE5LjY4QzI0Ny40MDIgNDIyLjU1IDI0Ny4wOSA0MjQuNDEzIDI0NC44NjcgNDI1LjM3IDI0Mi41OTUgNDI2LjI3NSAyNDEuMDgzIDQyNS4xNjggMjM4LjI1MyA0MjMuODdMMjM0LjIxIDQyNy44OTdDMjM1LjUyMyA0MzAuNjY1IDIzNi42ODUgNDMyLjE3NyAyMzUuNzIzIDQzNC40NDMgMjM0LjgxNSA0MzYuNzA3IDIzMi44OTggNDM2Ljk2IDIzMC4wMiA0MzguMDE1TDIzMC4wMiA0NDMuNzA1QzIzMi44OTggNDQ0Ljc2MyAyMzQuODE1IDQ0NS4wNjUgMjM1LjcyMyA0NDcuMjggMjM2LjY4NSA0NDkuNTQ1IDIzNS41MjMgNDUxLjEwNSAyMzQuMjEgNDUzLjgyNUwyMzguMjUgNDU3Ljg1M0MyNDEuMDI3IDQ1Ni41NDMgMjQyLjU5MiA0NTUuNDM1IDI0NC44NjUgNDU2LjM5MyAyNDcuMDg3IDQ1Ny4yOTcgMjQ3LjM4NyA0NTkuMTYgMjQ4LjQgNDYyLjA4TDI1NC4xNSA0NjIuMDhDMjU1LjE1IDQ1OS4xNiAyNTUuNDYyIDQ1Ny4yOTcgMjU3LjczMyA0NTYuMzkzIDI1OS45NTUgNDU1LjQzNSAyNjEuNDcgNDU2LjU0MyAyNjQuMjk3IDQ1Ny44NTNMMjY4LjMzNSA0NTMuODI1QzI2Ny4wMjIgNDUxLjA1NSAyNjUuOTEzIDQ0OS41NDUgMjY2LjgyIDQ0Ny4yOCAyNjcuNzgzIDQ0NS4wNjUgMjY5LjY1IDQ0NC43NjMgMjcyLjUyNyA0NDMuNzA1WiIvPjwvZz48L2c+PC9nPjwvZz48L3N2Zz4=" vertex="1" parent="8lnVzVoALOnFnLTqH_IZ-1">
          <mxGeometry x="598.63" y="470" width="91.84" height="90" as="geometry" />
        </mxCell>
        <mxCell id="SSU8CUwgX_QRmmI8L2Xm-2" value="" style="aspect=fixed;html=1;points=[];align=center;image;fontSize=12;image=img/lib/azure2/networking/Network_Interfaces.svg;strokeWidth=2;movable=1;resizable=1;rotatable=1;deletable=1;editable=1;connectable=1;direction=east;container=0;" vertex="1" parent="8lnVzVoALOnFnLTqH_IZ-1">
          <mxGeometry x="684.5" y="499.5" width="35.13" height="31" as="geometry" />
        </mxCell>
        <mxCell id="SSU8CUwgX_QRmmI8L2Xm-4" value="&lt;font color=&quot;#000000&quot;&gt;Public IP Address&lt;/font&gt;" style="aspect=fixed;html=1;points=[];align=center;image;fontSize=12;image=img/lib/azure2/networking/Public_IP_Addresses.svg;rounded=1;sketch=0;strokeColor=#007fff;fillColor=#FFFFFF;gradientColor=none;gradientDirection=south;fontFamily=Helvetica;fontColor=#999999;" vertex="1" parent="8lnVzVoALOnFnLTqH_IZ-1">
          <mxGeometry x="300" y="520" width="65" height="52" as="geometry" />
        </mxCell>
        <mxCell id="SSU8CUwgX_QRmmI8L2Xm-5" style="vsdxID=156;edgeStyle=orthogonalEdgeStyle;startArrow=none;endArrow=none;startSize=5;endSize=5;strokeColor=#000000;spacingTop=-3;spacingBottom=-3;spacingLeft=-3;spacingRight=-3;verticalAlign=middle;html=1;labelBackgroundColor=none;rounded=1;curved=1;exitX=0.977;exitY=0.538;exitDx=0;exitDy=0;exitPerimeter=0;strokeWidth=2;" edge="1" parent="8lnVzVoALOnFnLTqH_IZ-1" target="SSU8CUwgX_QRmmI8L2Xm-3">
          <mxGeometry relative="1" as="geometry">
            <Array as="points">
              <mxPoint x="364" y="552" />
              <mxPoint x="463" y="552" />
              <mxPoint x="463" y="510" />
            </Array>
            <mxPoint x="363.5" y="550" as="sourcePoint" />
            <mxPoint x="563.5" y="581" as="targetPoint" />
          </mxGeometry>
        </mxCell>
        <mxCell id="SSU8CUwgX_QRmmI8L2Xm-6" value="" style="endArrow=classic;startArrow=classic;html=1;rounded=0;curved=1;strokeWidth=2;fillColor=#eeeeee;strokeColor=#999999;entryX=0.5;entryY=1;entryDx=0;entryDy=0;" edge="1" parent="8lnVzVoALOnFnLTqH_IZ-1" source="SSU8CUwgX_QRmmI8L2Xm-3" target="8lnVzVoALOnFnLTqH_IZ-33">
          <mxGeometry width="50" height="50" relative="1" as="geometry">
            <mxPoint x="581" y="351" as="sourcePoint" />
            <mxPoint x="424" y="120" as="targetPoint" />
          </mxGeometry>
        </mxCell>
        <mxCell id="SSU8CUwgX_QRmmI8L2Xm-8" value=".73" style="text;html=1;strokeColor=none;fillColor=none;align=center;verticalAlign=middle;whiteSpace=wrap;rounded=0;fontSize=13;movable=1;resizable=1;rotatable=1;deletable=1;editable=1;connectable=1;direction=east;container=0;" vertex="1" parent="8lnVzVoALOnFnLTqH_IZ-1">
          <mxGeometry x="691.0699999999999" y="531" width="24" height="30" as="geometry" />
        </mxCell>
        <mxCell id="SSU8CUwgX_QRmmI8L2Xm-9" style="edgeStyle=orthogonalEdgeStyle;rounded=0;orthogonalLoop=1;jettySize=auto;html=1;entryX=0;entryY=0.769;entryDx=0;entryDy=0;entryPerimeter=0;curved=1;strokeWidth=2;exitX=0.25;exitY=1;exitDx=0;exitDy=0;" edge="1" parent="8lnVzVoALOnFnLTqH_IZ-1" source="8lnVzVoALOnFnLTqH_IZ-36" target="SSU8CUwgX_QRmmI8L2Xm-4">
          <mxGeometry relative="1" as="geometry">
            <mxPoint x="80" y="280" as="sourcePoint" />
            <mxPoint x="310" y="341" as="targetPoint" />
            <Array as="points">
              <mxPoint x="80" y="270" />
              <mxPoint x="80" y="560" />
            </Array>
          </mxGeometry>
        </mxCell>
      </root>
    </mxGraphModel>
  </diagram>
</mxfile>
